<svg xmlns="http://www.w3.org/2000/svg" width="90.851" height="78.863" viewBox="0 0 90.851 78.863">
  <g id="_12" data-name="12" transform="translate(-493.546 -111.647)">
    <path id="Path_97320" data-name="Path 97320" d="M554.571,187.345c0,1.748-12.671,3.165-28.3,3.165s-28.3-1.417-28.3-3.165,12.671-3.165,28.3-3.165S554.571,185.6,554.571,187.345Z" fill="#ececf4"/>
    <g id="Group_36578" data-name="Group 36578">
      <rect id="Rectangle_12577" data-name="Rectangle 12577" width="81.259" height="65.886" rx="3.671" transform="translate(493.546 114.123)" fill="#ececf4"/>
      <g id="Group_36539" data-name="Group 36539">
        <path id="Path_97321" data-name="Path 97321" d="M584.4,125.781v1.986c-.779.816-1.535,1.536-2.27,2.169-4.431,3.856-7.946,4.693-10.507,4.613-2.146-.073-5.078-.822-8.542.618a12.758,12.758,0,0,0-4.111,2.823l-2.838-6.81-.312-.764-2.445-5.872a21.416,21.416,0,0,1,7.436-2.372,27.763,27.763,0,0,1,5.362-.036c2.241.058,5.29-.757,9.19-4.228.582-.509,1.186-1.091,1.8-1.731h3.23l1.535,3.689.364.873Z" fill="#42bccc"/>
        <path id="Path_97322" data-name="Path 97322" d="M572.581,128.235a8.267,8.267,0,0,0-.379-1.2c-1.025-2.46-3.136-3.921-4.716-3.263-1.4.583-1.907,2.634-1.292,4.806a19.688,19.688,0,0,0-6.61.49,21.934,21.934,0,0,0-3.772,1.342l.319.765a20.429,20.429,0,0,1,3.639-1.322,18.676,18.676,0,0,1,6.7-.433c1.035,2.458,3.144,3.918,4.723,3.26,1.14-.475,1.68-1.928,1.514-3.622.219-.073.444-.167.654-.254q4.5-1.875,8.929-8.068l-.362-.87C578.8,124.323,575.7,127.132,572.581,128.235Z" fill="#fff" opacity="0.56"/>
        <path id="Path_97323" data-name="Path 97323" d="M557.189,125.34a1.122,1.122,0,1,1-1.5-.7A1.171,1.171,0,0,1,557.189,125.34Z" fill="#fff" opacity="0.56"/>
        <path id="Path_97324" data-name="Path 97324" d="M560.49,133.924a1.122,1.122,0,1,1-1.5-.7A1.173,1.173,0,0,1,560.49,133.924Z" fill="#fff" opacity="0.56"/>
        <path id="Path_97325" data-name="Path 97325" d="M579.677,117.377a1.122,1.122,0,1,1-1.5-.7A1.172,1.172,0,0,1,579.677,117.377Z" fill="#fff" opacity="0.56"/>
        <path id="Path_97326" data-name="Path 97326" d="M583.792,125.539a1.122,1.122,0,1,1-1.5-.7A1.171,1.171,0,0,1,583.792,125.539Z" fill="#fff" opacity="0.56"/>
      </g>
      <g id="Group_36540" data-name="Group 36540">
        <path id="Path_97327" data-name="Path 97327" d="M580.512,116.177h-81a3.885,3.885,0,0,0-3.885,3.885v59.773a3.885,3.885,0,0,0,3.885,3.886h81a3.885,3.885,0,0,0,3.885-3.886V120.062A3.884,3.884,0,0,0,580.512,116.177Zm1.615,62.13A3.689,3.689,0,0,1,578.438,182h-76.85a3.687,3.687,0,0,1-3.682-3.689V121.6a3.688,3.688,0,0,1,3.682-3.689h76.85a3.516,3.516,0,0,1,1.3.248,3.605,3.605,0,0,1,2.045,1.906,3.141,3.141,0,0,1,.291.968,2.967,2.967,0,0,1,.051.567Z" fill="#3e3f55"/>
        <rect id="Rectangle_12578" data-name="Rectangle 12578" width="2.827" height="64.575" transform="translate(579.298 117.418)" fill="#3e3f55"/>
      </g>
      <g id="Group_36566" data-name="Group 36566">
        <g id="Group_36564" data-name="Group 36564">
          <path id="Path_97328" data-name="Path 97328" d="M505.823,152.194l-4.606-2.1q2.23-4.58,4.462-9.157c.005-.805.073-3.661,1.147-4.026s2.965,1.857,3.464,4.192a7.038,7.038,0,0,1-.2,3.52,12.033,12.033,0,0,0-.814,1.371,12.427,12.427,0,0,0-.859,2.192A10.4,10.4,0,0,1,505.823,152.194Z" fill="#02030f"/>
          <g id="Group_36544" data-name="Group 36544">
            <path id="Path_97329" data-name="Path 97329" d="M503.312,162.139a.577.577,0,0,1-.3-.2.672.672,0,0,1-.591-.062.41.41,0,0,1-.161-.251c-.008-.073.019-.1,0-.133-.058-.092-.285.046-.441-.055A.382.382,0,0,1,501.7,161c.059-.14.227-.2.218-.216s-.161.1-.309.065a.324.324,0,0,1-.226-.308c.009-.142.152-.238.217-.281.95-.633,1.426-.95,1.46-.967a11.182,11.182,0,0,0,1.006-.568s-1.051.629-1.548.437c-.123-.048-.343-.17-.334-.3.011-.164.376-.249.995-.426.329-.094.8-.234,1.369-.423l2.265-.3,1.011,1.274c-.719.989-1.266,1.7-1.349,1.786l-.222.234c-.126.13-.2.206-.256.262A8.85,8.85,0,0,1,503.312,162.139Z" fill="#f26f51"/>
            <g id="Group_36541" data-name="Group 36541">
              <path id="Path_97330" data-name="Path 97330" d="M501.918,160.91a.127.127,0,0,1-.108-.061.125.125,0,0,1,.044-.171l1.625-.958a.123.123,0,0,1,.171.044.125.125,0,0,1-.044.171l-1.625.958A.129.129,0,0,1,501.918,160.91Z" fill="#28271e"/>
            </g>
            <g id="Group_36542" data-name="Group 36542">
              <path id="Path_97331" data-name="Path 97331" d="M502.289,161.588a.125.125,0,0,1-.06-.235l1.7-.923a.125.125,0,1,1,.119.22l-1.7.923A.127.127,0,0,1,502.289,161.588Z" fill="#28271e"/>
            </g>
            <g id="Group_36543" data-name="Group 36543">
              <path id="Path_97332" data-name="Path 97332" d="M503.008,162.061a.125.125,0,0,1-.058-.236l1.621-.843a.128.128,0,0,1,.169.054.126.126,0,0,1-.054.169l-1.621.843A.128.128,0,0,1,503.008,162.061Z" fill="#28271e"/>
            </g>
          </g>
          <path id="Path_97333" data-name="Path 97333" d="M523.96,173.243a4.983,4.983,0,0,1-1.865-1.371c-.06-.075-.132-.161-.19-.243q-.242-.684-.488-1.434c-.04-.121-.075-.234-.116-.355-.051-.161-.1-.322-.152-.49-.114-.362-.222-.744-.328-1.133-.067-.238-.135-.47-.193-.714-.031-.074-.047-.152-.078-.227-.28-1.039-.547-2.155-.783-3.329a63.186,63.186,0,0,1-1.259-9.79c.271-1.013.606-2.074,1.021-3.187.218-.608.448-1.177.678-1.723.237.1,4.126,1.748,4.3,3.008,0,.065.067.613.1,1.341.017.394.015.694.015.856l.066,10.844v1.866c0,.023-.006.05,0,.066,0,.1,0,.2.007.295.025.125.043.247.069.364a1.312,1.312,0,0,1,.031.156c.026.147.052.293.076.447.036.215.072.431.116.648.114.627.224,1.244.339,1.871a1.357,1.357,0,0,0-1.494.545A1.374,1.374,0,0,0,523.96,173.243Z" fill="#f26f51"/>
          <path id="Path_97334" data-name="Path 97334" d="M522.844,153.669c-.037.051-.306.539-.706,1.142-.218.335-.393.575-.488.706l-6.3,8.826-.785,1.084-.306.43c-.015.022-.036.036-.044.051-.058.087-.109.167-.167.247-.066.138-.116.24-.153.335-.014.051-.051.1-.065.145-.066.131-.131.269-.2.408-.087.174-.167.349-.255.531-.007.022-.022.036-.029.058-.276.575-.546,1.142-.822,1.717a1.352,1.352,0,0,0-1.528-.436,1.377,1.377,0,0,0-.88,1.448,4.9,4.9,0,0,1-.713-2.2c0-.1-.015-.2-.008-.306.131-.465.284-.946.444-1.448.037-.123.073-.233.109-.356.058-.16.109-.32.168-.488.036-.109.072-.225.116-.342.087-.247.182-.509.284-.764.08-.233.16-.465.254-.7a1.933,1.933,0,0,0,.073-.226c.386-1,.822-2.066,1.317-3.157a62.814,62.814,0,0,1,4.715-8.674c.815-.662,1.7-1.324,2.692-1.986.531-.364,1.055-.691,1.557-1C521.258,148.932,523.44,152.549,522.844,153.669Z" fill="#f26f51"/>
          <g id="Group_36546" data-name="Group 36546">
            <path id="Path_97335" data-name="Path 97335" d="M510.187,139.634a9.725,9.725,0,0,0-2.619.5,10.442,10.442,0,0,0-1.953.921c-.237-.394-.459-.782-.7-1.176-.134-.231-.284-.467-.427-.712-.038-.061-.069-.123-.106-.184-.411-.693-.829-1.385-1.238-2.071-.067-.108-.126-.217-.192-.326-.01-.02-.027-.04-.038-.061.82-.56,1.6-1.107,2.381-1.655.128-.083.255-.174.383-.258.119.168.238.342.378.507.785,1.016,1.23,1.69,1.3,1.775A15.345,15.345,0,0,0,510.187,139.634Z" fill="#f26f51"/>
            <path id="Path_97336" data-name="Path 97336" d="M504.94,136.076a2.7,2.7,0,0,1-.449,3.089c-.038-.061-.069-.123-.106-.184-.411-.693-.829-1.385-1.238-2.071a1.813,1.813,0,0,0,1.391-.34A1.6,1.6,0,0,0,504.94,136.076Z" fill="#28271e"/>
            <g id="Group_36545" data-name="Group 36545">
              <path id="Path_97337" data-name="Path 97337" d="M503.969,138.566a2.285,2.285,0,0,1-3.1-.9l-1.592-2.9a.939.939,0,0,1,.371-1.274l2.361-1.3a.938.938,0,0,1,1.274.372l1.592,2.9A2.285,2.285,0,0,1,503.969,138.566Z" fill="#f26f51"/>
              <path id="Path_97338" data-name="Path 97338" d="M504.872,135.463l-1.437.785-4.161-1.485a2.223,2.223,0,0,1-.145-1.277,3.339,3.339,0,0,1,4.354-2A3.547,3.547,0,0,1,504.865,134,4.58,4.58,0,0,1,504.872,135.463Z" fill="#f26f51"/>
            </g>
          </g>
          <path id="Path_97339" data-name="Path 97339" d="M501.911,149.66a4.645,4.645,0,0,1,0-1.925c.263-1.285.656-2.891,1.031-4.322.16-.6.316-1.184.453-1.69.282-1.043.507-1.819.571-2.031-.734-.884,2.054-1.626,2.124-1.071a4.562,4.562,0,0,1-.042,1.277c-.052,1.024-.108,2.054-.159,3.079q-.2,3.73-.392,7.467a2.695,2.695,0,0,1-1.044,2.069,3.258,3.258,0,0,1-1.072-.473A3.785,3.785,0,0,1,501.911,149.66Z" fill="#f26f51"/>
          <g id="Group_36552" data-name="Group 36552">
            <path id="Path_97340" data-name="Path 97340" d="M509.662,169.126c-.016.072-.041.147-.054.212-.109.391-.174.715-.224.952a26.256,26.256,0,0,0-.086,8.366c.049.421.1.827.139,1.214.071.659.122,1.254.138,1.771.013.4.012.791.019,1.186.008.3.009.6.018.9,0,.173.007.356.006.536,0,.135.011.3,0,.434.66.158,1.308.326,1.955.478.034-.166.058-.328.093-.477.039-.266.084-.512.127-.752.084-.458.163-.886.247-1.289.191-.967.372-1.789.518-2.439.062-.247.111-.484.165-.712.064-.277.114-.494.122-.526.145-.62.813-3.7.946-4.466a13.728,13.728,0,0,0-.784-6.447c-.618,0-1.089.005-1.311.01a1.8,1.8,0,0,0-.234.02,1.938,1.938,0,0,0-.374.1,3.041,3.041,0,0,0-.284.111A3.858,3.858,0,0,0,509.662,169.126Z" fill="#f26f51"/>
            <g id="Group_36548" data-name="Group 36548">
              <g id="Group_36547" data-name="Group 36547">
                <path id="Path_97341" data-name="Path 97341" d="M504.906,187.691c.046.194.591.609.6.635a2.072,2.072,0,0,0,.522.3,25.315,25.315,0,0,0,4.274-.4c.437-.045,1.631-.226,1.832-1,.037-.12.076-.3-.075-1.146-.042-.233-.012-.1-.079-.464-.061-.33-.152-.782-.287-1.33a3.534,3.534,0,0,1-1.752.034c-.769.626-1.512,1.257-2.259,1.9-.515.294-1.033.6-1.552.9a3.366,3.366,0,0,1-.471.056c-.352.026-.491-.012-.609.121A.572.572,0,0,0,504.906,187.691Z" fill="#f26f51"/>
              </g>
            </g>
            <g id="Group_36551" data-name="Group 36551">
              <g id="Group_36550" data-name="Group 36550">
                <g id="Group_36549" data-name="Group 36549">
                  <path id="Path_97342" data-name="Path 97342" d="M513.025,187.678c-.016.085-.031.178-.055.264a2.336,2.336,0,0,1-.536.885l-7.046.21a1.372,1.372,0,0,1-1.274-.979.606.606,0,0,1-.031-.124,1.285,1.285,0,0,1,.35-.986c.21-.094.419-.187.637-.28.132-.062.256-.117.388-.171,1-.45,2.02-.893,3.03-1.336-.21-.4,1.561-.21,1.383.3a3.014,3.014,0,0,1,1.452-.023,2.185,2.185,0,0,1,1.484.947,1.854,1.854,0,0,1,.225.886A2.59,2.59,0,0,1,513.025,187.678Z" fill="#02030f"/>
                </g>
              </g>
            </g>
          </g>
          <g id="Group_36558" data-name="Group 36558">
            <path id="Path_97343" data-name="Path 97343" d="M521.762,169.469c0,.073,0,.152,0,.218-.008.406.01.737.022.978a26.228,26.228,0,0,0,2.005,8.122c.153.4.3.777.438,1.142.233.62.431,1.184.575,1.68.112.382.209.762.314,1.143.083.29.16.579.243.87.045.167.1.343.14.517.037.13.085.284.113.419.679-.012,1.348-.011,2.013-.026-.009-.169-.026-.331-.03-.485-.029-.266-.046-.517-.064-.76-.033-.463-.063-.9-.083-1.308-.057-.985-.086-1.826-.107-2.492,0-.255-.013-.5-.019-.73-.006-.285-.012-.508-.013-.541-.014-.636-.136-3.782-.2-4.56a13.723,13.723,0,0,0-2.369-6.047c-.6.154-1.054.276-1.267.337a1.666,1.666,0,0,0-.222.077,1.924,1.924,0,0,0-.338.187c-.089.051-.165.119-.248.178A3.831,3.831,0,0,0,521.762,169.469Z" fill="#f26f51"/>
            <g id="Group_36554" data-name="Group 36554">
              <g id="Group_36553" data-name="Group 36553">
                <path id="Path_97344" data-name="Path 97344" d="M521.791,188.633c.093.176.724.442.745.464a2.1,2.1,0,0,0,.58.161,25.2,25.2,0,0,0,4.039-1.452c.412-.153,1.524-.627,1.525-1.426.006-.126,0-.306-.359-1.092-.1-.214-.036-.1-.192-.429-.141-.3-.342-.719-.61-1.216a3.549,3.549,0,0,1-1.688.47c-.588.8-1.15,1.595-1.714,2.4-.425.414-.852.835-1.279,1.257a3.26,3.26,0,0,1-.442.172c-.334.113-.478.111-.56.27A.573.573,0,0,0,521.791,188.633Z" fill="#f26f51"/>
              </g>
            </g>
            <g id="Group_36557" data-name="Group 36557">
              <g id="Group_36556" data-name="Group 36556">
                <g id="Group_36555" data-name="Group 36555">
                  <path id="Path_97345" data-name="Path 97345" d="M529.65,186.593c.006.087.014.181.013.269a2.348,2.348,0,0,1-.3.992l-6.77,1.962a1.371,1.371,0,0,1-1.478-.63.539.539,0,0,1-.061-.112,1.289,1.289,0,0,1,.092-1.043c.18-.142.359-.285.547-.43.112-.093.219-.176.333-.262.858-.687,1.733-1.369,2.6-2.05-.3-.332,1.46-.593,1.415-.052a3.021,3.021,0,0,1,1.4-.385,2.183,2.183,0,0,1,1.673.547,1.853,1.853,0,0,1,.439.8A2.62,2.62,0,0,1,529.65,186.593Z" fill="#02030f"/>
                </g>
              </g>
            </g>
          </g>
          <path id="Path_97346" data-name="Path 97346" d="M524.509,152.255l-8.223,2.3c-.543-4.993-2.313-7.161-3.548-8.185-.775-.643-2.547-1.835-6.093-4.217-.4-.266-.723-.484-.939-.628q-.03-1.262-.062-2.522a15.26,15.26,0,0,1,11.824,1.546C523.819,144.421,524.457,151.545,524.509,152.255Z" fill="#f26f51"/>
          <path id="Path_97347" data-name="Path 97347" d="M512.011,183.472l-2.547-.394-.865-15.485a2.848,2.848,0,0,1,.3-1.448l6.747-13.323,5.366,5.184-6.73,8.822a36.14,36.14,0,0,1-2.274,16.644Z" fill="#02030f"/>
          <path id="Path_97348" data-name="Path 97348" d="M525.153,167.328a11.812,11.812,0,0,1,2.047,4.654c.359,1.891.048,3.051.127,7.032.026,1.269.08,2.3.121,2.965l-2.795.856-4-12.96L518.377,156.1l6.322-5.048Z" fill="#02030f"/>
          <path id="Path_97349" data-name="Path 97349" d="M524.7,151.048c-1.109,3.9-4.333,5.773-6.443,5.093-1.814-.584-2.506-2.957-2.607-3.319.079-.229.159-.457.238-.685l8.246-2.126Q524.417,150.529,524.7,151.048Z" fill="#28271e"/>
          <path id="Path_97350" data-name="Path 97350" d="M525.2,154.1a16.221,16.221,0,0,1-8.186,2.546,15.36,15.36,0,0,1-3.407-.294,11.5,11.5,0,0,0-1.444-6.86,25.026,25.026,0,0,0-5.063-5.881,4.623,4.623,0,0,1-1.682-1.926,3.954,3.954,0,0,1-.211-.616l2.824-5.423a19.182,19.182,0,0,1,10.075,4.084C524.616,144.983,525.133,152.77,525.2,154.1Z" fill="#02030f"/>
          <path id="Path_97351" data-name="Path 97351" d="M506.689,140.118l-8.412-5.7a5.3,5.3,0,0,1,1.5-2.859,5.773,5.773,0,0,1,5.8-1.093q1.854,3.911,3.709,7.821Z" fill="#02030f"/>
          <g id="Group_36559" data-name="Group 36559">
            <path id="Path_97352" data-name="Path 97352" d="M519.067,160.4a.125.125,0,0,1-.121-.094l-.8-3.228a.125.125,0,1,1,.242-.06l.8,3.227a.123.123,0,0,1-.09.151A.11.11,0,0,1,519.067,160.4Z" fill="#fff"/>
          </g>
          <path id="Path_97353" data-name="Path 97353" d="M516.842,150.352a1.937,1.937,0,0,1-1.611,1.825,1.9,1.9,0,0,1-1.92-1.048c-.093-.289-.179-.573-.265-.863-.1-.333-.209-.672-.306-1-.034-.121-.073-.234-.107-.355-.16-.531-.327-1.061-.481-1.6-.261-.828-.508-1.657-.762-2.486-.143-.438-.274-.891-.412-1.337.176-1.58.367-3.153.557-4.741a7.825,7.825,0,0,1,2.121.918,5.794,5.794,0,0,1,1.424,1.142,5.461,5.461,0,0,1,1.05,3.295c.034.412.071.854.12,1.338.035.354.072.722.118,1.112s.086.779.142,1.2c.009.087.017.173.033.259a.429.429,0,0,0,0,.1C516.629,148.8,516.739,149.538,516.842,150.352Z" fill="#f26f51"/>
          <path id="Path_97354" data-name="Path 97354" d="M515.337,154.232a4.637,4.637,0,0,1-1.41,1.31c-1.121.682-2.564,1.488-3.867,2.189-.552.294-1.082.574-1.546.819-.956.5-1.677.867-1.876.964-.147,1.14-2.589-.4-2.231-.825a4.586,4.586,0,0,1,.964-.839c.785-.66,1.578-1.32,2.363-1.98q2.866-2.4,5.734-4.8a2.693,2.693,0,0,1,2.226-.645,3.27,3.27,0,0,1,.384,1.107A3.78,3.78,0,0,1,515.337,154.232Z" fill="#f26f51"/>
          <path id="Path_97355" data-name="Path 97355" d="M517.281,149.733,512.587,151q-1.683-5.23-3.365-10.46c-.616-.635-2.76-2.928-2.153-4s3.882-.711,6.094.758a7.651,7.651,0,0,1,2.547,2.911c.282,1.268.548,2.593.788,3.971C516.835,146.116,517.09,147.97,517.281,149.733Z" fill="#02030f"/>
          <path id="Path_97356" data-name="Path 97356" d="M517.135,149.532a9.716,9.716,0,0,1-.9,4.244c-2.295,4.889-8.036,5.893-8.731,6l-2.342-1.887,7.42-6.889Z" fill="#02030f"/>
          <path id="Path_97357" data-name="Path 97357" d="M505.823,152.194a2.892,2.892,0,0,1-2.816,1.31c-1.809-.292-2.311-2.739-2.365-3a5.479,5.479,0,0,1,.318-2.956,56.232,56.232,0,0,1,2.661-6.64l2.569.82Q506.007,146.959,505.823,152.194Z" fill="#02030f"/>
          <path id="Path_97358" data-name="Path 97358" d="M507.039,144.211c-.222,2.042-.529,2.64-.819,2.668-.4.04-.8-.99-1.182-.879-.262.077-.194.6-.515.758-.287.138-.7-.106-1.062-.394q.6-3.232,1.2-6.464l1.01.233Q506.356,142.173,507.039,144.211Z" fill="#ffd400"/>
          <g id="Group_36560" data-name="Group 36560">
            <path id="Path_97359" data-name="Path 97359" d="M504.689,151.173a.128.128,0,0,1-.125-.134l.319-4.381a.134.134,0,0,1,.134-.116.125.125,0,0,1,.116.134l-.319,4.381A.124.124,0,0,1,504.689,151.173Z" fill="#fff"/>
          </g>
          <g id="Group_36561" data-name="Group 36561">
            <path id="Path_97360" data-name="Path 97360" d="M509.67,146.245a.124.124,0,0,1-.088-.036c-.016-.015-1.189-1.163-1.221-1.193-.01-.011-.342-.336-.676-.662s-.672-.657-.675-.66a.126.126,0,0,1,0-.176.124.124,0,0,1,.176,0l.674.659.676.66s1.212,1.186,1.223,1.2a.127.127,0,0,1,0,.177A.129.129,0,0,1,509.67,146.245Z" fill="#fff"/>
          </g>
          <g id="Group_36562" data-name="Group 36562">
            <path id="Path_97361" data-name="Path 97361" d="M511.677,148.3a.125.125,0,0,1-.119-.087l-2.338-7.266a.125.125,0,0,1,.081-.157.127.127,0,0,1,.157.081l2.338,7.266a.126.126,0,0,1-.081.157A.131.131,0,0,1,511.677,148.3Z" fill="#fff"/>
          </g>
          <g id="Group_36563" data-name="Group 36563">
            <path id="Path_97362" data-name="Path 97362" d="M514.307,156.6a.125.125,0,0,1-.1-.049.127.127,0,0,1,.023-.176,7.13,7.13,0,0,0,2.444-3.187,6.444,6.444,0,0,0,.351-1.425c.41-2.9-.709-8.2-1.062-9.749a.126.126,0,0,1,.095-.15.127.127,0,0,1,.149.1c.355,1.563,1.482,6.892,1.066,9.839a6.753,6.753,0,0,1-.365,1.478,7.385,7.385,0,0,1-2.525,3.3A.131.131,0,0,1,514.307,156.6Z" fill="#fff"/>
          </g>
          <path id="Path_97363" data-name="Path 97363" d="M536.1,146.155c-.236.6-2.13,5.166-6.093,5.874-3.605.644-6.71-2.451-8.716-4.438-2.486-2.462-2.408-3.754-4.586-6.229a20.789,20.789,0,0,0-8.68-5.721l-.324-.616c6.314-6.385,14.875-8.525,21.3-5.514a15.7,15.7,0,0,1,6.913,6.73,7.511,7.511,0,0,1,1.91,3.911A7.867,7.867,0,0,1,536.1,146.155Z" fill="#ffd400"/>
        </g>
        <g id="Group_36565" data-name="Group 36565">
          <path id="Path_97364" data-name="Path 97364" d="M528,134.066a1.964,1.964,0,0,0-.493-.056,3.609,3.609,0,0,0-1.831.757l-1.8-1.491a1.2,1.2,0,0,1,1.163.1l.741-1.207a2.5,2.5,0,0,0-1.546-.4,2.393,2.393,0,0,0-1.379.667l-.455-.376-.508.615.455.376a2.324,2.324,0,0,0-.391,1.641,2.4,2.4,0,0,0,.917,1.523.453.453,0,0,0,.067.049,2.6,2.6,0,0,0,3.327.028l1.934,1.6a1.454,1.454,0,0,1-.739.1,2.066,2.066,0,0,1-.846-.267l-.791,1.222a2.627,2.627,0,0,0,3.483-.138l.842.7.509-.615-.865-.714a2.654,2.654,0,0,0,.387-1.857,2.735,2.735,0,0,0-1.03-1.661A2.649,2.649,0,0,0,528,134.066Zm-3.452,1.261a1.1,1.1,0,0,1-1.223-.8,1.1,1.1,0,0,1,.024-.652l1.6,1.322A1.445,1.445,0,0,1,524.546,135.327Zm4.34,1.224a1.1,1.1,0,0,1-.119.773l-1.8-1.488c.068-.044.137-.081.205-.119a1.1,1.1,0,0,1,1.276.127A1.193,1.193,0,0,1,528.886,136.551Z" fill="#fff"/>
        </g>
      </g>
      <g id="Group_36567" data-name="Group 36567">
        <path id="Path_97365" data-name="Path 97365" d="M570.3,171.149l-4.555,8.86c-5.815-.264-8.44-2.064-9.755-3.715-.907-1.154-1.811-3.019-4.1-4.193a8.7,8.7,0,0,0-3.287-.9l4.555-8.86a14.644,14.644,0,0,1,4.528,2.841,19.025,19.025,0,0,1,2.381,2.786C561.341,169.542,564.018,171.193,570.3,171.149Z" fill="#42bccc"/>
        <path id="Path_97366" data-name="Path 97366" d="M559.72,174.009a5.751,5.751,0,0,0,.458-.727c.833-1.622.665-3.37-.376-3.9-.923-.474-2.219.166-3.082,1.446a13.5,13.5,0,0,0-3.174-3.238,14.937,14.937,0,0,0-2.366-1.379l-.26.5a13.945,13.945,0,0,1,2.3,1.318,12.789,12.789,0,0,1,3.185,3.313c-.828,1.626-.66,3.372.381,3.907a2.286,2.286,0,0,0,2.561-.807c.135.082.283.159.422.23,1.978,1.016,4.7,1.39,8.158,1.1l.294-.573C564.511,175.534,561.671,175.149,559.72,174.009Z" fill="#fff" opacity="0.56"/>
        <path id="Path_97367" data-name="Path 97367" d="M554.439,164.686a.767.767,0,1,1-.3-1.091A.8.8,0,0,1,554.439,164.686Z" fill="#fff" opacity="0.56"/>
        <path id="Path_97368" data-name="Path 97368" d="M551.409,170.2a.767.767,0,1,1-.3-1.091A.8.8,0,0,1,551.409,170.2Z" fill="#fff" opacity="0.56"/>
        <path id="Path_97369" data-name="Path 97369" d="M568.527,172.925a.767.767,0,1,1-.3-1.091A.8.8,0,0,1,568.527,172.925Z" fill="#fff" opacity="0.56"/>
        <path id="Path_97370" data-name="Path 97370" d="M566.077,178.678a.767.767,0,1,1-.3-1.091A.8.8,0,0,1,566.077,178.678Z" fill="#fff" opacity="0.56"/>
      </g>
      <g id="Group_36568" data-name="Group 36568">
        <path id="Path_97371" data-name="Path 97371" d="M565.558,150.834l-3.154,6.025c-3.968-.21-5.751-1.452-6.64-2.585a8.052,8.052,0,0,0-2.774-2.883,5.953,5.953,0,0,0-2.239-.633l3.154-6.024a9.991,9.991,0,0,1,3.076,1.962,12.94,12.94,0,0,1,1.611,1.914C559.448,149.692,561.267,150.832,565.558,150.834Z" fill="#42bccc"/>
        <path id="Path_97372" data-name="Path 97372" d="M558.318,152.733a3.824,3.824,0,0,0,.317-.494c.577-1.1.471-2.3-.237-2.667-.627-.329-1.515.1-2.111.971a9.193,9.193,0,0,0-2.15-2.227,10.2,10.2,0,0,0-1.608-.953l-.18.343a9.473,9.473,0,0,1,1.562.912,8.716,8.716,0,0,1,2.157,2.277c-.573,1.106-.467,2.3.24,2.669a1.56,1.56,0,0,0,1.752-.538c.092.057.193.11.287.159a10.411,10.411,0,0,0,5.563.8l.2-.39A9.9,9.9,0,0,1,558.318,152.733Z" fill="#fff" opacity="0.56"/>
        <path id="Path_97373" data-name="Path 97373" d="M554.761,146.342a.524.524,0,1,1-.2-.746A.547.547,0,0,1,554.761,146.342Z" fill="#fff" opacity="0.56"/>
        <path id="Path_97374" data-name="Path 97374" d="M552.665,150.091a.524.524,0,1,1-.2-.747A.547.547,0,0,1,552.665,150.091Z" fill="#fff" opacity="0.56"/>
        <path id="Path_97375" data-name="Path 97375" d="M564.336,152.038a.524.524,0,1,1-.2-.747A.549.549,0,0,1,564.336,152.038Z" fill="#fff" opacity="0.56"/>
        <path id="Path_97376" data-name="Path 97376" d="M562.634,155.952a.523.523,0,1,1-.2-.746A.547.547,0,0,1,562.634,155.952Z" fill="#fff" opacity="0.56"/>
      </g>
      <g id="Group_36569" data-name="Group 36569">
        <path id="Path_97377" data-name="Path 97377" d="M537.787,170.867l-3.136,1.23c-1.417-1.366-1.681-2.41-1.645-3.122a3.992,3.992,0,0,0-.1-1.98,2.945,2.945,0,0,0-.632-.964l3.136-1.23a4.949,4.949,0,0,1,.514,1.733,6.348,6.348,0,0,1-.018,1.239C535.872,168.456,536.182,169.473,537.787,170.867Z" fill="#42bccc"/>
        <path id="Path_97378" data-name="Path 97378" d="M534.462,169.227a1.911,1.911,0,0,0,.279-.082c.574-.225.922-.706.777-1.075-.128-.327-.6-.454-1.1-.322a4.584,4.584,0,0,0-.082-1.531,4.984,4.984,0,0,0-.293-.879l-.178.07a4.685,4.685,0,0,1,.288.848,4.32,4.32,0,0,1,.068,1.553c-.573.227-.921.708-.776,1.077a.774.774,0,0,0,.83.367c.016.051.037.1.056.153a5.165,5.165,0,0,0,1.823,2.1l.2-.08A4.9,4.9,0,0,1,534.462,169.227Z" fill="#fff" opacity="0.56"/>
        <path id="Path_97379" data-name="Path 97379" d="M535.205,165.681a.259.259,0,1,1,.168-.344A.271.271,0,0,1,535.205,165.681Z" fill="#fff" opacity="0.56"/>
        <path id="Path_97380" data-name="Path 97380" d="M533.2,166.4a.259.259,0,1,1,.168-.344A.271.271,0,0,1,533.2,166.4Z" fill="#fff" opacity="0.56"/>
        <path id="Path_97381" data-name="Path 97381" d="M536.939,170.92a.259.259,0,1,1,.168-.343A.271.271,0,0,1,536.939,170.92Z" fill="#fff" opacity="0.56"/>
        <path id="Path_97382" data-name="Path 97382" d="M535.032,171.833a.259.259,0,1,1,.168-.344A.271.271,0,0,1,535.032,171.833Z" fill="#fff" opacity="0.56"/>
      </g>
      <g id="Group_36570" data-name="Group 36570">
        <path id="Path_97383" data-name="Path 97383" d="M543.923,157.69l-4.271,1.835c-2.014-1.822-2.424-3.249-2.406-4.233a5.508,5.508,0,0,0-.228-2.725,4.06,4.06,0,0,0-.915-1.3l4.27-1.835a6.821,6.821,0,0,1,.786,2.367,8.9,8.9,0,0,1,.029,1.709C541.175,154.45,541.648,155.839,543.923,157.69Z" fill="#42bccc"/>
        <path id="Path_97384" data-name="Path 97384" d="M539.265,155.576a2.653,2.653,0,0,0,.381-.126c.781-.336,1.24-1.015,1.024-1.516-.191-.445-.847-.6-1.538-.4a6.267,6.267,0,0,0-.18-2.107,7.05,7.05,0,0,0-.442-1.2l-.243.1a6.571,6.571,0,0,1,.435,1.157,5.97,5.97,0,0,1,.162,2.138c-.781.339-1.239,1.017-1.024,1.519a1.069,1.069,0,0,0,1.162.47c.024.07.055.141.083.208a7.122,7.122,0,0,0,2.607,2.821l.277-.119A6.76,6.76,0,0,1,539.265,155.576Z" fill="#fff" opacity="0.56"/>
        <path id="Path_97385" data-name="Path 97385" d="M540.134,150.653a.358.358,0,1,1,.217-.481A.373.373,0,0,1,540.134,150.653Z" fill="#fff" opacity="0.56"/>
        <path id="Path_97386" data-name="Path 97386" d="M537.406,151.737a.358.358,0,1,1,.217-.481A.374.374,0,0,1,537.406,151.737Z" fill="#fff" opacity="0.56"/>
        <path id="Path_97387" data-name="Path 97387" d="M542.756,157.8a.358.358,0,1,1,.217-.481A.373.373,0,0,1,542.756,157.8Z" fill="#fff" opacity="0.56"/>
        <path id="Path_97388" data-name="Path 97388" d="M540.166,159.144a.358.358,0,1,1,.216-.481A.374.374,0,0,1,540.166,159.144Z" fill="#fff" opacity="0.56"/>
      </g>
      <g id="Group_36574" data-name="Group 36574">
        <g id="Group_36572" data-name="Group 36572">
          <g id="Group_36571" data-name="Group 36571">
            <path id="Path_97389" data-name="Path 97389" d="M544.631,112.686c-2.463-1.865-6.191-1.146-8.5,1.57l1.325.993c1.748-1.993,4.436-2.563,6.177-1.245,1.6,1.21,1.876,3.627.783,5.742a6.252,6.252,0,0,1-.58.926c-.129.163-.26.32-.4.47-1.666,1.815-4.123,2.381-5.828,1.317a2.7,2.7,0,0,1-.246-.175,2.214,2.214,0,0,1-.221-.181,1.912,1.912,0,0,1-.188-.182,3.463,3.463,0,0,1-.737-1.16,4.265,4.265,0,0,1-.267-1.051l-.559,0a1.167,1.167,0,0,0-.41.075,1.087,1.087,0,0,0-.591.569,5.308,5.308,0,0,0,1.752,3.073c.071.06.146.121.221.178s.164.121.245.178c.047.032.1.057.143.085a4.859,4.859,0,0,0,1.239.552,6.713,6.713,0,0,0,6.718-2.211c.153-.174.3-.352.445-.538a7.756,7.756,0,0,0,1.068-1.915A6.013,6.013,0,0,0,544.631,112.686Z" fill="#ff3506"/>
          </g>
        </g>
        <path id="Path_97390" data-name="Path 97390" d="M547.294,120.857l-.017,3.855a6.5,6.5,0,0,1-13.006-.032c0-.024.018-3.877.018-3.877a1.036,1.036,0,0,1,.1-.452,1.087,1.087,0,0,1,.591-.569,1.167,1.167,0,0,1,.41-.075l.559,0,8.466.036,1.78.007a1.159,1.159,0,0,1,.409.078A1.1,1.1,0,0,1,547.294,120.857Z" fill="#ff3506"/>
        <g id="Group_36573" data-name="Group 36573">
          <path id="Path_97391" data-name="Path 97391" d="M542.17,123.376a1.387,1.387,0,1,1-1.387-1.387A1.387,1.387,0,0,1,542.17,123.376Z" fill="#02030f"/>
          <path id="Path_97392" data-name="Path 97392" d="M541.984,128.212h-2.4l.69-3.8h.89Q541.573,126.313,541.984,128.212Z" fill="#02030f"/>
        </g>
      </g>
      <g id="Group_36575" data-name="Group 36575">
        <path id="Path_97393" data-name="Path 97393" d="M515.8,122.238H502.372a.364.364,0,1,1,0-.728H515.8a.364.364,0,1,1,0,.728Z" fill="#ececf4" style="mix-blend-mode: multiply;isolation: isolate"/>
        <path id="Path_97394" data-name="Path 97394" d="M515.8,123.663H502.372a.364.364,0,1,1,0-.728H515.8a.364.364,0,1,1,0,.728Z" fill="#ececf4" style="mix-blend-mode: multiply;isolation: isolate"/>
        <path id="Path_97395" data-name="Path 97395" d="M515.8,125H502.372a.364.364,0,1,1,0-.728H515.8a.364.364,0,1,1,0,.728Z" fill="#ececf4" style="mix-blend-mode: multiply;isolation: isolate"/>
        <path id="Path_97396" data-name="Path 97396" d="M515.8,126.4H502.372a.364.364,0,1,1,0-.728H515.8a.364.364,0,1,1,0,.728Z" fill="#ececf4" style="mix-blend-mode: multiply;isolation: isolate"/>
      </g>
      <g id="Group_36576" data-name="Group 36576">
        <rect id="Rectangle_12579" data-name="Rectangle 12579" width="9.588" height="0.728" rx="0.299" transform="translate(542.615 137.084)" fill="#ececf4" style="mix-blend-mode: multiply;isolation: isolate"/>
        <rect id="Rectangle_12580" data-name="Rectangle 12580" width="9.588" height="0.728" rx="0.299" transform="translate(542.615 138.509)" fill="#ececf4" style="mix-blend-mode: multiply;isolation: isolate"/>
        <rect id="Rectangle_12581" data-name="Rectangle 12581" width="9.588" height="0.728" rx="0.299" transform="translate(542.615 139.848)" fill="#ececf4" style="mix-blend-mode: multiply;isolation: isolate"/>
        <rect id="Rectangle_12582" data-name="Rectangle 12582" width="9.588" height="0.728" rx="0.299" transform="translate(542.615 141.242)" fill="#ececf4" style="mix-blend-mode: multiply;isolation: isolate"/>
      </g>
      <g id="Group_36577" data-name="Group 36577">
        <rect id="Rectangle_12583" data-name="Rectangle 12583" width="6.589" height="0.728" rx="0.248" transform="translate(570.304 163.763)" fill="#ececf4" style="mix-blend-mode: multiply;isolation: isolate"/>
        <rect id="Rectangle_12584" data-name="Rectangle 12584" width="6.589" height="0.728" rx="0.248" transform="translate(570.304 165.188)" fill="#ececf4" style="mix-blend-mode: multiply;isolation: isolate"/>
        <rect id="Rectangle_12585" data-name="Rectangle 12585" width="6.589" height="0.728" rx="0.248" transform="translate(570.304 166.526)" fill="#ececf4" style="mix-blend-mode: multiply;isolation: isolate"/>
        <rect id="Rectangle_12586" data-name="Rectangle 12586" width="6.589" height="0.728" rx="0.248" transform="translate(570.304 167.921)" fill="#ececf4" style="mix-blend-mode: multiply;isolation: isolate"/>
      </g>
    </g>
  </g>
</svg>
