<svg xmlns="http://www.w3.org/2000/svg" width="60.236" height="77.746" viewBox="0 0 60.236 77.746">
  <g id="_2" data-name="2" transform="translate(-105.516 -16.949)">
    <ellipse id="Ellipse_3807" data-name="Ellipse 3807" cx="25.336" cy="3.401" rx="25.336" ry="3.401" transform="translate(114.591 87.892)" fill="#ececf4"/>
    <g id="Group_36953" data-name="Group 36953">
      <path id="Path_98027" data-name="Path 98027" d="M109.972,76.292l5.366-2.894,3.577-3.662-3.88.384-5.669-1.211Z" fill="#ececf4"/>
      <g id="Group_36952" data-name="Group 36952">
        <path id="Path_98028" data-name="Path 98028" d="M111.781,25.188,110.6,68.245l4.726.829,6.741-1.345q4.158-7.509,8.317-15.019l-5.232-4.068-4.613-2.361.233-1.481-2.51-1.169.32-.646,2.306,1.071.284-1.886.742.107-.553,3.6,3.806,1.957,2.255-5.323,2.787-2.226-2.488-17.564H114.145A2.416,2.416,0,0,0,111.781,25.188Z" fill="#ececf4"/>
        <path id="Path_98029" data-name="Path 98029" d="M122.4,68.395l-10.623,8.243v3a2.409,2.409,0,0,0,2.364,2.459h30.08a2.364,2.364,0,0,0,2.175-1.481,2.334,2.334,0,0,0,.189-.7c0-.092.008-.177.008-.276V25.188a2.413,2.413,0,0,0-2.372-2.467H128.486l2.533,17.869-2.969,2.374-2.234,5.259,5.523,4.3-8.47,15.3,22.374,11.617,1.339.482a2.345,2.345,0,0,1-.2.7l-1.448-.525Z" fill="#ececf4"/>
      </g>
      <path id="Path_98030" data-name="Path 98030" d="M107.464,81.534H110.6V77.68l-.819.325Z" fill="#ececf4"/>
    </g>
    <g id="Group_36959" data-name="Group 36959">
      <g id="Group_36954" data-name="Group 36954">
        <path id="Path_98031" data-name="Path 98031" d="M108.884,75.984l-.635-7.741,5.814,1.241,4.2-.415L114.419,73Zm-.359-7.427.577,7.026,5.181-2.795,3.325-3.4-3.559.352Z" fill="#3e3f55"/>
      </g>
      <g id="Group_36957" data-name="Group 36957">
        <g id="Group_36955" data-name="Group 36955">
          <path id="Path_98032" data-name="Path 98032" d="M114.351,68.692,109.5,67.84l1.182-43.163a2.545,2.545,0,0,1,2.489-2.59h13.686l2.514,17.742-2.818,2.251-2.3,5.417-4-2.059.547-3.565L120.3,41.8l-.29,1.928-2.347-1.089-.209.421,2.48,1.155L119.7,45.7l4.532,2.319,5.336,4.146-8.4,15.164Zm-4.6-1.061,4.6.807,6.661-1.33,8.237-14.874-5.147-4-4.674-2.389.232-1.478-2.541-1.184.431-.869,2.266,1.052.277-1.843.99.142-.558,3.636,3.6,1.853,2.24-5.247,2.732-2.181-2.464-17.386H113.166a2.3,2.3,0,0,0-2.239,2.342Z" fill="#3e3f55"/>
        </g>
        <g id="Group_36956" data-name="Group 36956">
          <path id="Path_98033" data-name="Path 98033" d="M143.246,81.712h-30.08a2.54,2.54,0,0,1-2.489-2.585V76.068l10.735-8.33.07.037L144.017,79.47l1.321.478a2.2,2.2,0,0,0,.128-.461l-1.244-.447-22.5-11.684.062-.112,8.418-15.2-5.514-4.288,2.308-5.4,2.913-2.33-2.542-17.94h15.882a2.549,2.549,0,0,1,2.5,2.592V79.127c0,.053,0,.1,0,.149,0,.085,0,.106,0,.128a2.59,2.59,0,0,1-2.49,2.308ZM110.927,76.19v2.937a2.291,2.291,0,0,0,2.239,2.335h30.08a2.226,2.226,0,0,0,2-1.28l-1.334-.483L121.438,68.034Zm11.135-8.937,22.26,11.558,1.169.419c0-.033,0-.066,0-.1V24.679a2.3,2.3,0,0,0-2.247-2.342H127.652l2.522,17.8-3,2.4-2.184,5.142,5.531,4.3-.052.094Z" fill="#3e3f55"/>
        </g>
      </g>
      <g id="Group_36958" data-name="Group 36958">
        <path id="Path_98034" data-name="Path 98034" d="M109.748,81.15h-3.5l2.469-3.755,1.026-.408Zm-3.031-.25H109.5V77.355l-.61.243Z" fill="#3e3f55"/>
      </g>
    </g>
    <g id="Group_36961" data-name="Group 36961">
      <g id="Group_36960" data-name="Group 36960">
        <path id="Path_98035" data-name="Path 98035" d="M114.2,81.083V24.061a4.089,4.089,0,0,1,4.14-4.026h32.284a4.089,4.089,0,0,1,4.14,4.026V81.083a4.093,4.093,0,0,1-4.14,4.033H118.338A4.093,4.093,0,0,1,114.2,81.083Zm4.14-60.339a3.37,3.37,0,0,0-3.413,3.317V81.083a3.374,3.374,0,0,0,3.413,3.324h32.284a3.373,3.373,0,0,0,3.412-3.324V24.061a3.37,3.37,0,0,0-3.412-3.317Z" fill="#3e3f55"/>
      </g>
      <path id="Path_98036" data-name="Path 98036" d="M114.562,79.722v1.361a3.729,3.729,0,0,0,3.776,3.678h32.284a3.729,3.729,0,0,0,3.776-3.678V79.722Z" fill="#3e3f55"/>
    </g>
    <g id="Group_36973" data-name="Group 36973">
      <path id="Path_98037" data-name="Path 98037" d="M143.842,40.21a9.716,9.716,0,0,1,2.652-.279,10.454,10.454,0,0,1,2.134.319c.114-.445.215-.881.329-1.326.062-.26.137-.53.2-.806.019-.069.03-.137.049-.206.193-.782.394-1.565.588-2.34.033-.123.058-.245.09-.368,0-.022.014-.046.018-.069-.946-.3-1.848-.6-2.756-.9-.147-.043-.295-.094-.442-.137-.065.195-.129.4-.216.594-.459,1.2-.69,1.973-.733,2.075A15.432,15.432,0,0,1,143.842,40.21Z" fill="#f26f51"/>
      <path id="Path_98038" data-name="Path 98038" d="M146.942,35.721c.737.8,1.481,1.593,2.219,2.4.019-.069.03-.137.049-.206.193-.782.394-1.565.588-2.34C148.841,35.62,147.892,35.674,146.942,35.721Z" fill="#28271e"/>
      <path id="Path_98039" data-name="Path 98039" d="M138.355,59.2c.022.284.051.539.094.779l.8,1.331c.458.073.866.146,1.207.211.19.037.35.073.5.109.691.153,1.3.277,2.2.4a3.056,3.056,0,0,0,.859.036c.786-.1,1.7-1.521,2.59-3.42.495-1.055.975-2.248,1.4-3.441.313-1.732.575-3.58.772-5.53a69.129,69.129,0,0,0,.291-9.525,13.316,13.316,0,0,0-4.1-1.695,8.9,8.9,0,0,0-1.9,1.353,9.426,9.426,0,0,0-2.561,4.221c-.306,3.281-.619,6.555-.924,9.844-.139.422-.27.837-.4,1.259-.072.225-.145.458-.218.691a6.209,6.209,0,0,0-.444,1.346,6.144,6.144,0,0,0-.174,1.172A6.634,6.634,0,0,0,138.355,59.2Z" fill="#f26f51"/>
      <g id="Group_36962" data-name="Group 36962">
        <path id="Path_98040" data-name="Path 98040" d="M149.322,36.9a2.285,2.285,0,0,0,1.892-2.62l-.526-3.266a.939.939,0,0,0-1.076-.777l-2.66.428a.94.94,0,0,0-.777,1.076l.527,3.266A2.286,2.286,0,0,0,149.322,36.9Z" fill="#02030f"/>
        <path id="Path_98041" data-name="Path 98041" d="M146.7,35.011l1.616-.264,2.37-3.729a2.228,2.228,0,0,0-.671-1.1,3.34,3.34,0,0,0-4.665,1.1,3.548,3.548,0,0,0,.457,2.834A4.588,4.588,0,0,0,146.7,35.011Z" fill="#02030f"/>
      </g>
      <g id="Group_36963" data-name="Group 36963">
        <path id="Path_98042" data-name="Path 98042" d="M139.728,64.12c.048.039.434.441.977.921.3.267.528.454.653.556l8.367,6.9,1.039.845.406.336c.019.017.044.025.055.038.079.069.149.133.226.2.1.117.174.2.234.284.027.046.075.085.1.124.1.109.2.226.3.341.129.146.251.294.383.447.012.02.03.03.043.049.416.484.822.963,1.238,1.446a1.352,1.352,0,0,1,1.363-.816,1.379,1.379,0,0,1,1.225,1.172,4.914,4.914,0,0,0,.119-2.314c-.024-.092-.038-.2-.072-.3-.247-.416-.518-.841-.8-1.285-.068-.11-.131-.206-.2-.316-.1-.14-.188-.281-.288-.428-.063-.1-.128-.2-.2-.3-.149-.216-.308-.445-.472-.665-.137-.2-.275-.408-.426-.609a2.062,2.062,0,0,1-.129-.2c-.632-.87-1.328-1.784-2.088-2.711a62.732,62.732,0,0,0-6.794-7.161c-.959-.429-1.987-.839-3.114-1.224-.607-.214-1.2-.4-1.762-.561C140.037,59.134,138.862,63.191,139.728,64.12Z" fill="#f26f51"/>
        <path id="Path_98043" data-name="Path 98043" d="M140.132,58.851c-.029.055-.343.515-.7,1.144-.2.346-.336.61-.41.753l-5.044,9.6-.614,1.189-.245.467c-.013.022-.017.048-.026.061-.052.092-.1.173-.146.261-.094.121-.162.212-.23.287-.039.036-.068.092-.1.125-.088.117-.182.238-.272.365-.117.156-.237.306-.36.466-.016.017-.023.036-.039.053-.389.5-.774,1-1.163,1.507a1.352,1.352,0,0,1,1.078,1.168,1.38,1.38,0,0,1-.9,1.438,4.908,4.908,0,0,0,2.289-.356c.085-.043.189-.079.276-.131.357-.327.717-.68,1.093-1.049.094-.088.175-.17.27-.258.116-.124.236-.241.359-.369.082-.081.169-.166.253-.258.182-.189.373-.391.555-.6.172-.176.343-.353.509-.542a2.028,2.028,0,0,1,.168-.166c.723-.8,1.475-1.665,2.227-2.6a62.794,62.794,0,0,0,5.621-8.115c.224-1.026.416-2.117.561-3.3.086-.638.142-1.253.189-1.839C145.076,58.134,140.864,57.813,140.132,58.851Z" fill="#f26f51"/>
        <path id="Path_98044" data-name="Path 98044" d="M156.408,76.012c.016.072.041.147.054.212.11.391.174.716.224.953a26.25,26.25,0,0,1,.086,8.365c-.049.422-.1.828-.139,1.215-.071.658-.122,1.254-.137,1.771-.013.4-.013.79-.019,1.185-.008.3-.01.6-.018.9,0,.174-.008.357-.007.537,0,.135-.011.295,0,.434-.66.157-1.308.325-1.955.477-.034-.166-.058-.328-.093-.477-.038-.266-.084-.512-.127-.752-.084-.457-.163-.885-.246-1.288-.191-.967-.373-1.789-.518-2.439-.062-.248-.112-.485-.165-.712-.065-.277-.115-.495-.123-.527-.145-.62-.812-3.7-.946-4.465a13.726,13.726,0,0,1,.784-6.447c.618,0,1.09,0,1.311.009a2,2,0,0,1,.234.02,1.9,1.9,0,0,1,.375.1,2.97,2.97,0,0,1,.284.11A3.857,3.857,0,0,1,156.408,76.012Z" fill="#f26f51"/>
        <path id="Path_98045" data-name="Path 98045" d="M131.114,77.924c-.048-.055-.107-.109-.15-.159-.286-.288-.5-.54-.659-.723a26.3,26.3,0,0,1-4.144-7.268c-.162-.392-.317-.771-.469-1.129-.258-.61-.5-1.155-.741-1.614-.182-.354-.373-.7-.56-1.045-.14-.268-.283-.529-.423-.8-.083-.153-.167-.315-.255-.472-.063-.12-.134-.264-.207-.382.5-.458.985-.92,1.476-1.368.11.129.21.258.313.372.163.213.323.406.477.595.3.359.573.695.842,1.006.637.752,1.2,1.382,1.639,1.879.174.186.333.369.49.542.192.211.341.377.363.4.329.362,2.259,2.527,3,3.441a20.336,20.336,0,0,1,2.786,4.739,3.329,3.329,0,0,1-.5,1.018,3.416,3.416,0,0,1-.987.887c-.056.03-.111.054-.111.054-.03.014-.065.028-.1.043a1.922,1.922,0,0,1-.374.1c-.1.024-.2.028-.3.042A3.853,3.853,0,0,1,131.114,77.924Z" fill="#f26f51"/>
        <path id="Path_98046" data-name="Path 98046" d="M153.855,93.673l6.433.192a1.373,1.373,0,0,0,1.274-.979.642.642,0,0,0,.031-.124,1.288,1.288,0,0,0-.35-.987c-.21-.093-.419-.186-.637-.28l-.135-.062s-.127-.057-.253-.109c-.318-.129-2.012-.082-2.7-.755a1.3,1.3,0,0,1-.332-.581c.21-.4.187-1.266-.163-1.266a1.547,1.547,0,0,0-1.064.241,1.266,1.266,0,0,0-.156,1.328c-1.039-.158-1.443.051-1.616.282-.263.351-.026.8-.091,1.788A5.662,5.662,0,0,1,153.855,93.673Z" fill="#02030f"/>
        <path id="Path_98047" data-name="Path 98047" d="M125.751,60.95l-6.359.99a1.372,1.372,0,0,0-1.074,1.195.589.589,0,0,0-.007.128,1.286,1.286,0,0,0,.524.906c.223.053.447.107.677.159l.144.036s.136.033.27.06c.335.07,1.992-.287,2.791.249a1.309,1.309,0,0,1,.432.51c-.134.428.048,1.279.392,1.215a1.552,1.552,0,0,0,1-.431,1.266,1.266,0,0,0-.09-1.335c1.051-.035,1.409-.314,1.537-.572.194-.394-.12-.791-.238-1.776A5.628,5.628,0,0,1,125.751,60.95Z" fill="#02030f"/>
        <path id="Path_98048" data-name="Path 98048" d="M151.909,74.956l3.694-3.037L145.1,60.306c-2.33-2.308-5.533-2.179-6.831-.657-1.27,1.488-.408,3.943-.364,4.063Z" fill="#02030f"/>
        <path id="Path_98049" data-name="Path 98049" d="M133.331,71.033l2.65,4.512,7.363-9.368L137.7,60.811Z" fill="#02030f"/>
      </g>
      <path id="Path_98050" data-name="Path 98050" d="M137.06,60.163a5.945,5.945,0,0,0,1.549,1.549c3.18,2.169,7.386.342,7.873.124a66.885,66.885,0,0,0,1.535-6.628c.313-1.732.575-3.58.772-5.53a69.129,69.129,0,0,0,.291-9.525q-1.889-1.177-3.769-2.357a11.862,11.862,0,0,0-5.341,5.246c-1.448,3.019-.633,5.333-1.455,10.849A40.218,40.218,0,0,1,137.06,60.163Z" fill="#02030f"/>
      <g id="Group_36964" data-name="Group 36964">
        <path id="Path_98051" data-name="Path 98051" d="M142.335,67.3a.124.124,0,0,1-.077-.026l-4-3.119a.125.125,0,1,1,.153-.2l4,3.119a.125.125,0,0,1-.077.223Z" fill="#fff"/>
      </g>
      <g id="Group_36965" data-name="Group 36965">
        <path id="Path_98052" data-name="Path 98052" d="M138.337,64.181a.126.126,0,0,1-.109-.064,3.792,3.792,0,0,1-.427-2.52.121.121,0,0,1,.144-.1.123.123,0,0,1,.1.144,3.546,3.546,0,0,0,.4,2.355.124.124,0,0,1-.048.17A.132.132,0,0,1,138.337,64.181Z" fill="#fff"/>
      </g>
      <path id="Path_98053" data-name="Path 98053" d="M145.569,37.251l4.072,2.4q.3-1.551.59-3.1l-3.682-2.112Z" fill="#02030f"/>
      <path id="Path_98054" data-name="Path 98054" d="M148.6,33.251c.273.518.8.779,1.171.582a.951.951,0,0,0,.181-1.3c-.273-.518-.8-.779-1.171-.582A.95.95,0,0,0,148.6,33.251Z" fill="#f26f51"/>
      <path id="Path_98055" data-name="Path 98055" d="M134.417,44.594a1.937,1.937,0,0,0-.38,2.4,1.9,1.9,0,0,0,2.032.812c.283-.113.555-.228.834-.347.323-.131.652-.266.965-.4.114-.051.226-.092.34-.143.512-.215,1.027-.425,1.541-.65.8-.326,1.6-.665,2.4-1,.429-.168.862-.357,1.293-.535,1.1-1.143,2.2-2.293,3.3-3.451a7.85,7.85,0,0,0-2.06-1.049,5.787,5.787,0,0,0-1.787-.37,5.462,5.462,0,0,0-3.208,1.292c-.34.236-.7.489-1.108.76-.295.2-.6.405-.932.618s-.655.431-1.013.654c-.072.048-.145.1-.221.139a.376.376,0,0,1-.074.059C135.751,43.767,135.11,44.154,134.417,44.594Z" fill="#f26f51"/>
      <g id="Group_36971" data-name="Group 36971">
        <rect id="Rectangle_12744" data-name="Rectangle 12744" width="35.702" height="24.228" rx="2.401" transform="translate(165.751 66.134) rotate(180)" fill="#ffd400"/>
        <g id="Group_36969" data-name="Group 36969">
          <g id="Group_36966" data-name="Group 36966">
            <path id="Path_98056" data-name="Path 98056" d="M162.411,51.8a.768.768,0,0,1-.621.3.723.723,0,0,1-.648-.335,1.8,1.8,0,0,1-.219-.979,1.653,1.653,0,0,1,.265-1.044.794.794,0,0,1,1.245.063,1.789,1.789,0,0,1,.219.981A1.638,1.638,0,0,1,162.411,51.8Zm-.241-1.858a.439.439,0,0,0-.37-.216.461.461,0,0,0-.392.213,2.4,2.4,0,0,0,0,1.68.442.442,0,0,0,.373.216.457.457,0,0,0,.388-.214,1.589,1.589,0,0,0,.151-.841A1.618,1.618,0,0,0,162.17,49.944Z" fill="#fff"/>
            <path id="Path_98057" data-name="Path 98057" d="M160.351,51.8a.768.768,0,0,1-.621.3.725.725,0,0,1-.649-.335,1.8,1.8,0,0,1-.218-.979,1.653,1.653,0,0,1,.265-1.044.794.794,0,0,1,1.245.063,1.8,1.8,0,0,1,.219.981A1.638,1.638,0,0,1,160.351,51.8Zm-.241-1.858a.439.439,0,0,0-.37-.216.461.461,0,0,0-.392.213,2.4,2.4,0,0,0,0,1.68.442.442,0,0,0,.373.216.457.457,0,0,0,.388-.214,1.589,1.589,0,0,0,.151-.841A1.618,1.618,0,0,0,160.11,49.944Z" fill="#fff"/>
            <path id="Path_98058" data-name="Path 98058" d="M158.291,51.8a.768.768,0,0,1-.621.3.725.725,0,0,1-.649-.335,1.8,1.8,0,0,1-.218-.979,1.653,1.653,0,0,1,.265-1.044.794.794,0,0,1,1.245.063,1.8,1.8,0,0,1,.219.981A1.638,1.638,0,0,1,158.291,51.8Zm-.241-1.858a.439.439,0,0,0-.37-.216.461.461,0,0,0-.392.213,1.577,1.577,0,0,0-.152.841,1.6,1.6,0,0,0,.151.839.442.442,0,0,0,.373.216.457.457,0,0,0,.388-.214,1.589,1.589,0,0,0,.151-.841A1.618,1.618,0,0,0,158.05,49.944Z" fill="#fff"/>
            <path id="Path_98059" data-name="Path 98059" d="M156.231,51.8a.768.768,0,0,1-.621.3.725.725,0,0,1-.649-.335,1.8,1.8,0,0,1-.218-.979,1.653,1.653,0,0,1,.265-1.044.794.794,0,0,1,1.245.063,1.8,1.8,0,0,1,.219.981A1.638,1.638,0,0,1,156.231,51.8Zm-.241-1.858a.439.439,0,0,0-.37-.216.464.464,0,0,0-.393.213,2.412,2.412,0,0,0,0,1.68.442.442,0,0,0,.373.216.457.457,0,0,0,.388-.214,1.589,1.589,0,0,0,.151-.841A1.618,1.618,0,0,0,155.99,49.944Z" fill="#fff"/>
          </g>
          <g id="Group_36967" data-name="Group 36967">
            <path id="Path_98060" data-name="Path 98060" d="M151.322,51.8a.768.768,0,0,1-.621.3.724.724,0,0,1-.648-.335,1.8,1.8,0,0,1-.219-.979,1.653,1.653,0,0,1,.265-1.044.794.794,0,0,1,1.245.063,1.789,1.789,0,0,1,.219.981A1.638,1.638,0,0,1,151.322,51.8Zm-.241-1.858a.439.439,0,0,0-.37-.216.461.461,0,0,0-.392.213,2.4,2.4,0,0,0,0,1.68.442.442,0,0,0,.373.216.457.457,0,0,0,.388-.214,1.589,1.589,0,0,0,.151-.841A1.608,1.608,0,0,0,151.081,49.944Z" fill="#fff"/>
            <path id="Path_98061" data-name="Path 98061" d="M149.262,51.8a.768.768,0,0,1-.621.3.723.723,0,0,1-.648-.335,1.8,1.8,0,0,1-.219-.979,1.653,1.653,0,0,1,.265-1.044.794.794,0,0,1,1.245.063,1.789,1.789,0,0,1,.219.981A1.638,1.638,0,0,1,149.262,51.8Zm-.241-1.858a.439.439,0,0,0-.37-.216.461.461,0,0,0-.392.213,2.4,2.4,0,0,0,0,1.68.442.442,0,0,0,.373.216.457.457,0,0,0,.388-.214,1.589,1.589,0,0,0,.151-.841A1.608,1.608,0,0,0,149.021,49.944Z" fill="#fff"/>
            <path id="Path_98062" data-name="Path 98062" d="M147.2,51.8a.768.768,0,0,1-.621.3.723.723,0,0,1-.648-.335,1.8,1.8,0,0,1-.219-.979,1.653,1.653,0,0,1,.265-1.044.794.794,0,0,1,1.245.063,1.789,1.789,0,0,1,.219.981A1.638,1.638,0,0,1,147.2,51.8Zm-.241-1.858a.439.439,0,0,0-.37-.216.461.461,0,0,0-.392.213,2.4,2.4,0,0,0,0,1.68.442.442,0,0,0,.373.216.457.457,0,0,0,.388-.214,1.589,1.589,0,0,0,.151-.841A1.618,1.618,0,0,0,146.961,49.944Z" fill="#fff"/>
            <path id="Path_98063" data-name="Path 98063" d="M145.142,51.8a.768.768,0,0,1-.621.3.723.723,0,0,1-.648-.335,1.8,1.8,0,0,1-.219-.979,1.653,1.653,0,0,1,.265-1.044.794.794,0,0,1,1.245.063,1.8,1.8,0,0,1,.219.981A1.638,1.638,0,0,1,145.142,51.8Zm-.241-1.858a.439.439,0,0,0-.37-.216.461.461,0,0,0-.392.213,2.4,2.4,0,0,0,0,1.68.442.442,0,0,0,.373.216.457.457,0,0,0,.388-.214,1.589,1.589,0,0,0,.151-.841A1.618,1.618,0,0,0,144.9,49.944Z" fill="#fff"/>
          </g>
          <g id="Group_36968" data-name="Group 36968">
            <path id="Path_98064" data-name="Path 98064" d="M140.354,51.8a.768.768,0,0,1-.621.3.724.724,0,0,1-.648-.335,1.8,1.8,0,0,1-.218-.979,1.66,1.66,0,0,1,.264-1.044.794.794,0,0,1,1.245.063,1.789,1.789,0,0,1,.22.981A1.637,1.637,0,0,1,140.354,51.8Zm-.24-1.858a.44.44,0,0,0-.371-.216.461.461,0,0,0-.392.213,2.419,2.419,0,0,0,0,1.68.444.444,0,0,0,.374.216.456.456,0,0,0,.387-.214,1.587,1.587,0,0,0,.152-.841A1.618,1.618,0,0,0,140.114,49.944Z" fill="#fff"/>
            <path id="Path_98065" data-name="Path 98065" d="M138.294,51.8a.768.768,0,0,1-.621.3.724.724,0,0,1-.648-.335,1.8,1.8,0,0,1-.218-.979,1.654,1.654,0,0,1,.264-1.044.794.794,0,0,1,1.245.063,1.788,1.788,0,0,1,.22.981A1.637,1.637,0,0,1,138.294,51.8Zm-.24-1.858a.44.44,0,0,0-.371-.216.461.461,0,0,0-.392.213,2.419,2.419,0,0,0,0,1.68.444.444,0,0,0,.374.216.456.456,0,0,0,.387-.214,1.587,1.587,0,0,0,.152-.841A1.618,1.618,0,0,0,138.054,49.944Z" fill="#fff"/>
            <path id="Path_98066" data-name="Path 98066" d="M136.234,51.8a.768.768,0,0,1-.621.3.724.724,0,0,1-.648-.335,1.8,1.8,0,0,1-.218-.979,1.654,1.654,0,0,1,.264-1.044.794.794,0,0,1,1.245.063,1.788,1.788,0,0,1,.22.981A1.637,1.637,0,0,1,136.234,51.8Zm-.24-1.858a.441.441,0,0,0-.371-.216.461.461,0,0,0-.392.213,2.419,2.419,0,0,0,0,1.68.443.443,0,0,0,.373.216.457.457,0,0,0,.388-.214,1.587,1.587,0,0,0,.152-.841A1.618,1.618,0,0,0,135.994,49.944Z" fill="#fff"/>
            <path id="Path_98067" data-name="Path 98067" d="M134.174,51.8a.768.768,0,0,1-.621.3.724.724,0,0,1-.648-.335,1.8,1.8,0,0,1-.219-.979,1.653,1.653,0,0,1,.265-1.044.794.794,0,0,1,1.245.063,1.789,1.789,0,0,1,.219.981A1.638,1.638,0,0,1,134.174,51.8Zm-.24-1.858a.441.441,0,0,0-.371-.216.461.461,0,0,0-.392.213,2.4,2.4,0,0,0,0,1.68.442.442,0,0,0,.373.216.457.457,0,0,0,.388-.214,1.589,1.589,0,0,0,.151-.841A1.621,1.621,0,0,0,133.934,49.944Z" fill="#fff"/>
          </g>
        </g>
        <g id="Group_36970" data-name="Group 36970">
          <path id="Path_98068" data-name="Path 98068" d="M152.966,45.311H161.9a.465.465,0,0,0,0-.93h-8.935a.465.465,0,1,0,0,.93Z" fill="#ffd400" style="mix-blend-mode: multiply;isolation: isolate"/>
          <path id="Path_98069" data-name="Path 98069" d="M152.966,46.811H161.9a.466.466,0,0,0,0-.931h-8.935a.466.466,0,1,0,0,.931Z" fill="#ffd400" style="mix-blend-mode: multiply;isolation: isolate"/>
        </g>
        <rect id="Rectangle_12745" data-name="Rectangle 12745" width="13.644" height="1.859" rx="0.658" transform="translate(163.236 57.934) rotate(180)" fill="#ffd400" style="mix-blend-mode: multiply;isolation: isolate"/>
        <rect id="Rectangle_12746" data-name="Rectangle 12746" width="8.56" height="1.859" rx="0.521" transform="translate(149.018 57.934) rotate(180)" fill="#ffd400" style="mix-blend-mode: multiply;isolation: isolate"/>
        <rect id="Rectangle_12747" data-name="Rectangle 12747" width="6.867" height="1.859" rx="0.466" transform="translate(139.926 57.934) rotate(180)" fill="#ffd400" style="mix-blend-mode: multiply;isolation: isolate"/>
        <circle id="Ellipse_3808" data-name="Ellipse 3808" cx="2.636" cy="2.636" r="2.636" transform="translate(157.529 59.832)" fill="#02030f"/>
        <circle id="Ellipse_3809" data-name="Ellipse 3809" cx="2.636" cy="2.636" r="2.636" transform="translate(151.143 59.832)" fill="#ff3506"/>
      </g>
      <path id="Path_98070" data-name="Path 98070" d="M138.026,44.855a4.624,4.624,0,0,0,1.383,1.339c1.106.706,2.532,1.543,3.82,2.27.546.306,1.069.6,1.528.852.946.524,1.659.9,1.855,1,.124,1.142,2.6-.342,2.249-.779a4.571,4.571,0,0,0-.946-.858c-.772-.677-1.55-1.354-2.321-2.03q-2.817-2.456-5.632-4.919a2.694,2.694,0,0,0-2.212-.691,3.276,3.276,0,0,0-.408,1.1A3.789,3.789,0,0,0,138.026,44.855Z" fill="#f26f51"/>
      <path id="Path_98071" data-name="Path 98071" d="M140.122,42.132l6.548-.225a3.073,3.073,0,0,0,.243-1.775,3.341,3.341,0,0,0-1.725-2.268l-7.438,3.179Z" fill="#02030f"/>
      <path id="Path_98072" data-name="Path 98072" d="M144,49.257l2.926-1.531-6.382-5.866-2.8-.817a3.84,3.84,0,0,0-.684,2.06C137.029,45.575,139.79,48.131,144,49.257Z" fill="#02030f"/>
      <g id="Group_36972" data-name="Group 36972">
        <path id="Path_98073" data-name="Path 98073" d="M149.088,49.431l-1.5-1.114L145.453,49.7c2.262,1.986,2.982,2.637,3.131,2.789.007.006.285.29.285.29.111.107.183.166.273.256.106.106.177.191.2.216a9.406,9.406,0,0,0,1.307,1.121.741.741,0,0,0,.556.221c.024-.005.158-.037.173-.112s-.07-.133-.1-.158c-.266-.216-.516-.453-.786-.665a1.406,1.406,0,0,1-.571-.856c0-.461.761-.94,1.865-1.18-.07-.063-.175-.154-.308-.26-.418-.33-.606-.392-.635-.573a.519.519,0,0,1,.17-.391c.221-.245.435-.144.793-.355.336-.2.6-.552.528-.686a.182.182,0,0,0-.135-.068c-.191-.034-.339.113-.466.184a1.12,1.12,0,0,1-.831-.031A4.749,4.749,0,0,0,149.088,49.431Z" fill="#02030f"/>
        <path id="Path_98074" data-name="Path 98074" d="M150.473,52.651l-.571.538,1.857,1.094c.1.06.322.18.416.1a.145.145,0,0,0,.042-.089c.036-.236-.3-.48-.344-.513Z" fill="#02030f"/>
        <path id="Path_98075" data-name="Path 98075" d="M151.184,52.158l-.6.483a10.053,10.053,0,0,0,1.072.82c.865.573,1.155.571,1.341.5.048-.018.222-.087.237-.208.028-.236-.6-.4-1.274-.89A4.615,4.615,0,0,1,151.184,52.158Z" fill="#02030f"/>
        <path id="Path_98076" data-name="Path 98076" d="M151.784,51.62l-.555.561,1.012.505.569.249c.369.211.682.278.747.188s-.09-.351-.371-.618l-.547-.344Q152.209,51.891,151.784,51.62Z" fill="#02030f"/>
        <path id="Path_98077" data-name="Path 98077" d="M149.92,52.4l-.389.585.428.285.621-.521,1.229-1.042-.025-.086-.373-.11Z" fill="#02030f"/>
      </g>
    </g>
    <circle id="Ellipse_3810" data-name="Ellipse 3810" cx="12.047" cy="12.047" r="12.047" transform="translate(105.516 16.949)" fill="#02030f"/>
    <g id="Group_36974" data-name="Group 36974">
      <path id="Path_98078" data-name="Path 98078" d="M118.561,30.531l-1.719,2.136.049,2.13.045,1.823h2.175c2.933,0,5.311-3.225,5.311-7.2V22.56a6.168,6.168,0,0,1-3.315.521,6.3,6.3,0,0,1-3.433-1.606c-.044-.039-.079-.074-.114-.1-.035.035-.069.07-.109.1a6.166,6.166,0,0,1-.718.57l.7,1.7,1.4,3.433-1.085.793Z" fill="#ffd400"/>
      <path id="Path_98079" data-name="Path 98079" d="M110.7,22.565v6.857c0,3.973,2.378,7.2,5.31,7.2h.427L116.4,34.8l-.055-2.3,1.67-2.071-.842-2.645,1.06-.773-1.2-2.943-.718-1.758a6.16,6.16,0,0,1-2.289.773A6.235,6.235,0,0,1,110.7,22.565Z" fill="#ffd400"/>
      <path id="Path_98080" data-name="Path 98080" d="M118.561,30.531l-1.719,2.136.049,2.13H118.7c2.15,0,3.889-2.363,3.889-5.271V24.5a4.54,4.54,0,0,1-2.428.377,4.645,4.645,0,0,1-2.517-1.174.469.469,0,0,0-.084-.074c-.025.024-.049.049-.079.074a.365.365,0,0,1-.05.044l1.4,3.433-1.085.793Z" fill="#ffd400"/>
      <path id="Path_98081" data-name="Path 98081" d="M112.537,24.5v5.029c0,2.893,1.724,5.246,3.859,5.271l-.055-2.3,1.67-2.071-.842-2.645,1.06-.773-1.2-2.943a4.477,4.477,0,0,1-4.488.431Z" fill="#ffd400"/>
    </g>
  </g>
</svg>
