<svg xmlns="http://www.w3.org/2000/svg" width="91.12" height="89.102" viewBox="0 0 91.12 89.102">
  <g id="_4" data-name="4" transform="translate(-279.622 -9.342)">
    <path id="Path_97875" data-name="Path 97875" d="M279.622,93.8c0,2.564,14.819,4.643,33.1,4.643s33.1-2.079,33.1-4.643-14.819-4.643-33.1-4.643S279.622,91.237,279.622,93.8Z" fill="#ececf4"/>
    <g id="Group_36872" data-name="Group 36872" style="mix-blend-mode: multiply;isolation: isolate">
      <path id="Path_97876" data-name="Path 97876" d="M336.61,24.957h11.421a.229.229,0,0,0,0-.458H336.61a.229.229,0,0,0,0,.458Z" fill="#ccccdb"/>
      <path id="Path_97877" data-name="Path 97877" d="M336.61,26.074h11.421a.229.229,0,0,0,0-.458H336.61a.229.229,0,0,0,0,.458Z" fill="#ccccdb"/>
      <rect id="Rectangle_12711" data-name="Rectangle 12711" width="3.889" height="0.458" rx="0.131" transform="translate(348.259 28.863) rotate(180)" fill="#ccccdb"/>
      <rect id="Rectangle_12712" data-name="Rectangle 12712" width="2.343" height="0.458" rx="0.102" transform="translate(344.136 28.863) rotate(180)" fill="#ccccdb"/>
      <rect id="Rectangle_12713" data-name="Rectangle 12713" width="5.261" height="0.458" rx="0.152" transform="translate(341.643 28.863) rotate(180)" fill="#ccccdb"/>
      <rect id="Rectangle_12714" data-name="Rectangle 12714" width="6.178" height="0.458" rx="0.165" transform="translate(348.259 27.191) rotate(180)" fill="#ccccdb"/>
      <rect id="Rectangle_12715" data-name="Rectangle 12715" width="5.261" height="0.458" rx="0.152" transform="translate(341.643 27.191) rotate(-180)" fill="#ccccdb"/>
      <rect id="Rectangle_12716" data-name="Rectangle 12716" width="6.178" height="0.458" rx="0.165" transform="translate(348.259 29.863) rotate(180)" fill="#ccccdb"/>
      <rect id="Rectangle_12717" data-name="Rectangle 12717" width="5.261" height="0.458" rx="0.152" transform="translate(341.643 29.863) rotate(180)" fill="#ccccdb"/>
    </g>
    <g id="Group_36873" data-name="Group 36873" style="mix-blend-mode: multiply;isolation: isolate">
      <path id="Path_97878" data-name="Path 97878" d="M336.61,32.367h11.421a.229.229,0,0,0,0-.458H336.61a.229.229,0,0,0,0,.458Z" fill="#ccccdb"/>
      <path id="Path_97879" data-name="Path 97879" d="M336.61,33.484h11.421a.229.229,0,0,0,0-.458H336.61a.229.229,0,0,0,0,.458Z" fill="#ccccdb"/>
      <rect id="Rectangle_12718" data-name="Rectangle 12718" width="3.889" height="0.458" rx="0.131" transform="translate(348.259 36.273) rotate(180)" fill="#ccccdb"/>
      <rect id="Rectangle_12719" data-name="Rectangle 12719" width="2.343" height="0.458" rx="0.102" transform="translate(344.136 36.273) rotate(180)" fill="#ccccdb"/>
      <rect id="Rectangle_12720" data-name="Rectangle 12720" width="5.261" height="0.458" rx="0.152" transform="translate(341.643 36.273) rotate(180)" fill="#ccccdb"/>
      <rect id="Rectangle_12721" data-name="Rectangle 12721" width="6.178" height="0.458" rx="0.165" transform="translate(348.259 34.601) rotate(180)" fill="#ccccdb"/>
      <rect id="Rectangle_12722" data-name="Rectangle 12722" width="5.261" height="0.458" rx="0.152" transform="translate(341.643 34.601) rotate(180)" fill="#ccccdb"/>
      <rect id="Rectangle_12723" data-name="Rectangle 12723" width="6.178" height="0.458" rx="0.165" transform="translate(348.259 37.274) rotate(180)" fill="#ccccdb"/>
      <rect id="Rectangle_12724" data-name="Rectangle 12724" width="5.261" height="0.458" rx="0.152" transform="translate(341.643 37.274) rotate(180)" fill="#ccccdb"/>
    </g>
    <g id="Group_36874" data-name="Group 36874" style="mix-blend-mode: multiply;isolation: isolate">
      <path id="Path_97880" data-name="Path 97880" d="M336.61,39.778h11.421a.229.229,0,0,0,0-.458H336.61a.229.229,0,0,0,0,.458Z" fill="#ccccdb"/>
      <path id="Path_97881" data-name="Path 97881" d="M336.61,40.9h11.421a.229.229,0,0,0,0-.458H336.61a.229.229,0,0,0,0,.458Z" fill="#ccccdb"/>
      <rect id="Rectangle_12725" data-name="Rectangle 12725" width="3.889" height="0.458" rx="0.131" transform="translate(348.259 43.684) rotate(180)" fill="#ccccdb"/>
      <rect id="Rectangle_12726" data-name="Rectangle 12726" width="2.343" height="0.458" rx="0.102" transform="translate(344.136 43.684) rotate(180)" fill="#ccccdb"/>
      <rect id="Rectangle_12727" data-name="Rectangle 12727" width="5.261" height="0.458" rx="0.152" transform="translate(341.643 43.684) rotate(180)" fill="#ccccdb"/>
      <rect id="Rectangle_12728" data-name="Rectangle 12728" width="6.178" height="0.458" rx="0.165" transform="translate(348.259 42.012) rotate(180)" fill="#ccccdb"/>
      <rect id="Rectangle_12729" data-name="Rectangle 12729" width="5.261" height="0.458" rx="0.152" transform="translate(341.643 42.012) rotate(180)" fill="#ccccdb"/>
      <rect id="Rectangle_12730" data-name="Rectangle 12730" width="6.178" height="0.458" rx="0.165" transform="translate(348.259 44.684) rotate(180)" fill="#ccccdb"/>
      <rect id="Rectangle_12731" data-name="Rectangle 12731" width="5.261" height="0.458" rx="0.152" transform="translate(341.643 44.684) rotate(180)" fill="#ccccdb"/>
    </g>
    <g id="Group_36879" data-name="Group 36879">
      <g id="Group_36876" data-name="Group 36876">
        <g id="Group_36875" data-name="Group 36875">
          <path id="Path_97882" data-name="Path 97882" d="M325.725,54.426a1.937,1.937,0,0,0,2.4-.4,1.9,1.9,0,0,0,.132-2.183c-.2-.233-.391-.456-.591-.683-.226-.266-.458-.535-.683-.79-.084-.093-.159-.186-.243-.279-.365-.418-.726-.841-1.1-1.258-.563-.661-1.134-1.31-1.7-1.965-.3-.354-.61-.707-.915-1.06-1.431-.689-2.866-1.363-4.312-2.046a7.823,7.823,0,0,0-.349,2.284,5.823,5.823,0,0,0,.211,1.814,5.459,5.459,0,0,0,2.234,2.639c.332.248.686.514,1.07.813.281.218.574.445.879.691s.616.486.94.755c.068.054.137.107.2.166a.42.42,0,0,1,.079.053C324.521,53.42,325.09,53.907,325.725,54.426Z" fill="#f26f51"/>
          <path id="Path_97883" data-name="Path 97883" d="M328.793,54.989a4.63,4.63,0,0,0,1.716-.872c1.028-.816,2.283-1.892,3.39-2.873.467-.416.913-.817,1.3-1.168.8-.723,1.394-1.275,1.554-1.427,1.12.255.522-2.567-.005-2.379a4.557,4.557,0,0,0-1.119.615c-.891.509-1.784,1.024-2.675,1.533q-3.238,1.865-6.484,3.724a2.7,2.7,0,0,0-1.374,1.867,3.261,3.261,0,0,0,.907.743A3.782,3.782,0,0,0,328.793,54.989Z" fill="#00010e"/>
        </g>
        <path id="Path_97884" data-name="Path 97884" d="M318.152,48.454l6.434,5.844,3.348-3.466-6.015-6.549c-.17-.176-1.524-1.548-2.637-1.205C318.115,43.437,317.265,45.661,318.152,48.454Z" fill="#3e3f55"/>
        <path id="Path_97885" data-name="Path 97885" d="M328.93,55.653a17.037,17.037,0,0,0,6.859-5.794q-.262-1.383-.526-2.764l-7.329,3.737c-2.424.449-3.657,2.373-3.348,3.466C324.88,55.339,326.757,56.275,328.93,55.653Z" fill="#3e3f55"/>
      </g>
      <g id="Group_36878" data-name="Group 36878">
        <g id="Group_36877" data-name="Group 36877">
          <rect id="Rectangle_12732" data-name="Rectangle 12732" width="9.222" height="3.595" transform="matrix(-0.185, -0.983, 0.983, -0.185, 336.973, 52.333)" fill="#42bccc"/>
          <path id="Path_97886" data-name="Path 97886" d="M337.447,42.86l.653,3.469a1.259,1.259,0,0,1,.4,2.125l.653,3.469-.618.116-.638-3.391a1.229,1.229,0,0,1-.429-2.28l-.638-3.392Z" fill="#fff" opacity="0.51"/>
        </g>
        <rect id="Rectangle_12733" data-name="Rectangle 12733" width="2.499" height="3.595" transform="translate(336.369 49.118) rotate(-100.656)" fill="#fff"/>
      </g>
      <path id="Path_97887" data-name="Path 97887" d="M338.578,49.063l1.419.006a2.875,2.875,0,0,0-.624-3.314c-.959.482-1.39.808-1.338.989.045.152.431.206,1.189.155-.06.024-1.118.455-1.066.657s1.226.059,1.277.052c-.182.049-1.345.367-1.316.577s1.145.2,1.351.2c-.562-.065-.967.113-1.016.341A.394.394,0,0,0,338.578,49.063Z" fill="#00010e"/>
      <path id="Path_97888" data-name="Path 97888" d="M335.678,47.231l1.049-.927c.09-.039.947-.421.893-.678-.041-.2-.611-.287-1.4-.237a2.883,2.883,0,0,0-.472.525,2.922,2.922,0,0,0-.489,1.29Z" fill="#00010e"/>
    </g>
    <path id="Path_97889" data-name="Path 97889" d="M324.758,91.6l26.141-.083a3.38,3.38,0,0,0,3.38-3.379V72.217a43.862,43.862,0,0,1-10.745-6.78c-4.308-3.715-7.406-7.931-10.033-7.07a3.151,3.151,0,0,0-1.644,1.465c-.206.233-.461.54-.732.914a12.486,12.486,0,0,0-.889,1.415,12.234,12.234,0,0,0-1.338,4.228C328.5,69.189,326.886,78.653,324.758,91.6Z" fill="#ffd400"/>
    <path id="Path_97890" data-name="Path 97890" d="M310.516,23.285V89.451A3.475,3.475,0,0,0,314,92.923h36.918a3.473,3.473,0,0,0,3.473-3.472V23.285a3.481,3.481,0,0,0-3.473-3.482H314A3.483,3.483,0,0,0,310.516,23.285Zm.613.919a3.381,3.381,0,0,1,3.38-3.38H350.4a3.38,3.38,0,0,1,3.38,3.38V88.522a3.38,3.38,0,0,1-3.38,3.38H314.509a3.381,3.381,0,0,1-3.38-3.38Z" fill="#3e3f55"/>
    <path id="Path_97891" data-name="Path 97891" d="M318.261,43.255a9.724,9.724,0,0,1,2.66.186,10.439,10.439,0,0,1,2.048.684c.189-.419.364-.831.553-1.249.106-.246.227-.5.341-.758.03-.065.053-.13.084-.195.326-.737.659-1.473.985-2.2.053-.116.1-.231.152-.347.007-.022.022-.043.03-.065-.88-.459-1.716-.911-2.559-1.363-.137-.068-.274-.143-.411-.211-.1.181-.2.368-.316.548-.66,1.1-1.022,1.823-1.082,1.916A15.377,15.377,0,0,1,318.261,43.255Z" fill="#f26f51"/>
    <path id="Path_97892" data-name="Path 97892" d="M300.175,79.04a4.974,4.974,0,0,0,2.176-.787c.079-.055.172-.117.252-.179q.424-.588.874-1.238c.072-.1.138-.2.211-.307.1-.14.189-.28.284-.427.212-.315.424-.65.636-.994.132-.21.263-.413.388-.63.05-.062.087-.133.138-.195.563-.918,1.135-1.912,1.694-2.972a63.252,63.252,0,0,0,3.979-9.033c.027-1.048.006-2.161-.078-3.346-.037-.645-.1-1.255-.162-1.845-.256.031-4.452.51-4.977,1.668-.016.064-.238.57-.471,1.259-.128.373-.211.662-.257.817l-3.133,10.382L301.35,72.5,301.2,73c-.008.021-.009.05-.016.064-.03.1-.06.19-.09.281-.059.113-.111.225-.17.33a1.342,1.342,0,0,0-.073.14c-.067.134-.133.267-.2.407-.1.2-.192.393-.3.59-.287.568-.567,1.13-.855,1.7a1.358,1.358,0,0,1,1.279.945A1.375,1.375,0,0,1,300.175,79.04Z" fill="#f26f51"/>
    <path id="Path_97893" data-name="Path 97893" d="M305.411,62.289c.046.043.408.465.923.976.281.283.5.483.62.592l7.959,7.366.989.9.387.359c.018.018.043.028.053.041.074.073.141.141.214.208.092.122.162.211.217.3.025.047.071.089.094.129.09.115.183.237.282.358.121.153.235.308.357.468.011.02.029.031.04.051.387.507.766,1.008,1.153,1.515a1.352,1.352,0,0,1,1.408-.737,1.379,1.379,0,0,1,1.156,1.239,4.9,4.9,0,0,0,.251-2.3c-.019-.093-.027-.2-.055-.3-.222-.429-.469-.868-.728-1.328-.06-.114-.118-.213-.179-.327-.089-.145-.172-.291-.263-.443-.057-.1-.117-.206-.183-.312-.135-.224-.281-.461-.433-.69-.125-.212-.251-.424-.391-.632a1.953,1.953,0,0,1-.116-.207c-.582-.9-1.224-1.856-1.93-2.825a62.641,62.641,0,0,0-6.375-7.537c-.932-.484-1.936-.952-3.039-1.4-.594-.249-1.173-.463-1.727-.661C306,57.329,304.6,61.313,305.411,62.289Z" fill="#f26f51"/>
    <path id="Path_97894" data-name="Path 97894" d="M305.441,57.862l.1,1.551c.371.269.7.519.975.733.157.121.278.232.4.334.548.446,1.03.836,1.773,1.365a2.881,2.881,0,0,0,.752.418,1.221,1.221,0,0,0,.706-.009,9.71,9.71,0,0,0,3.157-1.839,58.622,58.622,0,0,0,5.924-5.45q.5-1.1.975-2.256a76.083,76.083,0,0,0,2.98-8.719c-.12-.177-.25-.344-.371-.5a9.594,9.594,0,0,0-1.114-1.282,3.967,3.967,0,0,0-.594-.492,8.849,8.849,0,0,0-2.313.334,9.366,9.366,0,0,0-4.206,2.582c-1.773,2.776-3.556,5.543-5.329,8.328-.316.307-.622.613-.938.929-.167.167-.334.343-.511.52a5.835,5.835,0,0,0-1.012.993,6.245,6.245,0,0,0-.687.957,7.5,7.5,0,0,0-.4.761C305.609,57.388,305.516,57.62,305.441,57.862Z" fill="#f26f51"/>
    <path id="Path_97895" data-name="Path 97895" d="M321.605,76.271c.016.072.041.147.054.212.109.391.174.715.224.952a26.256,26.256,0,0,1,.086,8.366c-.049.421-.1.827-.139,1.214-.071.659-.122,1.255-.138,1.771-.013.4-.012.791-.019,1.186-.008.3-.009.6-.018.9,0,.173-.007.356-.006.536,0,.135-.011.3,0,.434-.66.158-1.308.326-1.955.478-.034-.166-.058-.328-.093-.477-.038-.266-.084-.512-.127-.752-.084-.458-.163-.886-.247-1.288-.191-.968-.372-1.79-.518-2.44-.062-.247-.111-.484-.164-.712-.065-.277-.115-.494-.123-.526-.145-.62-.813-3.7-.946-4.466a13.722,13.722,0,0,1,.784-6.446c.618,0,1.089,0,1.311.009a1.8,1.8,0,0,1,.234.02,1.939,1.939,0,0,1,.374.1,3.04,3.04,0,0,1,.284.111A3.858,3.858,0,0,1,321.605,76.271Z" fill="#f26f51"/>
    <g id="Group_36881" data-name="Group 36881">
      <g id="Group_36880" data-name="Group 36880">
        <path id="Path_97896" data-name="Path 97896" d="M324.262,42.36a2.284,2.284,0,0,0,2.943-1.335l1.164-3.1a.939.939,0,0,0-.548-1.209l-2.521-.948a.939.939,0,0,0-1.209.549l-1.164,3.1A2.285,2.285,0,0,0,324.262,42.36Z" fill="#f26f51"/>
        <path id="Path_97897" data-name="Path 97897" d="M322.927,39.417l1.534.573,3.908-2.061a2.212,2.212,0,0,0-.038-1.285,3.339,3.339,0,0,0-4.594-1.362,3.543,3.543,0,0,0-1.01,2.687A4.59,4.59,0,0,0,322.927,39.417Z" fill="#f26f51"/>
      </g>
      <path id="Path_97898" data-name="Path 97898" d="M324.109,38.576c-.241.526-.726.819-1.082.655s-.449-.722-.208-1.248.727-.819,1.083-.656S324.351,38.05,324.109,38.576Z" fill="#f26f51"/>
    </g>
    <path id="Path_97899" data-name="Path 97899" d="M301.576,79.347c-.046.056-.09.122-.134.172-.241.327-.458.577-.614.762a26.275,26.275,0,0,1-6.553,5.2c-.363.22-.714.431-1.045.636-.563.348-1.065.673-1.482.978-.323.234-.632.475-.948.712-.243.179-.48.361-.724.54-.138.105-.286.212-.427.324-.109.08-.24.172-.346.262-.529-.425-1.059-.833-1.576-1.251.11-.129.223-.247.32-.366.185-.193.352-.381.515-.562.31-.347.6-.672.866-.985.647-.744,1.184-1.392,1.608-1.9.158-.2.314-.386.461-.567.179-.222.32-.395.341-.42.4-.495,2.42-2.91,2.946-3.487a13.717,13.717,0,0,1,5.572-3.337c.379.488.664.863.8,1.042a1.789,1.789,0,0,1,.129.2,2.033,2.033,0,0,1,.153.355,3.046,3.046,0,0,1,.087.292A3.861,3.861,0,0,1,301.576,79.347Z" fill="#f26f51"/>
    <path id="Path_97900" data-name="Path 97900" d="M317.271,74.448q-.168,2.8-.372,5.649-.337,4.74-.754,9.344l5.8-.523c.407-2.224.627-4.124.755-5.571a28.054,28.054,0,0,0,.125-5.5,22.6,22.6,0,0,0-.648-3.668c-.968-1.819-2.1-3.75-3.424-5.745a69.368,69.368,0,0,0-5.9-7.676L308.6,66.112Z" fill="#00010e"/>
    <path id="Path_97901" data-name="Path 97901" d="M299.374,75.668a41.229,41.229,0,0,0-9.982,8.956l4.178,5.223,8.744-10.775c3.914-5.937,6.8-10.35,8.318-12.438a14.181,14.181,0,0,0,2.35-4.692,13.136,13.136,0,0,0,.327-1.528l-7.2-4.055a11.645,11.645,0,0,0-.931,1.628,12.228,12.228,0,0,0-1.122,4.681C303.956,64.5,302.968,68.1,299.374,75.668Z" fill="#00010e"/>
    <g id="Group_36882" data-name="Group 36882">
      <path id="Path_97902" data-name="Path 97902" d="M309.939,67.737a.12.12,0,0,1-.071-.023.124.124,0,0,1-.031-.173l2.394-3.435a.125.125,0,0,1,.205.142l-2.394,3.435A.126.126,0,0,1,309.939,67.737Z" fill="#fff"/>
    </g>
    <path id="Path_97903" data-name="Path 97903" d="M305.711,57.119a25.26,25.26,0,0,0,4.438,5.135c1.3,1.049,2.7,1.727,3.965,1.365a2.947,2.947,0,0,0,.817-.409,74.87,74.87,0,0,0,4.3-8.245q.5-1.1.975-2.256a76.083,76.083,0,0,0,2.98-8.719c.01-.019.01-.037.019-.056l-.39-.445c-.39-.446-.752-.864-1.114-1.282l-.91-1.049a10.625,10.625,0,0,0-4.94,1.569c-2.4,1.523-1.82,2.683-5.859,7.54a24.317,24.317,0,0,0-3.361,4.819A21.545,21.545,0,0,0,305.711,57.119Z" fill="#3e3f55"/>
    <g id="Group_36888" data-name="Group 36888">
      <g id="Group_36884" data-name="Group 36884">
        <g id="Group_36883" data-name="Group 36883">
          <path id="Path_97904" data-name="Path 97904" d="M326.361,94.836c-.046.193-.591.609-.6.635a2.1,2.1,0,0,1-.523.3,25.39,25.39,0,0,1-4.273-.4c-.438-.046-1.632-.227-1.833-1-.037-.121-.076-.3.076-1.147.041-.233.011-.1.078-.464.061-.33.152-.782.287-1.33a3.535,3.535,0,0,0,1.752.034c.769.626,1.512,1.257,2.259,1.895.515.294,1.033.6,1.552.9a3.243,3.243,0,0,0,.471.055c.352.027.491-.011.609.122A.568.568,0,0,1,326.361,94.836Z" fill="#f26f51"/>
        </g>
      </g>
      <g id="Group_36887" data-name="Group 36887">
        <g id="Group_36886" data-name="Group 36886">
          <g id="Group_36885" data-name="Group 36885">
            <path id="Path_97905" data-name="Path 97905" d="M318.227,94.538a1.16,1.16,0,0,0,.009.195.4.4,0,0,1,.01.093,1.339,1.339,0,0,0,.055.26,2.163,2.163,0,0,0,.279.566,1.827,1.827,0,0,0,.251.316c1.29.037,2.572.084,3.853.121,1.058.028,2.126.065,3.194.093a1.458,1.458,0,0,0,1.216-.79,1,1,0,0,0,.056-.185.653.653,0,0,0,.037-.13,1.022,1.022,0,0,0-.018-.381,1.52,1.52,0,0,0-.335-.6c-.213-.092-.417-.185-.64-.278-.13-.065-.251-.121-.381-.177-.678-.3-1.365-.6-2.052-.9-.325-.149-.659-.288-.984-.427.213-.4.436-.79.659-1.17a3.017,3.017,0,0,0-.817-.1,1.569,1.569,0,0,0-1.068.241.742.742,0,0,0-.158.223,1.464,1.464,0,0,0,0,1.105,3.055,3.055,0,0,0-1.448-.019,3.378,3.378,0,0,0-.669.214,1.8,1.8,0,0,0-.817.733,1.893,1.893,0,0,0-.223.882A.64.64,0,0,0,318.227,94.538Z" fill="#ff3506"/>
            <path id="Path_97906" data-name="Path 97906" d="M318.227,94.417v.121a1.16,1.16,0,0,0,.009.195v.084a2.583,2.583,0,0,0,.065.269,2.163,2.163,0,0,0,.279.566,2.293,2.293,0,0,0,.26.316c1.281.037,2.563.084,3.844.121,1.058.028,2.126.065,3.194.093a1.458,1.458,0,0,0,1.216-.79,1.006,1.006,0,0,0,.065-.185c.056-.195.121-.437.019-.511-.167-.093-.576.344-1,.585a1.831,1.831,0,0,1-.4.167,5.236,5.236,0,0,1-2.4-.223l-1.365.01-1.773.009h-.631c-.455-.269-.91-.548-1.375-.817A.009.009,0,0,0,318.227,94.417Z" fill="#00010e"/>
          </g>
        </g>
      </g>
      <path id="Path_97907" data-name="Path 97907" d="M321.737,95.634c.316.148.631.3.947.455,1.058.028,2.126.065,3.194.093a1.458,1.458,0,0,0,1.216-.79,1.006,1.006,0,0,0,.065-.185c.056-.195.121-.437.019-.511a1.617,1.617,0,0,0-.344-.6c-.213-.092-.417-.185-.64-.278-.13-.065-.251-.121-.381-.177-.678-.3-1.365-.6-2.052-.9-.111.167-.232.325-.343.492-.465.669-.929,1.337-1.4,2.006-.065.1-.139.195-.2.3C321.783,95.569,321.765,95.6,321.737,95.634Z" fill="#00010e"/>
    </g>
    <g id="Group_36894" data-name="Group 36894">
      <g id="Group_36890" data-name="Group 36890">
        <g id="Group_36889" data-name="Group 36889">
          <path id="Path_97908" data-name="Path 97908" d="M291.3,93.745a2.756,2.756,0,0,1-.876.036,2.1,2.1,0,0,1-.585-.148,25.23,25.23,0,0,1-2.8-3.256c-.283-.337-1.015-1.3-.622-1.993.057-.113.152-.266.852-.772.191-.138.078-.065.378-.279.273-.194.653-.456,1.131-.756a3.533,3.533,0,0,0,1.236,1.242c.117.985.213,1.955.306,2.933.165.57.328,1.147.491,1.725a3.4,3.4,0,0,0,.3.367c.235.263.361.333.353.511A.57.57,0,0,1,291.3,93.745Z" fill="#f26f51"/>
        </g>
      </g>
      <g id="Group_36893" data-name="Group 36893">
        <g id="Group_36892" data-name="Group 36892">
          <g id="Group_36891" data-name="Group 36891">
            <path id="Path_97909" data-name="Path 97909" d="M285.662,87.875a1.059,1.059,0,0,0-.128.147.415.415,0,0,1-.058.073,1.264,1.264,0,0,0-.141.226,2.146,2.146,0,0,0-.194.6,1.886,1.886,0,0,0-.039.4c.9.924,1.791,1.848,2.686,2.765.741.757,1.483,1.526,2.231,2.288a1.457,1.457,0,0,0,1.423.278,1.1,1.1,0,0,0,.169-.094.7.7,0,0,0,.117-.068,1.037,1.037,0,0,0,.252-.286,1.525,1.525,0,0,0,.179-.667c-.089-.215-.171-.424-.267-.645-.048-.137-.1-.261-.151-.392-.28-.685-.561-1.383-.849-2.074-.13-.333-.273-.665-.41-.991.431-.139.862-.264,1.287-.383a3.03,3.03,0,0,0-.516-.641c-.327-.3-.594-.562-.935-.569a.746.746,0,0,0-.269.05,1.461,1.461,0,0,0-.768.8,3.034,3.034,0,0,0-1.028-1.021,3.324,3.324,0,0,0-.629-.311,1.8,1.8,0,0,0-1.1-.041,1.869,1.869,0,0,0-.774.479A.741.741,0,0,0,285.662,87.875Z" fill="#ff3506"/>
            <path id="Path_97910" data-name="Path 97910" d="M285.746,87.788l-.084.087a1.059,1.059,0,0,0-.128.147l-.059.06a2.281,2.281,0,0,0-.14.239,2.146,2.146,0,0,0-.194.6,2.419,2.419,0,0,0-.032.407c.895.918,1.784,1.842,2.679,2.759.741.757,1.483,1.526,2.231,2.288a1.457,1.457,0,0,0,1.423.278,1.033,1.033,0,0,0,.176-.088c.175-.1.39-.23.368-.354-.055-.183-.652-.153-1.127-.277a1.857,1.857,0,0,1-.4-.157,5.235,5.235,0,0,1-1.567-1.826l-.988-.942-1.281-1.227-.454-.439c-.14-.51-.273-1.026-.419-1.542A.01.01,0,0,0,285.746,87.788Z" fill="#00010e"/>
          </g>
        </g>
      </g>
      <path id="Path_97911" data-name="Path 97911" d="M287.423,91.1c.124.326.248.653.365.985.741.757,1.483,1.526,2.231,2.288a1.457,1.457,0,0,0,1.423.278,1.033,1.033,0,0,0,.176-.088c.175-.1.39-.23.368-.354a1.616,1.616,0,0,0,.173-.673c-.089-.215-.171-.424-.267-.645-.048-.137-.1-.261-.151-.392-.28-.685-.561-1.383-.849-2.074-.2.043-.392.072-.589.115-.8.158-1.6.315-2.4.467-.118.028-.235.043-.353.071C287.5,91.089,287.469,91.1,287.423,91.1Z" fill="#00010e"/>
    </g>
    <g id="Group_36895" data-name="Group 36895">
      <path id="Path_97912" data-name="Path 97912" d="M318.883,56.981a1.938,1.938,0,0,0,2.342.666,1.9,1.9,0,0,0,1.05-1.92c-.079-.294-.16-.578-.244-.869-.092-.337-.187-.68-.282-1.006-.037-.12-.064-.236-.1-.356-.153-.533-.3-1.07-.461-1.607-.227-.837-.467-1.668-.7-2.5-.116-.447-.251-.9-.377-1.349-1-1.233-2.012-2.454-3.029-3.688a7.816,7.816,0,0,0-1.289,1.919A5.8,5.8,0,0,0,315.209,48a5.455,5.455,0,0,0,.9,3.34c.194.366.4.758.622,1.191.161.317.329.647.5,1s.35.7.528,1.084c.04.077.079.155.113.236a.513.513,0,0,1,.049.081C318.222,55.557,318.53,56.24,318.883,56.981Z" fill="#f26f51"/>
      <path id="Path_97913" data-name="Path 97913" d="M320.05,58.686a4.637,4.637,0,0,0,1.382,1.339c1.106.706,2.532,1.543,3.82,2.27.546.306,1.07.6,1.528.852.946.524,1.659.9,1.855,1,.124,1.142,2.6-.342,2.249-.779a4.57,4.57,0,0,0-.946-.858c-.772-.677-1.55-1.354-2.321-2.03q-2.817-2.457-5.632-4.919a2.694,2.694,0,0,0-2.212-.691,3.248,3.248,0,0,0-.407,1.1A3.78,3.78,0,0,0,320.05,58.686Z" fill="#f26f51"/>
    </g>
    <path id="Path_97914" data-name="Path 97914" d="M319.192,57.929a12.315,12.315,0,0,0,2.582,3.54,12.605,12.605,0,0,0,5.919,3.134l2.245-2.089-7.061-6.848q-1.469-4.357-2.936-8.716a2.765,2.765,0,1,0-5.392.272,18.2,18.2,0,0,0,.812,4.062A18.54,18.54,0,0,0,319.192,57.929Z" fill="#3e3f55"/>
    <g id="Group_36896" data-name="Group 36896">
      <path id="Path_97915" data-name="Path 97915" d="M318.337,57.026a.128.128,0,0,1-.105-.055,24.67,24.67,0,0,1-3.806-9.729.124.124,0,0,1,.1-.143.129.129,0,0,1,.143.1,24.414,24.414,0,0,0,3.769,9.63.124.124,0,0,1-.035.173A.119.119,0,0,1,318.337,57.026Z" fill="#fff"/>
    </g>
    <g id="Group_36897" data-name="Group 36897">
      <path id="Path_97916" data-name="Path 97916" d="M321.051,50.371a.124.124,0,0,1-.119-.088l-1.108-3.557a.124.124,0,0,1,.082-.156.123.123,0,0,1,.156.082l1.108,3.556a.126.126,0,0,1-.082.157A.124.124,0,0,1,321.051,50.371Z" fill="#fff"/>
    </g>
    <path id="Path_97917" data-name="Path 97917" d="M329.459,75.745a.132.132,0,0,1,.01.065,14.1,14.1,0,0,0,.594,2.349,6.207,6.207,0,0,0,.381.92,3.545,3.545,0,0,0,.789,1.1,1.576,1.576,0,0,0,.687.4,2.053,2.053,0,0,0,1.653-.437,4.755,4.755,0,0,0,.826-.715,7.846,7.846,0,0,0,.65-.761,11.206,11.206,0,0,0,.993-1.542,6.724,6.724,0,0,0,.325-.64,12.411,12.411,0,0,0,.613-1.458c.01-.037.019-.065.028-.093a11.61,11.61,0,0,0,.483-1.773,1.022,1.022,0,0,0,.037-.167,11.7,11.7,0,0,0,.195-1.579,10.056,10.056,0,0,0-.213-1.439c-.26-1.43-.79-3.881-1.57-7.5-.427-1.969-.547-2.507-.937-2.665-1.458-.622-5.172,4.67-5.739,10.631A21.753,21.753,0,0,0,329.459,75.745Z" fill="#ffd400" style="mix-blend-mode: multiply;isolation: isolate"/>
    <g id="Group_36899" data-name="Group 36899">
      <g id="Group_36898" data-name="Group 36898">
        <path id="Path_97918" data-name="Path 97918" d="M329.431,75.792l.335.167,1.977,1.012.762.39c.028.009,1.727.882,1.727.882s.5.251.5.251l.316.167a11.206,11.206,0,0,0,.993-1.542,6.724,6.724,0,0,0,.325-.64,12.411,12.411,0,0,0,.613-1.458l-.38-.2-2.22-1.133-3.073-1.569-.715,1.4-.325.632-.808,1.587Z" fill="#42bccc"/>
        <path id="Path_97919" data-name="Path 97919" d="M333.331,75.736a1.2,1.2,0,0,0,.6,1.374.445.445,0,0,0,.158.056,1.187,1.187,0,0,0,1.309-.371l.158.083.482.241a6.724,6.724,0,0,0,.325-.64l-.482-.242-.232-.12a1.177,1.177,0,0,0-1.923-.984l-.065-.038-3.073-1.569c-.009,0-.325.632-.325.632-.009.018,2.238,1.16,2.238,1.16Z" fill="#fff" opacity="0.51"/>
      </g>
      <rect id="Rectangle_12734" data-name="Rectangle 12734" width="2.499" height="4.121" transform="matrix(-0.891, -0.454, 0.454, -0.891, 334.731, 78.498)" fill="#fff"/>
    </g>
    <g id="Group_36901" data-name="Group 36901">
      <g id="Group_36900" data-name="Group 36900">
        <path id="Path_97920" data-name="Path 97920" d="M331.864,70.62l2.646,2.21,1.913,1.606.585.492a11.61,11.61,0,0,0,.483-1.773l.1-.121-.065-.046a11.7,11.7,0,0,0,.195-1.579,10.056,10.056,0,0,0-.213-1.439l-.353-.3-2.647-2.219L333.5,68.67l-.464.548Z" fill="#42bccc"/>
        <path id="Path_97921" data-name="Path 97921" d="M335.68,71.437a1.181,1.181,0,0,0,1.774,1.486l.074.065a11.7,11.7,0,0,0,.195-1.579.883.883,0,0,0-.241-.325,1.18,1.18,0,0,0-1.282-.148l-.055-.047L333.5,68.67l-.464.548Z" fill="#fff" opacity="0.51"/>
      </g>
      <path id="Path_97922" data-name="Path 97922" d="M334.51,72.83l1.913,1.606,1.068-1.281.1-.121-.065-.046a11.7,11.7,0,0,0,.195-1.579,10.056,10.056,0,0,0-.213-1.439l-.353-.3-1.012,1.216-.465.548Z" fill="#fff"/>
    </g>
    <g id="Group_36903" data-name="Group 36903">
      <g id="Group_36902" data-name="Group 36902">
        <path id="Path_97923" data-name="Path 97923" d="M329.729,75.69l.037.269.3,2.2a6.207,6.207,0,0,0,.381.92,3.545,3.545,0,0,0,.789,1.1,1.576,1.576,0,0,0,.687.4,2.053,2.053,0,0,0,1.653-.437,4.755,4.755,0,0,0,.826-.715l-.121-.863-.037-.316c-.009,0-.148-1.077-.148-1.077l-.279-2.024-.186.028-1.123.148-.251.028c0,.009-.557.084-.557.084l-.158.018Z" fill="#42bccc"/>
        <path id="Path_97924" data-name="Path 97924" d="M331.223,80.146a1.479,1.479,0,0,0,.7.428,2.053,2.053,0,0,0,1.653-.437.925.925,0,0,0,0-.315,1.192,1.192,0,0,0-.845-.975l-.01-.075-.185-1.392c-.01-.056-.279-2.025-.279-2.025s-.557.075-.557.075l-.158.018.2,1.523.26,1.894A1.2,1.2,0,0,0,331.223,80.146Z" fill="#fff" opacity="0.51"/>
      </g>
      <path id="Path_97925" data-name="Path 97925" d="M330.444,79.079a3.545,3.545,0,0,0,.789,1.1,1.576,1.576,0,0,0,.687.4,2.053,2.053,0,0,0,1.653-.437,4.755,4.755,0,0,0,.826-.715l-.121-.863-1.56.213-.715.093C331.985,78.874,330.444,79.079,330.444,79.079Z" fill="#fff"/>
    </g>
    <g id="Group_36904" data-name="Group 36904">
      <path id="Path_97926" data-name="Path 97926" d="M321.3,51.119c-.1-.022-.139-.09-.121-.157l1.519-5.728a.128.128,0,0,1,.153-.089.125.125,0,0,1,.089.153l-1.519,5.728A.126.126,0,0,1,321.3,51.119Z" fill="#fff"/>
    </g>
    <g id="Group_36906" data-name="Group 36906">
      <g id="Group_36905" data-name="Group 36905">
        <path id="Path_97927" data-name="Path 97927" d="M323.534,52.4a.125.125,0,0,1-.124-.111l-.979-8.9a.124.124,0,0,1,.11-.138.121.121,0,0,1,.138.11l.979,8.9a.124.124,0,0,1-.11.138Z" fill="#00010e"/>
      </g>
      <path id="Path_97928" data-name="Path 97928" d="M323.044,52.32c0,.457.181.828.4.828s.4-.371.4-.828-.181-.826-.4-.826S323.044,51.864,323.044,52.32Z" fill="#00010e"/>
    </g>
    <g id="Group_36908" data-name="Group 36908">
      <g id="Group_36907" data-name="Group 36907">
        <path id="Path_97929" data-name="Path 97929" d="M325.079,52.716a.124.124,0,0,1-.122-.1l-1.964-8.738a.125.125,0,1,1,.244-.055l1.964,8.738a.125.125,0,0,1-.1.149A.117.117,0,0,1,325.079,52.716Z" fill="#00010e"/>
      </g>
      <path id="Path_97930" data-name="Path 97930" d="M324.6,52.689c.051.454.272.8.494.777s.361-.413.31-.867-.272-.8-.494-.777S324.546,52.235,324.6,52.689Z" fill="#00010e"/>
    </g>
    <circle id="Ellipse_3800" data-name="Ellipse 3800" cx="11.592" cy="11.592" r="11.592" transform="matrix(0.787, -0.617, 0.617, 0.787, 297.105, 23.641)" fill="#42bccc"/>
    <g id="Group_36911" data-name="Group 36911">
      <circle id="Ellipse_3801" data-name="Ellipse 3801" cx="10.931" cy="10.931" r="10.931" transform="matrix(0.741, -0.672, 0.672, 0.741, 339.861, 50.572)" fill="#ff3506"/>
      <g id="Group_36910" data-name="Group 36910">
        <path id="Path_97931" data-name="Path 97931" d="M355.8,45.722l5.827,10.093a.578.578,0,0,1-.5.867H349.474a.578.578,0,0,1-.5-.867L354.8,45.722A.578.578,0,0,1,355.8,45.722Z" fill="#fff"/>
        <g id="Group_36909" data-name="Group 36909">
          <path id="Path_97932" data-name="Path 97932" d="M355.283,55.1a.551.551,0,0,1,0-1.1.551.551,0,0,1,0,1.1Zm-.3-1.82-.124-4.263h.853l-.125,4.263Z"/>
        </g>
      </g>
    </g>
    <g id="Group_36912" data-name="Group 36912">
      <path id="Path_97933" data-name="Path 97933" d="M309.3,27.872a4.124,4.124,0,0,0,.939,2.786,3.99,3.99,0,0,0,2.524,1.332v1.688h1.2V32.034c2-.255,3.172-1.558,3.5-3.908l-2.176-.254a3.073,3.073,0,0,1-.5,1.237,2.2,2.2,0,0,1-.822.764V26.1a3.916,3.916,0,0,0,3.158-3.885.7.7,0,0,0,.007-.124,3.611,3.611,0,0,0-.888-2.525,3.5,3.5,0,0,0-2.277-1.12v-.888h-1.2v.888a3.6,3.6,0,0,0-2.1.96,3.775,3.775,0,0,0-1.019,2.176l2.11.3a1.806,1.806,0,0,1,1-1.441v3.522a5.441,5.441,0,0,0-2.633,1.4,2.931,2.931,0,0,0-.408.626A4,4,0,0,0,309.3,27.872Zm4.664-4.344V20.406a1.652,1.652,0,0,1,.779.6,1.664,1.664,0,0,1-.248,2.183A2.147,2.147,0,0,1,313.961,23.528Zm-2.612,4.678a1.652,1.652,0,0,1,1.07-1.6c.116-.044.225-.088.341-.124V30a1.65,1.65,0,0,1-1.011-.6A1.8,1.8,0,0,1,311.349,28.206Z" fill="#fff"/>
    </g>
    <path id="Path_97934" data-name="Path 97934" d="M329.938,66.849a2.239,2.239,0,0,0,2.151-1.364,2.3,2.3,0,0,0-.232-2l-1.6-.726L328.5,64.08l.267.513Z" fill="#00010e"/>
    <path id="Path_97935" data-name="Path 97935" d="M324.1,38.519c0,.433,2.1.784,4.678.784s4.678-.351,4.678-.784-2.094-.784-4.678-.784S324.1,38.086,324.1,38.519Z" fill="#00010e"/>
    <path id="Path_97936" data-name="Path 97936" d="M322.282,43.375c.441-.218.892-.464,1.348-.74a18.851,18.851,0,0,0,5.306-4.85,3.873,3.873,0,0,0-.193-1.664,3.835,3.835,0,0,0-.5-.967,4.791,4.791,0,0,0-3.44-1.017,5.372,5.372,0,0,0-3.214,2.1,11.372,11.372,0,0,0-2.665,5.21Z" fill="#00010e"/>
    <g id="Group_36916" data-name="Group 36916">
      <path id="Path_97937" data-name="Path 97937" d="M293.993,45.494a6.839,6.839,0,1,0,6.839-6.839A6.839,6.839,0,0,0,293.993,45.494Z" fill="#ff3506"/>
      <g id="Group_36915" data-name="Group 36915">
        <g id="Group_36913" data-name="Group 36913">
          <path id="Path_97938" data-name="Path 97938" d="M300.846,50.214a4.451,4.451,0,1,1,4.452-4.451A4.456,4.456,0,0,1,300.846,50.214Zm0-8.4a3.951,3.951,0,1,0,3.952,3.951A3.955,3.955,0,0,0,300.846,41.812Z" fill="#fff"/>
        </g>
        <path id="Path_97939" data-name="Path 97939" d="M300.318,45.763a.528.528,0,1,0,.528-.528A.528.528,0,0,0,300.318,45.763Z" fill="#fff"/>
        <g id="Group_36914" data-name="Group 36914">
          <path id="Path_97940" data-name="Path 97940" d="M301.08,45.952,298.8,44.479l.271-.42,1.518.978L300.6,42l.5,0Z" fill="#fff"/>
        </g>
      </g>
    </g>
  </g>
</svg>
