<svg xmlns="http://www.w3.org/2000/svg" width="100.118" height="75.984" viewBox="0 0 100.118 75.984">
  <g id="_6" data-name="6" transform="translate(-488.845 -17.848)">
    <path id="Path_97713" data-name="Path 97713" d="M520.975,90.463c0,1.667,12.067,3.019,26.953,3.019s26.953-1.352,26.953-3.019-12.067-3.018-26.953-3.018S520.975,88.8,520.975,90.463Z" fill="#ececf4"/>
    <g id="Group_36789" data-name="Group 36789">
      <rect id="Rectangle_12695" data-name="Rectangle 12695" width="38.688" height="67.577" rx="4.853" transform="translate(552.922 85.424) rotate(180)" fill="#ececf4"/>
      <g id="Group_36788" data-name="Group 36788">
        <g id="Group_36787" data-name="Group 36787">
          <path id="Path_97714" data-name="Path 97714" d="M547.031,87.31H514.379a3.271,3.271,0,0,1-3.268-3.267V21.794a3.272,3.272,0,0,1,3.268-3.268h32.652a3.272,3.272,0,0,1,3.268,3.268V84.043A3.271,3.271,0,0,1,547.031,87.31ZM514.379,19.026a2.771,2.771,0,0,0-2.768,2.768V84.043a2.77,2.77,0,0,0,2.768,2.767h32.652a2.77,2.77,0,0,0,2.768-2.767V21.794a2.771,2.771,0,0,0-2.768-2.768Z" fill="#00010e"/>
        </g>
      </g>
    </g>
    <g id="Group_36791" data-name="Group 36791">
      <path id="Path_97715" data-name="Path 97715" d="M569.5,23.455l7.208,12.485a.715.715,0,0,1-.62,1.073H561.677a.715.715,0,0,1-.62-1.073l7.208-12.485A.715.715,0,0,1,569.5,23.455Z" fill="#ff3506"/>
      <g id="Group_36790" data-name="Group 36790">
        <path id="Path_97716" data-name="Path 97716" d="M568.861,35.054a.683.683,0,0,1,0-1.364.683.683,0,0,1,0,1.364Zm-.374-2.256-.153-5.28h1.056l-.155,5.28Z" fill="#fff"/>
      </g>
    </g>
    <g id="Group_36809" data-name="Group 36809">
      <path id="Path_97717" data-name="Path 97717" d="M558.551,40.635c1.04,1.217,2.071,2.424,3.12,3.622.418.195.845.408,1.263.594.78.371,1.56.752,2.33,1.123.121.056.242.112.353.167l1.17.558c.112.055.214.1.325.157l.056.028c.288.14.594.288.891.427.214.1.418.2.641.307.056.028.121.055.176.083a1.854,1.854,0,0,0,1.811-3.129c-.7-.492-1.3-.91-1.857-1.3a.625.625,0,0,0-.074-.065c-.075-.046-.14-.1-.214-.148-.13-.093-.251-.177-.371-.27-.214-.148-.409-.3-.6-.436-.315-.232-.613-.455-.9-.668-.39-.288-.734-.558-1.068-.818a5.48,5.48,0,0,0-3.139-1.448,5.739,5.739,0,0,0-1.8.279A7.72,7.72,0,0,0,558.551,40.635Z" fill="#f26f51"/>
      <path id="Path_97718" data-name="Path 97718" d="M565.617,44.674v1.467l1.17.558c.112.055.214.1.325.157l.056.028q.5-2.047,1-4.095C567.326,43.421,566.472,44.043,565.617,44.674Z" fill="#00010e"/>
      <g id="Group_36795" data-name="Group 36795">
        <path id="Path_97719" data-name="Path 97719" d="M578.612,59.47a.591.591,0,0,1-.24.291.7.7,0,0,1-.127.6.427.427,0,0,1-.276.139c-.075,0-.1-.03-.136-.012-.1.05.016.3-.1.449a.4.4,0,0,1-.459.068c-.137-.075-.181-.254-.2-.247s.089.177.033.325a.333.333,0,0,1-.341.2c-.145-.024-.228-.182-.265-.252-.55-1.046-.825-1.569-.84-1.6a11.817,11.817,0,0,0-.476-1.1s.535,1.149.284,1.638c-.063.122-.211.335-.345.312-.168-.028-.216-.412-.332-1.068-.062-.349-.156-.847-.29-1.454q-.033-1.18-.068-2.362l1.419-.9c.941.845,1.609,1.483,1.693,1.579.1.114.217.253.217.253.121.144.191.231.242.29A9.136,9.136,0,0,1,578.612,59.47Z" fill="#f26f51"/>
        <g id="Group_36792" data-name="Group 36792">
          <path id="Path_97720" data-name="Path 97720" d="M577.071,60.884a.123.123,0,0,1-.113-.073l-.812-1.774a.124.124,0,0,1,.062-.166.123.123,0,0,1,.165.062l.812,1.775a.124.124,0,0,1-.062.165A.119.119,0,0,1,577.071,60.884Z" fill="#28271e"/>
        </g>
        <g id="Group_36793" data-name="Group 36793">
          <path id="Path_97721" data-name="Path 97721" d="M577.808,60.574a.126.126,0,0,1-.116-.077l-.767-1.848a.124.124,0,0,1,.067-.163.122.122,0,0,1,.163.067l.768,1.848a.126.126,0,0,1-.068.164A.13.13,0,0,1,577.808,60.574Z" fill="#28271e"/>
        </g>
        <g id="Group_36794" data-name="Group 36794">
          <path id="Path_97722" data-name="Path 97722" d="M578.372,59.886a.124.124,0,0,1-.116-.079l-.7-1.758a.125.125,0,0,1,.071-.162.127.127,0,0,1,.162.071l.694,1.757a.124.124,0,0,1-.07.162A.122.122,0,0,1,578.372,59.886Z" fill="#28271e"/>
        </g>
      </g>
      <path id="Path_97723" data-name="Path 97723" d="M559.174,39.177a9.744,9.744,0,0,0-2.664.139,10.454,10.454,0,0,0-2.059.647c-.182-.422-.349-.836-.531-1.259-.1-.247-.218-.5-.327-.764-.029-.065-.051-.13-.08-.2-.313-.742-.633-1.484-.946-2.219-.051-.117-.1-.233-.146-.349-.007-.022-.021-.044-.029-.066.888-.444,1.732-.88,2.583-1.317.138-.065.277-.138.415-.2.095.182.189.372.306.553.64,1.114.989,1.841,1.047,1.936A15.4,15.4,0,0,0,559.174,39.177Z" fill="#f26f51"/>
      <path id="Path_97724" data-name="Path 97724" d="M555.412,35.226c-.6.9-1.215,1.8-1.819,2.714-.029-.065-.051-.13-.08-.2-.313-.742-.633-1.484-.946-2.219C553.52,35.423,554.466,35.328,555.412,35.226Z" fill="#28271e"/>
      <path id="Path_97725" data-name="Path 97725" d="M575.156,76.106a4.979,4.979,0,0,1-2.314,0c-.093-.025-.2-.052-.3-.084q-.6-.408-1.241-.868l-.3-.218c-.136-.1-.273-.2-.412-.305-.306-.225-.619-.469-.934-.72-.2-.154-.388-.3-.578-.462-.069-.042-.128-.1-.2-.138-.84-.672-1.715-1.415-2.6-2.222a63.153,63.153,0,0,1-6.8-7.155c-.38-.977-.737-2.031-1.059-3.174-.184-.62-.335-1.214-.471-1.791.25-.058,4.361-1.027,5.247-.115.036.055.417.456.869,1.026.247.308.423.551.518.682l6.462,8.709.79,1.078.314.426c.015.017.025.044.036.054.062.083.121.159.181.235.093.086.18.174.271.253a1.328,1.328,0,0,1,.116.107c.108.1.215.206.325.316.157.152.314.305.477.454.463.438.916.872,1.379,1.309a1.358,1.358,0,0,0-.883,1.323A1.374,1.374,0,0,0,575.156,76.106Z" fill="#f26f51"/>
      <path id="Path_97726" data-name="Path 97726" d="M565.358,63.123c-.053.034-.487.383-1.086.79-.329.227-.582.383-.719.468l-9.176,5.78-1.138.7-.445.282c-.022.015-.048.02-.06.03-.087.059-.164.114-.249.166-.113.1-.2.178-.268.252-.033.041-.085.075-.116.11-.11.1-.223.2-.342.3-.147.129-.288.26-.437.4-.015.018-.034.026-.049.043-.474.427-.938.851-1.412,1.278a1.35,1.35,0,0,0-1.249-.983,1.378,1.378,0,0,0-1.363,1.006,4.9,4.9,0,0,1,.176-2.31c.035-.088.063-.195.109-.286.3-.381.621-.768.959-1.172.081-.1.156-.188.236-.288.115-.126.223-.255.34-.388.075-.087.153-.181.237-.272.175-.2.362-.4.552-.6.163-.185.325-.37.5-.55a1.958,1.958,0,0,0,.152-.181c.738-.783,1.544-1.6,2.416-2.423a62.825,62.825,0,0,1,7.65-6.24q.457-.138.934-.268c1.33-.363,1.806-.221,2.31-.549a2.248,2.248,0,0,0,.894-1.546,6.95,6.95,0,0,1,1.167,3.624A6.867,6.867,0,0,1,565.358,63.123Z" fill="#f26f51"/>
      <path id="Path_97727" data-name="Path 97727" d="M564.889,58.7c-.022.283-.051.538-.094.778l-.8,1.332c-.458.073-.865.145-1.207.211-.19.036-.35.073-.5.109-.691.153-1.3.277-2.2.4a3.026,3.026,0,0,1-.859.037c-.786-.1-1.7-1.521-2.59-3.42a62.029,62.029,0,0,1-3.187-9.023v-.08c.022-1.011.058-2.008.109-2.983.022-.32.037-.64.058-.96.029-.473.066-.939.1-1.4s.066-.917.109-1.368c.08-.9.168-1.783.262-2.641a.283.283,0,0,1,.08-.044,13.291,13.291,0,0,1,4.1-1.695,8.86,8.86,0,0,1,1.9,1.353,9.428,9.428,0,0,1,2.561,4.22c.306,3.282.619,6.556.924,9.845.139.422.27.836.4,1.258.072.226.145.459.218.692a7.607,7.607,0,0,1,.618,2.517A6.642,6.642,0,0,1,564.889,58.7Z" fill="#f26f51"/>
      <path id="Path_97728" data-name="Path 97728" d="M547.047,74.647a26.2,26.2,0,0,0,1.746,8.18c.139.4.278.789.4,1.161.213.622.4,1.2.52,1.7.1.381.186.761.278,1.151.01.019.01.047.019.065.065.269.139.539.2.808.037.167.084.344.121.52.028.13.074.288.1.427.678.009,1.346.028,2.006.037,0-.167-.01-.334-.01-.483-.018-.269-.027-.52-.046-.77,0-.112-.009-.214-.009-.316-.01-.343-.019-.668-.028-.994,0-.083-.009-.176-.009-.259-.019-.873-.019-1.616-.019-2.229.009-.26,0-.5,0-.733.009-.288.009-.511.009-.539.01-.641-.018-3.788-.055-4.568a13.715,13.715,0,0,0-2.173-6.119c-.6.139-1.068.241-1.281.3a1.913,1.913,0,0,0-.223.074,1.7,1.7,0,0,0-.344.177A2.276,2.276,0,0,0,548,72.4a3.677,3.677,0,0,0-.937,1.049c0,.074-.01.158-.01.223C547.038,74.08,547.038,74.4,547.047,74.647Z" fill="#f26f51"/>
      <g id="Group_36797" data-name="Group 36797">
        <g id="Group_36796" data-name="Group 36796">
          <path id="Path_97729" data-name="Path 97729" d="M546.485,92.608c.087.179.709.465.729.487a2.054,2.054,0,0,0,.575.179,25.2,25.2,0,0,0,4.083-1.323c.417-.14,1.543-.579,1.569-1.377.01-.126.009-.306-.324-1.1-.092-.217-.034-.1-.178-.435-.132-.308-.32-.729-.572-1.235a3.542,3.542,0,0,1-1.7.417c-.613.779-1.2,1.557-1.789,2.344-.438.4-.878.807-1.318,1.215a3.378,3.378,0,0,1-.447.158c-.338.1-.482.1-.568.252A.569.569,0,0,0,546.485,92.608Z" fill="#f26f51"/>
        </g>
      </g>
      <g id="Group_36798" data-name="Group 36798">
        <path id="Path_97730" data-name="Path 97730" d="M553.245,36.766a2.285,2.285,0,0,1-2.277-2.293l.011-3.308a.939.939,0,0,1,.941-.936l2.694.01a.937.937,0,0,1,.935.941l-.011,3.308A2.286,2.286,0,0,1,553.245,36.766Z" fill="#f26f51"/>
        <path id="Path_97731" data-name="Path 97731" d="M555.538,34.488l-1.637-.009-2.922-3.314a2.208,2.208,0,0,1,.492-1.188,3.339,3.339,0,0,1,4.778.358,3.541,3.541,0,0,1-.01,2.87A4.559,4.559,0,0,1,555.538,34.488Z" fill="#f26f51"/>
      </g>
      <path id="Path_97732" data-name="Path 97732" d="M554.732,33.282c.039.578.388,1.024.779,1s.676-.516.637-1.093-.388-1.024-.779-1S554.692,32.705,554.732,33.282Z" fill="#f26f51"/>
      <path id="Path_97733" data-name="Path 97733" d="M546.722,47.386a1.916,1.916,0,0,0,1.727,1.142,1.782,1.782,0,0,0,.436-.037c.158-.065.325-.13.474-.186.186-.074.371-.149.548-.223.381-.158.743-.306,1.086-.436a.689.689,0,0,1,.084-.028c.083-.028.167-.065.25-.093.39-.158.771-.3,1.124-.437s.706-.269,1.04-.389c.464-.168.882-.307,1.272-.446a5.509,5.509,0,0,0,2.934-1.839,5.888,5.888,0,0,0,.752-1.662,8.092,8.092,0,0,0,.362-2.284c-1.587.214-3.157.418-4.735.641-.4.241-.808.483-1.189.733-.742.446-1.485.892-2.219,1.347-.483.288-.956.585-1.43.872-.111.056-.213.13-.325.186-.232.139-.464.288-.7.427-.065.047-.13.084-.186.121-.093.056-.176.112-.269.158-.167.1-.344.2-.511.316A1.891,1.891,0,0,0,546.722,47.386Z" fill="#f26f51"/>
      <path id="Path_97734" data-name="Path 97734" d="M540.092,38.8c.093.2.437.947.92,1.94.232.483.5,1.031.789,1.607.668,1.346,1.448,2.85,2.108,4.011a4.8,4.8,0,0,0,1.327,1.5,4.32,4.32,0,0,0,2.87.938,2.213,2.213,0,0,0,.352-.046,3.66,3.66,0,0,0,.864-.251c.009-.056.028-.121.037-.195a2.334,2.334,0,0,0,.009-.771,2.78,2.78,0,0,0-.594-1.309c-.167-.214-.334-.418-.5-.631s-.344-.427-.511-.641c-1.272-1.6-2.535-3.2-3.807-4.8-.659-.827-1.318-1.672-1.987-2.5a4.513,4.513,0,0,0-.845-1.031C540.687,36.234,538.867,38.565,540.092,38.8Z" fill="#f26f51"/>
      <path id="Path_97735" data-name="Path 97735" d="M571.766,45.284a4.919,4.919,0,0,1,1.226,1.636c.6,1.26,1.287,2.874,1.882,4.329.249.615.485,1.206.692,1.723.426,1.067.729,1.869.81,2.09,1.187.283-.707,2.691-1.121,2.265a4.875,4.875,0,0,1-.778-1.112c-.61-.9-1.219-1.814-1.829-2.717q-2.211-3.3-4.429-6.591a2.863,2.863,0,0,1-.433-2.423A3.447,3.447,0,0,1,569,44.2,4.019,4.019,0,0,1,571.766,45.284Z" fill="#f26f51"/>
      <g id="Group_36801" data-name="Group 36801">
        <g id="Group_36800" data-name="Group 36800">
          <g id="Group_36799" data-name="Group 36799">
            <path id="Path_97736" data-name="Path 97736" d="M554.4,90.818c0,.086.008.181,0,.269a2.338,2.338,0,0,1-.329.982l-6.829,1.747a1.373,1.373,0,0,1-1.457-.676.586.586,0,0,1-.058-.115,1.29,1.29,0,0,1,.125-1.039c.185-.137.369-.274.561-.412.115-.09.224-.17.341-.252.879-.659,1.776-1.314,2.664-1.967-.291-.341-.6-.67-.892-.994a2.975,2.975,0,0,1,.774-.277,1.543,1.543,0,0,1,1.091,0,1.264,1.264,0,0,1,.443,1.262,3.019,3.019,0,0,1,1.412-.341,2.188,2.188,0,0,1,1.655.6,1.872,1.872,0,0,1,.414.815A2.686,2.686,0,0,1,554.4,90.818Z" fill="#00010e"/>
            <path id="Path_97737" data-name="Path 97737" d="M554.406,90.815c.005.092,0,.185,0,.271a2.2,2.2,0,0,1-.33.981c-2.271.587-4.551,1.168-6.823,1.748a1.389,1.389,0,0,1-1.461-.672c-.1-.173-.215-.4-.137-.489.126-.143.635.2,1.108.345.962.288,1.8-.266,2.712-.666a9.991,9.991,0,0,1,3.689-.805c.383-.365.772-.739,1.163-1.106A2.55,2.55,0,0,1,554.406,90.815Z" fill="#3e3f55"/>
          </g>
        </g>
      </g>
      <path id="Path_97738" data-name="Path 97738" d="M571.3,75.148c.715.6,1.244,1.031,1.318,1.068a1.226,1.226,0,0,0,.112.065c.028.009.065.028.1.037a1.709,1.709,0,0,0,.371.112,1.574,1.574,0,0,0,.3.046,4.058,4.058,0,0,0,1.4-.111l.168-.168c.287-.269.51-.52.668-.7a26.159,26.159,0,0,0,4.355-7.15c.167-.38.334-.761.5-1.114.047-.1.093-.2.14-.3a13.627,13.627,0,0,1,.64-1.281c.195-.362.4-.7.594-1.04q.223-.39.446-.78c.084-.158.177-.316.269-.464.065-.121.14-.26.214-.381-.483-.474-.956-.947-1.43-1.411-.121.13-.223.25-.325.362-.167.213-.334.4-.492.585-.306.353-.594.678-.873.984-.659.733-1.235,1.346-1.69,1.829-.185.177-.343.362-.51.529-.2.205-.353.362-.372.39-.418.427-2.516,2.684-3.1,3.352A15.668,15.668,0,0,0,571.3,75.148Z" fill="#f26f51"/>
      <g id="Group_36804" data-name="Group 36804">
        <g id="Group_36803" data-name="Group 36803">
          <g id="Group_36802" data-name="Group 36802">
            <path id="Path_97739" data-name="Path 97739" d="M581.476,59.368c.063-.06.131-.125.2-.18a2.341,2.341,0,0,1,.957-.4l5.794,4.014a1.373,1.373,0,0,1,.445,1.544.643.643,0,0,1-.049.118,1.29,1.29,0,0,1-.867.587c-.224-.05-.448-.1-.679-.153-.143-.029-.275-.059-.414-.093-1.074-.233-2.156-.481-3.231-.724-.067.444-.116.89-.167,1.325a2.947,2.947,0,0,1-.716-.4c-.352-.269-.652-.49-.714-.825a1.266,1.266,0,0,1,.664-1.161,3.032,3.032,0,0,1-1.183-.844,2.183,2.183,0,0,1-.631-1.643,1.869,1.869,0,0,1,.344-.847A2.568,2.568,0,0,1,581.476,59.368Z" fill="#00010e"/>
            <path id="Path_97740" data-name="Path 97740" d="M581.472,59.368a2.558,2.558,0,0,1,.206-.177,2.2,2.2,0,0,1,.957-.394c1.932,1.331,3.865,2.673,5.792,4.009a1.388,1.388,0,0,1,.449,1.544c-.063.191-.161.424-.279.423-.19,0-.262-.612-.465-1.062-.414-.916-1.384-1.188-2.281-1.612a10.006,10.006,0,0,1-3.026-2.259c-.527-.051-1.064-.1-1.6-.154A2.705,2.705,0,0,1,581.472,59.368Z" fill="#3e3f55"/>
          </g>
        </g>
      </g>
      <g id="Group_36805" data-name="Group 36805">
        <path id="Path_97741" data-name="Path 97741" d="M541.956,37.735l1.1,2.9-1.672.7c-1.785-2.423-2.372-3.2-2.511-3.358l-.264-.309c-.1-.12-.15-.2-.232-.293-.1-.115-.175-.193-.2-.217a9.379,9.379,0,0,1-1.005-1.4.74.74,0,0,1-.173-.573c.007-.024.05-.154.126-.163s.127.081.149.114c.192.284.408.553.6.84a1.417,1.417,0,0,0,.8.643c.459.042,1-.679,1.335-1.758.057.075.139.188.233.329.293.445.339.638.517.681a.519.519,0,0,0,.4-.135c.262-.2.18-.421.421-.76.226-.318.6-.551.729-.467.047.03.053.1.057.14.017.193-.142.328-.224.449a1.122,1.122,0,0,0-.04.83A4.761,4.761,0,0,1,541.956,37.735Z" fill="#f26f51"/>
        <path id="Path_97742" data-name="Path 97742" d="M538.866,36.08l-.584.523q-.466-.972-.932-1.943c-.051-.108-.152-.336-.066-.424a.143.143,0,0,1,.093-.034c.238-.016.452.337.482.386Q538.361,35.335,538.866,36.08Z" fill="#f26f51"/>
        <path id="Path_97743" data-name="Path 97743" d="M539.418,35.414c-.177.186-.355.372-.532.559a10.026,10.026,0,0,1-.725-1.139c-.5-.911-.471-1.2-.385-1.379.023-.046.107-.214.228-.218.238-.008.349.627.778,1.346A4.6,4.6,0,0,0,539.418,35.414Z" fill="#f26f51"/>
        <path id="Path_97744" data-name="Path 97744" d="M540.005,34.862l-.606.505-.417-1.052-.2-.588c-.179-.386-.219-.7-.123-.76s.341.12.584.423l.295.574Q539.771,34.415,540.005,34.862Z" fill="#f26f51"/>
        <path id="Path_97745" data-name="Path 97745" d="M539.07,36.652l-.616.338-.247-.451.571-.574,1.144-1.135.083.032.079.381Z" fill="#f26f51"/>
      </g>
      <path id="Path_97746" data-name="Path 97746" d="M550.009,86.9c.789.084,1.578.149,2.368.223-.01-.343-.019-.668-.028-.994,0-.083-.009-.176-.009-.259C551.56,86.216,550.789,86.56,550.009,86.9Z" fill="#00010e"/>
      <path id="Path_97747" data-name="Path 97747" d="M551.578,73.317,562.295,65.6a5.278,5.278,0,0,0,4.255-3.52c.636-1.955.1-4.468-1.5-5.385-1.883-1.078-5.288.014-6.893,3.373L547.226,70.241a4.1,4.1,0,0,0-.581,1.045,4.407,4.407,0,0,0-.232,2.031c.432,4.308,1.208,8.428,1.208,8.428a47.647,47.647,0,0,1,.669,5.016,6.538,6.538,0,0,0,1.354.155,6.806,6.806,0,0,0,3.269-.832,33.639,33.639,0,0,0-1.335-12.767Z" fill="#3e3f55"/>
      <path id="Path_97748" data-name="Path 97748" d="M579.777,63.514c.316,1.133.641,2.284.957,3.426a13.627,13.627,0,0,1,.64-1.281C580.836,64.944,580.316,64.229,579.777,63.514Z" fill="#00010e"/>
      <path id="Path_97749" data-name="Path 97749" d="M571.928,76.083a2.881,2.881,0,0,0,1.818.774c1.644.027,2.684-1.753,5.533-5.223,1.185-1.444,2.205-2.6,2.9-3.366q-1.238-2.477-2.476-4.952l-7,7.583-7.254-10.553-4.585,5.6q1.3,1.42,2.747,2.863A86.047,86.047,0,0,0,571.928,76.083Z" fill="#3e3f55"/>
      <path id="Path_97750" data-name="Path 97750" d="M557.5,60.985l7.661-3.937-1.683-12.225q-.243-2.673-.487-5.347L557.9,37.55l-3.82,2.146a7.247,7.247,0,0,0-1.743,2.475,8.749,8.749,0,0,0-.066,5.728A66.927,66.927,0,0,0,557.5,60.985Z" fill="#3e3f55"/>
      <path id="Path_97751" data-name="Path 97751" d="M562.914,45.171l3.288,1.818q1.045-2.224,2.089-4.449a20.843,20.843,0,0,0-7.77-4Q561.716,41.856,562.914,45.171Z" fill="#3e3f55"/>
      <path id="Path_97752" data-name="Path 97752" d="M557.057,61.073l8.352-4.257-.309-1.16-8.55,4.159Z" fill="#00010e"/>
      <path id="Path_97753" data-name="Path 97753" d="M558.665,65.337h2.553c1.867-1.719,2.129-2.766,1.944-3.424-.1-.367-.375-.727-.2-1.074.259-.52,1.185-.332,1.538-.928a1.126,1.126,0,0,0,.087-.8c.2-.317.4-.694.283-.827-.21-.236-1.248.468-2.43,1.02a13.647,13.647,0,0,1-3.772,1.123Z" fill="#00010e"/>
      <rect id="Rectangle_12696" data-name="Rectangle 12696" width="0.638" height="2.612" transform="translate(560.689 61.073) rotate(180)" fill="#00010e"/>
      <g id="Group_36806" data-name="Group 36806">
        <path id="Path_97754" data-name="Path 97754" d="M563.427,45.58a.125.125,0,0,1-.125-.122,10.688,10.688,0,0,0-.316-2.346,10.8,10.8,0,0,0-2.027-4.092.125.125,0,1,1,.2-.155,11.043,11.043,0,0,1,2.074,4.187,10.921,10.921,0,0,1,.324,2.4.124.124,0,0,1-.122.128Z" fill="#fff"/>
      </g>
      <path id="Path_97755" data-name="Path 97755" d="M548.217,44.674c.019.307.037.613.056.92.055.975.111,1.959.176,2.934a1.849,1.849,0,0,0,.009.223,3.66,3.66,0,0,0,.864-.251c.009-.056.028-.121.037-.195.186-.074.371-.149.548-.223-.214-.631-.418-1.272-.632-1.9Z" fill="#00010e"/>
      <path id="Path_97756" data-name="Path 97756" d="M549.431,49.059l5.861-2.2q-.42-3.446-.841-6.891-3.264,1.821-6.529,3.641Z" fill="#3e3f55"/>
      <g id="Group_36807" data-name="Group 36807">
        <path id="Path_97757" data-name="Path 97757" d="M552.274,48.023a.125.125,0,0,1-.12-.09.126.126,0,0,1,.085-.155l3.714-1.073a.125.125,0,0,1,.07.24l-3.713,1.074A.147.147,0,0,1,552.274,48.023Z" fill="#fff"/>
      </g>
      <g id="Group_36808" data-name="Group 36808">
        <path id="Path_97758" data-name="Path 97758" d="M561.356,66.42a.123.123,0,0,1-.1-.049.124.124,0,0,1,.022-.175l4.529-3.482a.122.122,0,0,1,.174.023.123.123,0,0,1-.022.175l-4.528,3.482A.123.123,0,0,1,561.356,66.42Z" fill="#fff"/>
      </g>
      <path id="Path_97759" data-name="Path 97759" d="M554.016,39.851l4.178-1.992-.348-1.083-4.121,1.741Z" fill="#3e3f55"/>
      <path id="Path_97760" data-name="Path 97760" d="M551.2,28.24c0,.241.009.473,0,.715.009.25.009.492.009.742v.5c1.718.919,3.445,1.838,5.162,2.758a3.653,3.653,0,0,0,.567-.938,3.545,3.545,0,0,0,.213-.715C555.162,30.282,553.184,29.261,551.2,28.24Z" fill="#00010e"/>
      <path id="Path_97761" data-name="Path 97761" d="M550.439,27.53c-.193.373,1.336,1.548,3.415,2.625s3.921,1.646,4.115,1.273-1.336-1.548-3.415-2.625S550.632,27.157,550.439,27.53Z" fill="#3e3f55"/>
      <path id="Path_97762" data-name="Path 97762" d="M551.2,28.955c.009.25.009.492.009.742a.161.161,0,0,0,.074.019c.167,0,.3-.167.3-.39a.352.352,0,0,0-.3-.39A.244.244,0,0,0,551.2,28.955Z" fill="#ffd400"/>
      <rect id="Rectangle_12697" data-name="Rectangle 12697" width="6.343" height="0.658" transform="translate(556.281 33.219) rotate(-152.631)" fill="#3e3f55"/>
      <path id="Path_97763" data-name="Path 97763" d="M550.824,30.271c-.428,0-.921.08-.943.232-.049.333,2.229.387,3.157,1.906a4.354,4.354,0,0,0,.7,1.33c.085.09.379.4.551.319.123-.056.084-.265.247-.74.087-.253.132-.382.232-.45a.742.742,0,0,1,.914.232c.263.406-.2,1-.044,1.1s.785-.3.8-.725c.013-.4-.5-.643-1.516-1.234C552.6,30.888,552.068,30.264,550.824,30.271Z" fill="#00010e"/>
    </g>
    <g id="Group_36824" data-name="Group 36824">
      <g id="Group_36810" data-name="Group 36810">
        <path id="Path_97764" data-name="Path 97764" d="M534.243,58.9l-1.7,3.248c-2.14-.113-3.1-.783-3.58-1.394a4.334,4.334,0,0,0-1.495-1.554,3.217,3.217,0,0,0-1.208-.341l1.7-3.248a5.4,5.4,0,0,1,1.659,1.057,7.142,7.142,0,0,1,.868,1.032C530.949,58.283,531.93,58.9,534.243,58.9Z" fill="#42bccc"/>
        <path id="Path_97765" data-name="Path 97765" d="M530.34,59.922a2.019,2.019,0,0,0,.171-.266c.311-.594.254-1.238-.128-1.438-.338-.177-.817.055-1.138.524a4.952,4.952,0,0,0-1.159-1.2,5.559,5.559,0,0,0-.867-.514l-.1.185a5.126,5.126,0,0,1,.842.492,4.679,4.679,0,0,1,1.163,1.228c-.309.6-.252,1.239.129,1.438a.841.841,0,0,0,.945-.29c.05.031.1.06.155.086a5.6,5.6,0,0,0,3,.429l.11-.21A5.328,5.328,0,0,1,530.34,59.922Z" fill="#fff" opacity="0.56"/>
        <path id="Path_97766" data-name="Path 97766" d="M528.423,56.477a.283.283,0,1,1-.107-.4A.3.3,0,0,1,528.423,56.477Z" fill="#fff" opacity="0.56"/>
        <path id="Path_97767" data-name="Path 97767" d="M527.292,58.5a.282.282,0,1,1-.106-.4A.294.294,0,0,1,527.292,58.5Z" fill="#fff" opacity="0.56"/>
        <path id="Path_97768" data-name="Path 97768" d="M533.584,59.547a.282.282,0,1,1-.106-.4A.294.294,0,0,1,533.584,59.547Z" fill="#fff" opacity="0.56"/>
        <path id="Path_97769" data-name="Path 97769" d="M532.667,61.658a.282.282,0,1,1-.107-.4A.3.3,0,0,1,532.667,61.658Z" fill="#fff" opacity="0.56"/>
      </g>
      <g id="Group_36811" data-name="Group 36811">
        <path id="Path_97770" data-name="Path 97770" d="M521.156,21.618l1.616,3.291c-1.355,1.659-2.463,2.039-3.239,2.065a4.335,4.335,0,0,0-2.138.289,3.194,3.194,0,0,0-.988.772l-1.616-3.291a5.379,5.379,0,0,1,1.833-.713,6.935,6.935,0,0,1,1.346-.091C518.713,23.912,519.788,23.484,521.156,21.618Z" fill="#42bccc"/>
        <path id="Path_97771" data-name="Path 97771" d="M519.676,25.372a2.109,2.109,0,0,0-.114-.3c-.3-.6-.849-.936-1.236-.747-.342.169-.438.692-.25,1.228a5,5,0,0,0-1.653.226,5.448,5.448,0,0,0-.927.4l.092.187a5.1,5.1,0,0,1,.894-.389,4.684,4.684,0,0,1,1.678-.213c.3.6.851.935,1.237.745a.841.841,0,0,0,.324-.934c.054-.021.109-.048.161-.074A5.621,5.621,0,0,0,522,23.337l-.1-.213A5.336,5.336,0,0,1,519.676,25.372Z" fill="#fff" opacity="0.56"/>
        <path id="Path_97772" data-name="Path 97772" d="M515.763,24.884a.282.282,0,1,1-.388-.151A.3.3,0,0,1,515.763,24.884Z" fill="#fff" opacity="0.56"/>
        <path id="Path_97773" data-name="Path 97773" d="M516.726,26.99a.282.282,0,1,1-.388-.152A.294.294,0,0,1,516.726,26.99Z" fill="#fff" opacity="0.56"/>
        <path id="Path_97774" data-name="Path 97774" d="M521.29,22.533a.282.282,0,1,1-.388-.152A.294.294,0,0,1,521.29,22.533Z" fill="#fff" opacity="0.56"/>
        <path id="Path_97775" data-name="Path 97775" d="M522.451,24.52a.282.282,0,1,1-.388-.152A.294.294,0,0,1,522.451,24.52Z" fill="#fff" opacity="0.56"/>
      </g>
      <g id="Group_36812" data-name="Group 36812">
        <path id="Path_97776" data-name="Path 97776" d="M508.6,25.267l1.206,2.456a3.372,3.372,0,0,1-2.417,1.541,3.228,3.228,0,0,0-1.6.215,2.376,2.376,0,0,0-.737.576L503.846,27.6a4.024,4.024,0,0,1,1.367-.532,5.233,5.233,0,0,1,1-.068C506.772,26.979,507.574,26.66,508.6,25.267Z" fill="#42bccc"/>
        <path id="Path_97777" data-name="Path 97777" d="M507.491,28.068a1.581,1.581,0,0,0-.085-.22c-.221-.449-.634-.7-.922-.557-.256.126-.327.516-.187.916a3.7,3.7,0,0,0-1.233.169,4.093,4.093,0,0,0-.692.3l.069.139a3.8,3.8,0,0,1,.667-.29,3.5,3.5,0,0,1,1.251-.159c.223.449.635.7.924.556a.627.627,0,0,0,.241-.7c.041-.017.082-.037.12-.056a4.184,4.184,0,0,0,1.58-1.616l-.078-.159A3.978,3.978,0,0,1,507.491,28.068Z" fill="#fff" opacity="0.56"/>
        <path id="Path_97778" data-name="Path 97778" d="M504.571,27.7a.211.211,0,1,1-.289-.112A.22.22,0,0,1,504.571,27.7Z" fill="#fff" opacity="0.56"/>
        <path id="Path_97779" data-name="Path 97779" d="M505.29,29.275a.211.211,0,1,1-.29-.113A.221.221,0,0,1,505.29,29.275Z" fill="#fff" opacity="0.56"/>
        <path id="Path_97780" data-name="Path 97780" d="M508.7,25.95a.211.211,0,1,1-.29-.113A.221.221,0,0,1,508.7,25.95Z" fill="#fff" opacity="0.56"/>
        <path id="Path_97781" data-name="Path 97781" d="M509.561,27.432a.211.211,0,1,1-.289-.113A.22.22,0,0,1,509.561,27.432Z" fill="#fff" opacity="0.56"/>
      </g>
      <g id="Group_36821" data-name="Group 36821">
        <path id="Path_97782" data-name="Path 97782" d="M498.819,30.7c-.156,1.075-.318,2.153-.47,3.234-.054-.047-.1-.1-.157-.143-.6-.535-1.212-1.066-1.811-1.594C497.2,31.7,498.009,31.2,498.819,30.7Z" fill="#28271e"/>
        <g id="Group_36813" data-name="Group 36813">
          <path id="Path_97783" data-name="Path 97783" d="M496.465,33.305a2.285,2.285,0,0,1-2.3-2.266l-.027-3.308a.938.938,0,0,1,.931-.946l2.694-.022a.938.938,0,0,1,.946.931L498.732,31A2.285,2.285,0,0,1,496.465,33.305Z" fill="#f26f51"/>
          <path id="Path_97784" data-name="Path 97784" d="M498.732,31l-1.638.009-2.96-3.28a2.221,2.221,0,0,1,.478-1.193,3.34,3.34,0,0,1,4.783.3,3.547,3.547,0,0,1,.023,2.871A4.623,4.623,0,0,1,498.732,31Z" fill="#f26f51"/>
        </g>
        <path id="Path_97785" data-name="Path 97785" d="M489.222,27.662h6.093a.378.378,0,0,0,0-.755h-6.093a.378.378,0,0,0,0,.755Z" fill="#00010e"/>
        <path id="Path_97786" data-name="Path 97786" d="M494.081,37.727c.178.114.44-.217,1.088-.232a2.689,2.689,0,0,1,1.1.275c.53.149,1.553-.548,3.728-4.367-.421-.086-3.178-.612-4.831,1.074C494.049,35.62,493.717,37.493,494.081,37.727Z" fill="#ffd400"/>
        <path id="Path_97787" data-name="Path 97787" d="M519.48,74.093a4.963,4.963,0,0,1-2.112-.945c-.075-.061-.163-.13-.238-.2q-.381-.616-.78-1.3c-.065-.11-.123-.212-.188-.322-.084-.147-.168-.293-.252-.447-.188-.329-.375-.68-.561-1.038-.115-.219-.232-.431-.34-.657-.046-.066-.077-.139-.123-.205-.494-.956-.991-1.991-1.47-3.088a63.166,63.166,0,0,1-3.3-9.3c.05-1.047.153-2.155.324-3.33.085-.641.188-1.245.3-1.828.253.049,4.4.836,4.841,2.03.01.065.195.586.376,1.291.1.381.162.675.2.833l2.359,10.585.283,1.307.114.517c.006.021,0,.049.01.064.023.1.047.194.07.288.05.116.094.232.144.341a1.393,1.393,0,0,1,.063.145c.057.138.113.276.169.421.081.2.162.406.25.609.245.588.483,1.169.727,1.757a1.357,1.357,0,0,0-1.344.848A1.373,1.373,0,0,0,519.48,74.093Z" fill="#f26f51"/>
        <path id="Path_97788" data-name="Path 97788" d="M518,74.592c.067.03.135.071.2.1.36.187.664.317.886.415a26.259,26.259,0,0,0,8.168,1.805c.423.039.831.075,1.218.114.659.067,1.252.139,1.761.23.392.069.776.15,1.164.226.3.054.59.113.887.168.17.033.35.065.526.1.133.025.291.05.425.085.291-.614.588-1.213.87-1.815-.155-.067-.309-.124-.448-.189-.252-.092-.483-.188-.709-.279-.431-.177-.833-.342-1.21-.506-.907-.386-1.675-.733-2.281-1.009-.229-.112-.451-.209-.662-.308-.258-.121-.461-.214-.491-.228-.576-.27-3.45-1.556-4.175-1.845a13.708,13.708,0,0,0-6.47-.559,2.219,2.219,0,0,0-.783,1.913A2.189,2.189,0,0,0,518,74.592Z" fill="#f26f51"/>
        <path id="Path_97789" data-name="Path 97789" d="M514.165,55.373c-.057.026-.538.306-1.192.619-.359.176-.632.292-.78.356L502.258,60.7l-1.23.528-.483.211c-.024.012-.05.013-.063.022-.1.045-.18.087-.271.126-.127.085-.223.147-.3.209-.038.037-.1.062-.131.092-.123.079-.25.164-.383.245-.165.1-.323.214-.491.326-.018.015-.038.02-.055.035-.532.351-1.054.7-1.586,1.052a1.354,1.354,0,0,0-1.088-1.158,1.38,1.38,0,0,0-1.5.792,4.912,4.912,0,0,1,.518-2.258c.049-.082.092-.183.151-.267.351-.332.728-.666,1.123-1.015.1-.088.182-.163.277-.25.132-.108.258-.219.393-.333.087-.075.178-.156.276-.234.2-.168.417-.344.635-.51.188-.159.376-.318.577-.47a2.117,2.117,0,0,0,.178-.156c.846-.664,1.765-1.352,2.749-2.036a62.657,62.657,0,0,1,8.495-5.029c1.039-.151,2.141-.264,3.33-.325.643-.04,1.26-.053,1.848-.058C515.232,50.493,515.252,54.717,514.165,55.373Z" fill="#f26f51"/>
        <path id="Path_97790" data-name="Path 97790" d="M493.657,64.126c.151.377.3.673.4.892a26.256,26.256,0,0,0,5.027,6.686c.3.3.582.6.851.878.457.479.861.92,1.188,1.321.252.308.491.619.737.928.19.234.373.47.564.705.107.136.223.278.332.421.085.1.189.228.268.341.62-.277,1.236-.539,1.841-.812-.074-.152-.153-.3-.217-.435-.131-.234-.245-.458-.357-.674-.212-.414-.41-.8-.589-1.171-.438-.884-.795-1.647-1.075-2.25-.1-.234-.207-.453-.3-.665-.117-.26-.21-.463-.223-.493-.242-.532-1.586-3.379-1.97-4.117a19.584,19.584,0,0,0-4.505-5.294,3.149,3.149,0,0,0-1.856,1.684A3.073,3.073,0,0,0,493.657,64.126Z" fill="#f26f51"/>
        <path id="Path_97791" data-name="Path 97791" d="M503.917,32.643a9.725,9.725,0,0,0-2.342,1.274A10.412,10.412,0,0,0,500,35.39c-.347-.3-.677-.6-1.023-.906-.2-.18-.413-.359-.625-.548-.054-.047-.1-.1-.157-.143-.6-.535-1.212-1.066-1.811-1.594-.1-.083-.186-.169-.282-.252-.016-.016-.039-.03-.055-.047.61-.783,1.183-1.541,1.762-2.3.1-.119.19-.244.286-.363.164.123.331.253.515.367,1.058.728,1.687,1.233,1.78,1.294A15.418,15.418,0,0,0,503.917,32.643Z" fill="#f26f51"/>
        <path id="Path_97792" data-name="Path 97792" d="M497.366,29.242c.285.5.792.756,1.133.563s.388-.757.1-1.261-.792-.756-1.133-.564S497.081,28.738,497.366,29.242Z" fill="#f26f51"/>
        <g id="Group_36816" data-name="Group 36816">
          <g id="Group_36815" data-name="Group 36815">
            <g id="Group_36814" data-name="Group 36814">
              <path id="Path_97793" data-name="Path 97793" d="M534.979,75.527c.077.039.162.08.237.125a2.424,2.424,0,0,1,.7.719c-.559,2-1.119,4-1.677,6a1.254,1.254,0,0,1-1.273.778.728.728,0,0,1-.127-.011,1.383,1.383,0,0,1-.847-.592c-.033-.205-.066-.41-.1-.621-.024-.13-.043-.251-.06-.379-.162-.98-.313-1.97-.467-2.955-.392.051.216-1.378.658-1.073a2.366,2.366,0,0,1,.364-1.231,1.914,1.914,0,0,1,1.3-.964,2.074,2.074,0,0,1,.905.078A2.9,2.9,0,0,1,534.979,75.527Z" fill="#00010e"/>
            </g>
          </g>
        </g>
        <g id="Group_36819" data-name="Group 36819">
          <g id="Group_36818" data-name="Group 36818">
            <g id="Group_36817" data-name="Group 36817">
              <path id="Path_97794" data-name="Path 97794" d="M506.212,75.656c.055.066.117.138.168.209a2.41,2.41,0,0,1,.359.938l-3.916,4.843a1.254,1.254,0,0,1-1.477.21.692.692,0,0,1-.112-.061,1.381,1.381,0,0,1-.543-.879c.05-.2.1-.4.157-.609.029-.129.06-.247.1-.371.239-.964.493-1.934.742-2.9-.38-.109.745-1.18,1.029-.725a2.376,2.376,0,0,1,.822-.986,1.916,1.916,0,0,1,1.575-.37,2.08,2.08,0,0,1,.8.429A3.018,3.018,0,0,1,506.212,75.656Z" fill="#00010e"/>
            </g>
          </g>
        </g>
        <path id="Path_97795" data-name="Path 97795" d="M506.21,52.45l9.015-2.215a24.314,24.314,0,0,0-2.528-8.514,25.023,25.023,0,0,0-10.1-10.329,3.689,3.689,0,0,0-4.179,2.089A28.192,28.192,0,0,1,506.21,52.45Z" fill="#f26f51"/>
        <path id="Path_97796" data-name="Path 97796" d="M515.379,72.15l5.648-2.322-5.493-18.183-5.716,4.8c.344,1.593.767,3.264,1.287,5A65.564,65.564,0,0,0,515.379,72.15Z" fill="#00010e"/>
        <path id="Path_97797" data-name="Path 97797" d="M499.207,63.058l11.316-5.524q-2.022-3.127-4.042-6.257L496,59.266Z" fill="#00010e"/>
        <path id="Path_97798" data-name="Path 97798" d="M507.951,54.972a2.645,2.645,0,0,0,1.489,1.934,2.509,2.509,0,0,0,2.5-.309l3.632-4.837q-.232-1.245-.466-2.49l-9.04.755q-.4,1.087-.791,2.174Q506.611,53.585,507.951,54.972Z" fill="#00010e"/>
        <path id="Path_97799" data-name="Path 97799" d="M504.082,51.258a9.806,9.806,0,0,0,7.738,1.857,9.144,9.144,0,0,0,4.41-2.4c-.787-2.937-5.11-18.326-13.63-19.324a7.587,7.587,0,0,0-1.481-.027l-1.515,4.07Q501.843,43.346,504.082,51.258Z" fill="#3e3f55"/>
        <path id="Path_97800" data-name="Path 97800" d="M500.213,34.97l1.509-2.95q-.232-2.456-.466-4.912a5.4,5.4,0,0,0-4.235-1.887A5.278,5.278,0,0,0,493.4,27a28.525,28.525,0,0,0,6.813,7.966Z" fill="#3e3f55"/>
        <path id="Path_97801" data-name="Path 97801" d="M497.444,44.891a4.612,4.612,0,0,1-.461-1.869c-.053-1.31-.059-2.964-.039-4.443.01-.625.023-1.225.033-1.749.024-1.081.056-1.887.067-2.109-.925-.681,1.6-2.072,1.8-1.55a4.592,4.592,0,0,1,.266,1.249c.2,1.007.389,2.02.586,3.028q.7,3.669,1.415,7.341c.052.27-.4,1.111-.064,1.412a.662.662,0,0,0,.555.086,2.067,2.067,0,0,1-1.495.729,2.215,2.215,0,0,1-.666-.168A3.778,3.778,0,0,1,497.444,44.891Z" fill="#f26f51"/>
        <path id="Path_97802" data-name="Path 97802" d="M502.41,45.833a1.938,1.938,0,0,1-2.342.666,1.9,1.9,0,0,1-1.05-1.92c.078-.294.16-.578.244-.869.092-.337.187-.679.281-1.006.038-.12.065-.236.1-.355.152-.534.3-1.071.46-1.608.228-.837.468-1.668.7-2.5.116-.446.251-.9.376-1.348,1-1.234,2.013-2.455,3.03-3.689a7.816,7.816,0,0,1,1.289,1.919,5.807,5.807,0,0,1,.581,1.73,5.465,5.465,0,0,1-.9,3.34c-.194.365-.4.757-.622,1.19-.161.318-.329.648-.5,1s-.349.7-.528,1.084c-.039.078-.079.155-.112.236a.447.447,0,0,0-.049.081C503.071,44.41,502.763,45.092,502.41,45.833Z" fill="#3e3f55"/>
        <path id="Path_97803" data-name="Path 97803" d="M501.219,31.662c-.79.442-3.057,1.846-2.87,2.274.148.338,1.7-.239,2.7-.3,5.6-.335,7.423,14.579,15.182,17.079,4.952,1.6,11.91-2,12.813-6.156C530.33,38.627,519,32.917,518.3,32.575,512.951,29.941,505.941,29.021,501.219,31.662Z" fill="#ffd400"/>
        <path id="Path_97804" data-name="Path 97804" d="M496.97,35.523l2.317-.209.21-2.7a2.831,2.831,0,0,0-3.454,1.212Z" fill="#f26f51"/>
        <g id="Group_36820" data-name="Group 36820">
          <path id="Path_97805" data-name="Path 97805" d="M499.287,35.439a.128.128,0,0,1-.125-.135l.118-1.512a.123.123,0,0,1,.135-.115.125.125,0,0,1,.115.134l-.118,1.513A.126.126,0,0,1,499.287,35.439Z" fill="#00010e"/>
        </g>
      </g>
      <g id="Group_36822" data-name="Group 36822">
        <path id="Path_97806" data-name="Path 97806" d="M528.47,48.3l-1.277,2.438a3.385,3.385,0,0,1-2.686-1.046,3.252,3.252,0,0,0-1.123-1.167,2.415,2.415,0,0,0-.906-.256l1.276-2.437a4.037,4.037,0,0,1,1.245.793,5.248,5.248,0,0,1,.652.775C526,47.836,526.733,48.3,528.47,48.3Z" fill="#42bccc"/>
        <path id="Path_97807" data-name="Path 97807" d="M525.54,49.066a1.54,1.54,0,0,0,.128-.2c.234-.447.191-.93-.1-1.08-.254-.133-.614.042-.855.393a3.724,3.724,0,0,0-.87-.9,4.088,4.088,0,0,0-.65-.385l-.073.138a3.914,3.914,0,0,1,.632.369,3.52,3.52,0,0,1,.873.922c-.232.447-.189.93.1,1.08a.632.632,0,0,0,.709-.218c.037.023.078.044.116.064a4.216,4.216,0,0,0,2.251.323l.083-.158A4,4,0,0,1,525.54,49.066Z" fill="#fff" opacity="0.56"/>
        <path id="Path_97808" data-name="Path 97808" d="M524.1,46.481a.212.212,0,1,1-.08-.3A.222.222,0,0,1,524.1,46.481Z" fill="#fff" opacity="0.56"/>
        <path id="Path_97809" data-name="Path 97809" d="M523.253,48a.212.212,0,1,1-.08-.3A.221.221,0,0,1,523.253,48Z" fill="#fff" opacity="0.56"/>
        <path id="Path_97810" data-name="Path 97810" d="M527.975,48.785a.212.212,0,1,1-.08-.3A.221.221,0,0,1,527.975,48.785Z" fill="#fff" opacity="0.56"/>
        <path id="Path_97811" data-name="Path 97811" d="M527.287,50.369a.212.212,0,1,1-.081-.3A.221.221,0,0,1,527.287,50.369Z" fill="#fff" opacity="0.56"/>
      </g>
      <g id="Group_36823" data-name="Group 36823">
        <path id="Path_97812" data-name="Path 97812" d="M520.762,34.537l-1,3.528c-2.118.327-3.2-.131-3.79-.631a4.324,4.324,0,0,0-1.782-1.215,3.206,3.206,0,0,0-1.251-.087l1-3.527a5.372,5.372,0,0,1,1.84.695,6.973,6.973,0,0,1,1.061.832C517.411,34.609,518.5,35.01,520.762,34.537Z" fill="#42bccc"/>
        <path id="Path_97813" data-name="Path 97813" d="M517.151,36.338a2.027,2.027,0,0,0,.113-.3c.182-.646-.005-1.264-.42-1.382-.367-.1-.788.222-1.007.746a4.966,4.966,0,0,0-1.38-.938,5.615,5.615,0,0,0-.954-.325l-.057.2a5.123,5.123,0,0,1,.925.308,4.722,4.722,0,0,1,1.39.964c-.181.647.007,1.265.421,1.382a.84.84,0,0,0,.865-.478c.055.02.114.037.169.053a5.616,5.616,0,0,0,3.024-.194l.065-.229A5.336,5.336,0,0,1,517.151,36.338Z" fill="#fff" opacity="0.56"/>
        <path id="Path_97814" data-name="Path 97814" d="M514.568,33.359a.282.282,0,1,1-.187-.372A.295.295,0,0,1,514.568,33.359Z" fill="#fff" opacity="0.56"/>
        <path id="Path_97815" data-name="Path 97815" d="M513.876,35.568a.282.282,0,1,1-.187-.372A.3.3,0,0,1,513.876,35.568Z" fill="#fff" opacity="0.56"/>
        <ellipse id="Ellipse_3798" data-name="Ellipse 3798" cx="0.307" cy="0.281" rx="0.307" ry="0.281" transform="translate(519.625 35.449) rotate(-74.169)" fill="#fff" opacity="0.56"/>
        <path id="Path_97816" data-name="Path 97816" d="M519.784,37.561a.282.282,0,1,1-.187-.372A.294.294,0,0,1,519.784,37.561Z" fill="#fff" opacity="0.56"/>
      </g>
    </g>
  </g>
</svg>
