<svg xmlns="http://www.w3.org/2000/svg" width="24.284" height="20" viewBox="0 0 24.284 20">
  <path id="_58731868816310155744007" data-name="58731868816310155744007" d="M27.226,15.723l-2.835-4.782a2.253,2.253,0,0,0,1.5-2.119.419.419,0,0,0-.837,0,1.419,1.419,0,1,1-2.839,0V8.534a.417.417,0,0,0-.528-.406A24.824,24.824,0,0,1,15.527,9V8.534a.419.419,0,0,0-.837,0V9a24.8,24.8,0,0,1-6.159-.875A.419.419,0,0,0,8,8.547v.289a1.419,1.419,0,1,1-2.835,0,.419.419,0,0,0-.837,0,2.248,2.248,0,0,0,1.558,2.135L3.059,15.723A.419.419,0,0,0,3,15.937a3.546,3.546,0,1,0,7.093,0,.419.419,0,0,0-.059-.214L7.22,11a2.261,2.261,0,0,0,1.6-1.909,25.771,25.771,0,0,0,5.862.775V23.042c-3.35.151-6.28,1.959-7.214,4.505a.419.419,0,0,0,.394.565h14.55a.419.419,0,0,0,.394-.565c-.967-2.562-3.9-4.38-7.281-4.509V9.845a25.705,25.705,0,0,0,5.862-.775A2.261,2.261,0,0,0,23.064,11L20.25,15.723a.419.419,0,0,0-.059.214,3.546,3.546,0,1,0,7.093,0,.419.419,0,0,0-.059-.214ZM8.937,15.518H4.156l2.391-4.036Zm14.8-4.036,2.391,4.036H21.347Z" transform="translate(-3 -8.113)" fill="#262e3e"/>
</svg>
