<svg id="Iconly_Bulk_Delete" data-name="Iconly/Bulk/Delete" xmlns="http://www.w3.org/2000/svg" width="20.017" height="22.117" viewBox="0 0 20.017 22.117">
  <g id="Delete">
    <path id="Fill_1" data-name="Fill 1" d="M17,.876c0,.075-.593,7.53-.931,10.667a3.237,3.237,0,0,1-3.332,3.126c-1.438.032-2.847.043-4.232.043-1.471,0-2.909-.011-4.305-.043a3.236,3.236,0,0,1-3.26-3.126C.594,8.394.012.951,0,.876A.875.875,0,0,1,.213.259.792.792,0,0,1,.795,0H16.219A.814.814,0,0,1,16.8.259a.824.824,0,0,1,.2.617" transform="translate(1.506 7.405)" fill="#fff"/>
    <path id="Fill_4" data-name="Fill 4" d="M20.017,4.4a.8.8,0,0,0-.793-.811H15.981A1.423,1.423,0,0,1,14.6,2.463l-.182-.806A2.205,2.205,0,0,0,12.3,0H7.713A2.208,2.208,0,0,0,5.586,1.71l-.17.754a1.425,1.425,0,0,1-1.38,1.124H.794A.8.8,0,0,0,0,4.4v.42a.808.808,0,0,0,.794.811h18.43a.808.808,0,0,0,.793-.811Z" fill="#fff"/>
  </g>
</svg>
