<svg xmlns="http://www.w3.org/2000/svg" width="16.451" height="14.002" viewBox="0 0 16.451 14.002">
  <g id="Group_36991" data-name="Group 36991" transform="translate(-337.999 -51.611)">
    <g id="back_1_" data-name="back (1)" transform="translate(447.705 65.614) rotate(180)">
      <g id="Group_2436" data-name="Group 2436" transform="translate(101.48 0)">
        <path id="Path_1186" data-name="Path 1186" d="M104.244,7l5.238-5.238a.768.768,0,0,0,0-1.083l-.459-.459a.767.767,0,0,0-1.083,0L101.7,6.461a.773.773,0,0,0,0,1.087l6.231,6.231a.767.767,0,0,0,1.083,0l.459-.459a.767.767,0,0,0,0-1.083Z" transform="translate(-101.48 0)" fill="#fff"/>
      </g>
    </g>
    <g id="back_1_2" data-name="back (1)" transform="translate(455.93 65.614) rotate(180)">
      <g id="Group_2436-2" data-name="Group 2436" transform="translate(101.48 0)">
        <path id="Path_1186-2" data-name="Path 1186" d="M104.244,7l5.238-5.238a.768.768,0,0,0,0-1.083l-.459-.459a.767.767,0,0,0-1.083,0L101.7,6.461a.773.773,0,0,0,0,1.087l6.231,6.231a.767.767,0,0,0,1.083,0l.459-.459a.767.767,0,0,0,0-1.083Z" transform="translate(-101.48 0)" fill="#fff"/>
      </g>
    </g>
  </g>
</svg>
