<svg xmlns="http://www.w3.org/2000/svg" xmlns:xlink="http://www.w3.org/1999/xlink" width="171.572" height="142.055" viewBox="0 0 171.572 142.055">
  <defs>
    <clipPath id="clip-path">
      <path id="Path_96435" data-name="Path 96435" d="M870.056,203.8a7.59,7.59,0,1,0-7.608-7.59,7.6,7.6,0,0,0,7.608,7.59" transform="translate(-862.448 -188.618)" fill="#fff" clip-rule="evenodd"/>
    </clipPath>
    <clipPath id="clip-path-2">
      <path id="Path_96436" data-name="Path 96436" d="M689.974,267.6a26.852,26.852,0,0,1,5.738.7,19.621,19.621,0,0,1,5.034-5.63,32.155,32.155,0,0,0-10.638-1.919c-13.12-.262-26.38,10.487-30.757,8.286l.092-.331c4.44,1.021,5.987-5.648,1.589-6.689a7.053,7.053,0,0,0-7.79,10.278,7.317,7.317,0,0,0,5.087,3.592l-.058.11c-4.623,8.841-14.247,27.407-11.715,23.768l13.556-18.373c0,3.992.576,17.655,1.137,23.74.358,3.877,1.532,3.89,1.891,0,.562-6.086,1.137-19.748,1.137-23.74l13.556,18.373c2.532,3.639-7.092-14.927-11.714-23.768l-.343-.651c7.44-2.237,15.365-7.921,24.2-7.746" transform="translate(-646.14 -260.74)" fill="#fff" clip-rule="evenodd"/>
    </clipPath>
    <clipPath id="clip-path-3">
      <path id="Path_96437" data-name="Path 96437" d="M861.626,275.156a9.007,9.007,0,0,1,.437,6.307c-.12.531-.267,1.074-.437,1.622-.88-2.836-1.214-5.36,0-7.929m0-10.043a19.833,19.833,0,0,0-5.927,6.549l-.006.012a14.779,14.779,0,0,0-1.624,5.2c-.022.179-.038.358-.053.536a15.708,15.708,0,0,0-.048,1.62c.087,4.3,1.831,8.617,3.868,12.965-4.742,10.436-12.951,31.569,2.475,37.716l2.593.015c8.677-3.513,9.962-11.657,8.428-20.269a64.475,64.475,0,0,0-3.624-12.1q-2.292,5.077-4.061,9.378c-.025.426,4.078,12-2.021,15.962-6.181-4.015-2.325-15.983,0-22.007l.007.019c1.974-4.856,6.062-12.987,7.135-17.747s.539-8.848-2.143-12.86a22.836,22.836,0,0,1,10.544-2.513c8.833-.175,16.757,5.509,24.2,7.746l-.343.651c-4.622,8.841-14.246,27.407-11.714,23.768l13.555-18.373c0,3.992.576,17.655,1.138,23.74.358,3.877,1.531,3.89,1.89,0,.562-6.086,1.137-19.748,1.137-23.74l13.556,18.373c2.531,3.639-7.092-14.927-11.715-23.768l-.058-.113c2.245-.635,3.853-1.384,5.088-3.59a7.053,7.053,0,0,0-7.791-10.278c-4.4,1.041-2.849,7.71,1.589,6.689.45-.1.448.8-2.2.54-5.958-.578-16.441-8.735-28.465-8.5C871.477,260.856,865.959,262.163,861.626,265.114Z" transform="translate(-851.366 -260.738)" fill="#fff" clip-rule="evenodd"/>
    </clipPath>
  </defs>
  <g id="Group_36448" data-name="Group 36448" transform="translate(-540.111 -188.618)">
    <g id="Group_36443" data-name="Group 36443" transform="translate(561.173 188.618)">
      <g id="Group_36442" data-name="Group 36442" transform="translate(0)">
        <g id="Group_36437" data-name="Group 36437" transform="translate(56.083)">
          <g id="Group_36436" data-name="Group 36436" clip-path="url(#clip-path)">
            <rect id="Rectangle_10770" data-name="Rectangle 10770" width="15.215" height="15.18" transform="translate(0 0)" fill="#fff"/>
          </g>
        </g>
        <g id="Group_36439" data-name="Group 36439" transform="translate(4.314 17.261)">
          <g id="Group_36438" data-name="Group 36438" clip-path="url(#clip-path-2)">
            <rect id="Rectangle_10771" data-name="Rectangle 10771" width="56.721" height="48.535" transform="translate(-2.115 -0.257)" fill="#fff"/>
          </g>
        </g>
        <g id="Group_36441" data-name="Group 36441" transform="translate(53.43 17.26)">
          <g id="Group_36440" data-name="Group 36440" clip-path="url(#clip-path-3)">
            <rect id="Rectangle_10772" data-name="Rectangle 10772" width="78.232" height="69.224" transform="translate(-6.481 -0.235)" fill="#fff"/>
          </g>
        </g>
        <rect id="Rectangle_10773" data-name="Rectangle 10773" width="43.629" height="5.993" transform="translate(0 74.269)" fill="#fff"/>
        <rect id="Rectangle_10774" data-name="Rectangle 10774" width="26.849" height="5.038" transform="translate(9.109 67.435)" fill="#fff"/>
        <rect id="Rectangle_10775" data-name="Rectangle 10775" width="43.629" height="5.993" transform="translate(85.819 74.269)" fill="#fff"/>
        <rect id="Rectangle_10776" data-name="Rectangle 10776" width="26.849" height="5.038" transform="translate(94.929 67.435)" fill="#fff"/>
      </g>
    </g>
    <g id="Group_36444" data-name="Group 36444" transform="translate(540.111 281.542)">
      <path id="Path_96438" data-name="Path 96438" d="M563.032,632.692a.722.722,0,0,0,.443-.181.734.734,0,0,0,.237-.388.757.757,0,0,0-.021-.432.735.735,0,0,0-.234-.339.751.751,0,0,0-.387-.157.808.808,0,0,0-.419.052.707.707,0,0,0-.311.248.792.792,0,0,0-.14.391.716.716,0,0,0,.073.4.748.748,0,0,0,.3.3A.782.782,0,0,0,563.032,632.692Z" transform="translate(-556.912 -618.192)" fill="#fff"/>
      <path id="Path_96439" data-name="Path 96439" d="M549.434,608.6a2.24,2.24,0,0,0,.014-1.7,1.8,1.8,0,0,0-1.724-1.075h-1.661a.429.429,0,0,1-.4-.461.459.459,0,0,1,.377-.488h4.047v4.683h3.2a.884.884,0,0,0,.726-.339,1.135,1.135,0,0,0,.2-.708v-5.08h-1.647v4.822h-.942v-3.6q0-1.137-1.193-1.137h-4.543a1.74,1.74,0,0,0-1.465.844,2.129,2.129,0,0,0-.154,1.717,1.606,1.606,0,0,0,1.452,1.145h1.8q.6.09.59.534t-.283.5h-5.108a1.67,1.67,0,0,1-.956-.928,2.194,2.194,0,0,1-.154-1.417,1.419,1.419,0,0,1,1-1.033h.614v-1.361h-1.159a2.648,2.648,0,0,0-1.814,1.94,3.8,3.8,0,0,0,.174,2.519,2.989,2.989,0,0,0,1.71,1.584h5.778A1.829,1.829,0,0,0,549.434,608.6Z" transform="translate(-540.111 -597.078)" fill="#fff"/>
      <path id="Path_96440" data-name="Path 96440" d="M555.79,631.352a.751.751,0,0,0-.387-.157.808.808,0,0,0-.419.052.707.707,0,0,0-.311.248.788.788,0,0,0-.139.391.712.712,0,0,0,.073.4.746.746,0,0,0,.3.3.783.783,0,0,0,.461.1.721.721,0,0,0,.443-.181.735.735,0,0,0,.237-.388.762.762,0,0,0-.021-.432A.735.735,0,0,0,555.79,631.352Z" transform="translate(-551.079 -618.192)" fill="#fff"/>
      <path id="Path_96441" data-name="Path 96441" d="M592.6,595.94a.788.788,0,0,0,.461.1.724.724,0,0,0,.443-.182.734.734,0,0,0,.237-.387.758.758,0,0,0-.021-.432.735.735,0,0,0-.234-.338.747.747,0,0,0-.387-.157.812.812,0,0,0-.419.052.709.709,0,0,0-.311.248.786.786,0,0,0-.14.391.714.714,0,0,0,.073.4A.748.748,0,0,0,592.6,595.94Z" transform="translate(-579.757 -590.312)" fill="#fff"/>
      <path id="Path_96442" data-name="Path 96442" d="M603.1,608.546a2.214,2.214,0,0,0,1.668,1.012h1.647a1.021,1.021,0,0,1-.119.583.629.629,0,0,1-.356.22h-2.959v1.312h3.21a1.952,1.952,0,0,0,1.361-.4,1.63,1.63,0,0,0,.509-1.194v-.523h1.773a.884.884,0,0,0,.726-.339,1.137,1.137,0,0,0,.2-.708v-5.08h-1.647v4.822h-1.054v-4.738h-3.377a2.155,2.155,0,0,0-1.7,1.047,3.686,3.686,0,0,0-.481,2A3.789,3.789,0,0,0,603.1,608.546Zm1.04-2.694a1.413,1.413,0,0,1,1.1-1.04h1.172v3.44h-1.34a1.537,1.537,0,0,1-.831-.907A2.3,2.3,0,0,1,604.143,605.853Z" transform="translate(-587.57 -597.078)" fill="#fff"/>
      <path id="Path_96443" data-name="Path 96443" d="M630.627,595.94a.788.788,0,0,0,.461.1.723.723,0,0,0,.443-.182.735.735,0,0,0,.237-.387.758.758,0,0,0-.021-.432.732.732,0,0,0-.234-.338.747.747,0,0,0-.387-.157.811.811,0,0,0-.419.052.707.707,0,0,0-.311.248.787.787,0,0,0-.14.391.715.715,0,0,0,.073.4A.749.749,0,0,0,630.627,595.94Z" transform="translate(-608.68 -590.312)" fill="#fff"/>
      <path id="Path_96444" data-name="Path 96444" d="M665.733,593.869a.782.782,0,0,0,.461.1.722.722,0,0,0,.443-.181.735.735,0,0,0,.237-.387.759.759,0,0,0-.021-.433.735.735,0,0,0-.234-.339.752.752,0,0,0-.388-.157.813.813,0,0,0-.419.052.709.709,0,0,0-.311.248.794.794,0,0,0-.14.391.715.715,0,0,0,.073.4A.746.746,0,0,0,665.733,593.869Z" transform="translate(-635.384 -588.737)" fill="#fff"/>
      <path id="Path_96445" data-name="Path 96445" d="M657.54,593.869a.783.783,0,0,0,.461.1.721.721,0,0,0,.443-.181.735.735,0,0,0,.237-.387.759.759,0,0,0-.021-.433.736.736,0,0,0-.234-.339.752.752,0,0,0-.387-.157.814.814,0,0,0-.419.052.708.708,0,0,0-.31.248.79.79,0,0,0-.14.391.718.718,0,0,0,.073.4A.748.748,0,0,0,657.54,593.869Z" transform="translate(-629.152 -588.737)" fill="#fff"/>
      <path id="Path_96446" data-name="Path 96446" d="M642.674,599.866h4.634q.921-.042,1.179-.447c.061.3.335.444.816.446v.007h.4a2.2,2.2,0,0,0,1.333-.419,1.565,1.565,0,0,0,.467-1.277V590.7h-1.647v6.922q.021.831-.363.942h-.67v-4.738H645.2a2.135,2.135,0,0,0-1.891,1.214,2.553,2.553,0,0,0-.021,2.08,2.081,2.081,0,0,0,1.982,1.144h1.884q-.028.3-.726.3h-4.452v-7.872h-1.647v9.177h2.345Zm2.987-2.889q-.858-.07-.994-.572a.972.972,0,0,1,.1-.848,1.138,1.138,0,0,1,.9-.394h1.508v1.814Z" transform="translate(-616.344 -587.385)" fill="#fff"/>
      <rect id="Rectangle_10777" data-name="Rectangle 10777" width="1.619" height="9.211" transform="translate(35.918 3.269)" fill="#fff"/>
      <path id="Path_96447" data-name="Path 96447" d="M588.687,648.478a14.961,14.961,0,0,1-2.21,2.309L581.1,655.9a44.268,44.268,0,0,1-5.7,5.214c-.974.687-3.026.217-4.449-.927a21.21,21.21,0,0,1-3.915-4.136l-3.346-4.647c.275,2.019,6.441,12.952,7.913,13.928a4.237,4.237,0,0,0,4.03.73,18.567,18.567,0,0,0,5.081-3.946l8.865-8.394q3.985-3.828,5.336-5.026l-5.569-1.655A5.322,5.322,0,0,1,588.687,648.478Z" transform="translate(-558.048 -630.253)" fill="#fff"/>
      <path id="Path_96448" data-name="Path 96448" d="M591.618,650.561a8.017,8.017,0,0,1-1.14,1.284L587.7,654.7a23.767,23.767,0,0,1-2.956,2.913,2.31,2.31,0,0,1-2.406-.408,11.4,11.4,0,0,1-2.184-2.141l-1.889-2.427c.188,1.078,3.717,6.822,4.526,7.317a2.275,2.275,0,0,0,2.178.311,9.976,9.976,0,0,0,2.648-2.22l4.59-4.683q2.063-2.134,2.763-2.8l-3.022-.777A2.858,2.858,0,0,1,591.618,650.561Z" transform="translate(-569.131 -632.333)" fill="#fff"/>
      <path id="Path_96449" data-name="Path 96449" d="M589.659,652.658l-1.011-1.3a15.886,15.886,0,0,0,2.422,3.915,1.217,1.217,0,0,0,1.165.167,5.336,5.336,0,0,0,1.417-1.188l2.456-2.506q1.1-1.142,1.479-1.5l-1.617-.416a1.53,1.53,0,0,1-.175.419,4.315,4.315,0,0,1-.61.687l-1.488,1.527a12.717,12.717,0,0,1-1.582,1.558,1.237,1.237,0,0,1-1.287-.219A6.1,6.1,0,0,1,589.659,652.658Z" transform="translate(-577.032 -632.373)" fill="#fff"/>
      <path id="Path_96450" data-name="Path 96450" d="M817.5,586.526a3.734,3.734,0,0,1,.327,1.567,34.623,34.623,0,0,1-.927,4.883l-2.545,11.059q-.77,3.086-1.643,3.875t-3.742.788h-1.2q-1.745,0-1.745-1.4,0-.184.092-.942a12.9,12.9,0,0,0,.436-7.44,8.71,8.71,0,0,0-1.739-3.605,9.35,9.35,0,0,0-3.337-2.733A10.032,10.032,0,0,0,797,591.522a7.858,7.858,0,0,0-3.805.735l-3.274,13.778a6.068,6.068,0,0,1-.666,1.561q-.736,1.1-4.041,1.1h-1.469q-1.672-.285-1.671-1.784a2.146,2.146,0,0,1,.041-.452l.485-2.078,1.631-6.979q.973-4.165,1.409-5.979l-5.258,1.7a4.974,4.974,0,0,1,.184,1.456,11.727,11.727,0,0,1-.322,2.347q-.323,1.481-.724,3.321-1.424,6.429-2.663,7.531a5.447,5.447,0,0,1-3.582.918h-.367a34.026,34.026,0,0,0,1.171-4.225l3.008-12.972-5.487,1.7a4.85,4.85,0,0,1,.229,1.538,15.845,15.845,0,0,1-.574,3.146l-1.447,6.13a6.956,6.956,0,0,1-1.779,3.719,5.05,5.05,0,0,1-3.5.964h-.459a34.069,34.069,0,0,0,1.171-4.225l3.008-12.972-5.487,1.7a4.785,4.785,0,0,1,.184,1.469,14.89,14.89,0,0,1-.471,2.95q-.471,2.032-1.32,5.568t-1.952,4.523a5.343,5.343,0,0,1-3.6.987h-1.722q-1.7-.047-1.7-1.339a2.761,2.761,0,0,1,.1-1.425l1.65-6.9q1.4-5.851,1.878-7.206l-5.419,1.656a9.544,9.544,0,0,1-.359,4.7l-.858,3.511q-1.125,5.281-2.25,6.314-.712.688-3.582.689h-7.484q-1.671-.285-1.671-1.784a2.142,2.142,0,0,1,.041-.452l.485-2.078,1.631-6.979q.973-4.165,1.409-5.979l-5.258,1.7a4.955,4.955,0,0,1,.184,1.456,11.713,11.713,0,0,1-.323,2.347l-.723,3.321q-1.424,6.429-2.663,7.531a5.446,5.446,0,0,1-3.582.918h-.367a34.043,34.043,0,0,0,1.171-4.225l3.008-12.972-5.487,1.7a4.85,4.85,0,0,1,.229,1.538,15.854,15.854,0,0,1-.574,3.146l-1.446,6.13a6.959,6.959,0,0,1-1.779,3.719,5.05,5.05,0,0,1-3.5.964h-.459a34.053,34.053,0,0,0,1.171-4.225l3.008-12.972-5.488,1.7a4.781,4.781,0,0,1,.184,1.469,14.892,14.892,0,0,1-.471,2.95q-.471,2.032-1.32,5.568t-1.952,4.523a5.343,5.343,0,0,1-3.6.987h-1.61q-1.765,0-1.765-1.39a4.276,4.276,0,0,1,.138-.98L709.371,585l-5.5,1.7a5.129,5.129,0,0,1,.087,3.058l-3.949,17.082a5.289,5.289,0,0,0-.207,1.309,3.441,3.441,0,0,0,1.435,2.939,5.446,5.446,0,0,0,3.318,1.056h6.635a4.879,4.879,0,0,0,4.592-2.594,2.343,2.343,0,0,0,.207-.505,4.146,4.146,0,0,0,4.213,3.1,4.579,4.579,0,0,0,4.443-2.594l.184-.368a4.069,4.069,0,0,0,4.041,2.962,5.308,5.308,0,0,0,3.147-.9,3.314,3.314,0,0,0,2.3.9h12.4a5.088,5.088,0,0,0,2.824-.758,5,5,0,0,0,2.778.758h6.773a4.879,4.879,0,0,0,4.592-2.594,2.345,2.345,0,0,0,.207-.505,4.146,4.146,0,0,0,4.213,3.1,4.579,4.579,0,0,0,4.442-2.594l.184-.368a4.068,4.068,0,0,0,4.041,2.962,5.308,5.308,0,0,0,3.147-.9,3.313,3.313,0,0,0,2.3.9h7.943q2.477,0,3.188-1.309a5.572,5.572,0,0,0,1.927,1.493,6.581,6.581,0,0,0,7.89-1.125,4.826,4.826,0,0,0,3.045.941h6.177q2.917,0,4.031-1.653a19.4,19.4,0,0,0,2.1-6.015l4.544-19.655Zm-16.27,19.736a5.033,5.033,0,0,1-2.278,2.413,3.038,3.038,0,0,1-2.878-.073,3.351,3.351,0,0,1-1.306-.946q-.59-.669-.543-.947l2.64-11.274a4.116,4.116,0,0,1,3.565.678q1.847,1.206,1.986,4.263A11.133,11.133,0,0,1,801.228,606.262Z" transform="translate(-661.584 -582.921)" fill="#fff"/>
      <path id="Path_96451" data-name="Path 96451" d="M1217.579,585.955a6.112,6.112,0,0,1,.081,3.323l-4.643,19.888q-.043.324-.627,2.684a6.838,6.838,0,0,0,2.331-.415,4.1,4.1,0,0,0,2.829-3.022l5.516-24.279Z" transform="translate(-1051.494 -582.399)" fill="#fff"/>
      <rect id="Rectangle_10778" data-name="Rectangle 10778" width="3.853" height="3.853" transform="translate(84.63 0)" fill="#fff"/>
      <rect id="Rectangle_10779" data-name="Rectangle 10779" width="3.853" height="3.853" transform="translate(80.264 0)" fill="#fff"/>
      <rect id="Rectangle_10780" data-name="Rectangle 10780" width="3.853" height="3.853" transform="translate(71.531 0)" fill="#fff"/>
      <rect id="Rectangle_10781" data-name="Rectangle 10781" width="3.853" height="3.853" transform="translate(67.165 0)" fill="#fff"/>
      <rect id="Rectangle_10782" data-name="Rectangle 10782" width="3.853" height="3.853" transform="translate(62.799 0)" fill="#fff"/>
    </g>
    <text id="Legal_Counsel" data-name="Legal Counsel" transform="translate(582.42 326.673)" fill="#fff" font-size="15" font-family="SegoeUI, Segoe UI" letter-spacing="0.124em"><tspan x="0" y="0">Legal Counsel</tspan></text>
  </g>
</svg>
