<svg xmlns="http://www.w3.org/2000/svg" xmlns:xlink="http://www.w3.org/1999/xlink" width="166.801" height="139.661" viewBox="0 0 166.801 139.661">
  <defs>
    <clipPath id="clip-path">
      <path id="Path_96435" data-name="Path 96435" d="M869.844,203.376a7.379,7.379,0,1,0-7.4-7.379,7.387,7.387,0,0,0,7.4,7.379" transform="translate(-862.448 -188.618)" fill="none" clip-rule="evenodd"/>
    </clipPath>
    <linearGradient id="linear-gradient" x1="0.5" y1="6.889" x2="0.5" y2="-1.131" gradientUnits="objectBoundingBox">
      <stop offset="0" stop-color="#c38b34"/>
      <stop offset="1" stop-color="#f0dc6f"/>
    </linearGradient>
    <clipPath id="clip-path-2">
      <path id="Path_96436" data-name="Path 96436" d="M688.755,267.4a26.105,26.105,0,0,1,5.579.678,19.077,19.077,0,0,1,4.895-5.473,31.262,31.262,0,0,0-10.342-1.865c-12.756-.254-25.646,10.2-29.9,8.055l.09-.321c4.316.992,5.821-5.491,1.545-6.5a6.857,6.857,0,0,0-7.573,9.993,7.114,7.114,0,0,0,4.946,3.492l-.056.107c-4.494,8.595-13.851,26.645-11.389,23.107l13.179-17.862c0,3.881.56,17.164,1.106,23.08.349,3.769,1.489,3.782,1.838,0,.546-5.916,1.106-19.2,1.106-23.08l13.179,17.862c2.461,3.538-6.9-14.512-11.388-23.107l-.334-.633c7.233-2.175,14.937-7.7,23.524-7.53" transform="translate(-646.14 -260.74)" fill="none" clip-rule="evenodd"/>
    </clipPath>
    <linearGradient id="linear-gradient-2" x1="0.5" y1="1.804" x2="0.5" y2="-0.704" xlink:href="#linear-gradient"/>
    <clipPath id="clip-path-3">
      <path id="Path_96437" data-name="Path 96437" d="M861.341,274.755a8.756,8.756,0,0,1,.425,6.131c-.117.517-.259,1.044-.425,1.577-.856-2.757-1.18-5.211,0-7.708m0-9.763a19.281,19.281,0,0,0-5.762,6.367l-.006.012a14.368,14.368,0,0,0-1.578,5.056c-.021.174-.037.348-.052.521a15.247,15.247,0,0,0-.047,1.575c.085,4.18,1.78,8.377,3.76,12.6-4.61,10.146-12.591,30.691,2.407,36.667l2.521.015c8.436-3.415,9.685-11.332,8.194-19.706a62.668,62.668,0,0,0-3.523-11.76q-2.229,4.936-3.948,9.117c-.025.414,3.964,11.667-1.965,15.518-6.009-3.9-2.26-15.539,0-21.395l.007.018c1.92-4.721,5.894-12.626,6.937-17.254s.524-8.6-2.084-12.5a22.2,22.2,0,0,1,10.25-2.443c8.587-.171,16.291,5.355,23.524,7.53l-.334.633c-4.494,8.595-13.85,26.645-11.388,23.107l13.178-17.862c0,3.881.56,17.164,1.106,23.08.348,3.769,1.489,3.782,1.838,0,.546-5.916,1.106-19.2,1.106-23.08l13.179,17.862c2.461,3.538-6.895-14.512-11.389-23.107l-.057-.11c2.183-.617,3.746-1.346,4.946-3.49a6.857,6.857,0,0,0-7.574-9.993c-4.275,1.012-2.77,7.5,1.545,6.5.437-.1.436.775-2.139.525-5.793-.561-15.984-8.492-27.673-8.259C870.918,260.852,865.553,262.124,861.341,264.992Z" transform="translate(-851.366 -260.738)" fill="none" clip-rule="evenodd"/>
    </clipPath>
    <linearGradient id="linear-gradient-3" x1="0.5" y1="1.265" x2="0.5" y2="-0.494" xlink:href="#linear-gradient"/>
    <linearGradient id="linear-gradient-4" x1="0" y1="0.5" x2="1" y2="0.5" xlink:href="#linear-gradient"/>
    <linearGradient id="linear-gradient-8" x1="-20.398" y1="-4.137" x2="23.224" y2="5.543" xlink:href="#linear-gradient"/>
    <linearGradient id="linear-gradient-9" x1="-20.776" y1="-10.184" x2="23.666" y2="12.059" xlink:href="#linear-gradient"/>
    <linearGradient id="linear-gradient-10" x1="-20.401" y1="-4.138" x2="23.226" y2="5.543" xlink:href="#linear-gradient"/>
    <linearGradient id="linear-gradient-11" x1="-20.399" y1="-4.137" x2="23.224" y2="5.542" xlink:href="#linear-gradient"/>
    <linearGradient id="linear-gradient-12" x1="-21.422" y1="-4.289" x2="24.326" y2="5.691" xlink:href="#linear-gradient"/>
    <linearGradient id="linear-gradient-13" x1="-20.4" y1="-4.137" x2="23.226" y2="5.542" xlink:href="#linear-gradient"/>
    <linearGradient id="linear-gradient-14" x1="-20.399" y1="-4.137" x2="23.225" y2="5.543" xlink:href="#linear-gradient"/>
    <linearGradient id="linear-gradient-15" x1="-20.401" y1="-4.137" x2="23.226" y2="5.543" xlink:href="#linear-gradient"/>
    <linearGradient id="linear-gradient-16" x1="-23.075" y1="-5.743" x2="26.105" y2="7.28" xlink:href="#linear-gradient"/>
    <linearGradient id="linear-gradient-17" x1="-45.283" y1="-1.251" x2="50.278" y2="2.403" xlink:href="#linear-gradient"/>
    <linearGradient id="linear-gradient-18" x1="-19.616" y1="-6.619" x2="22.286" y2="8.155" xlink:href="#linear-gradient"/>
    <linearGradient id="linear-gradient-19" x1="-19.447" y1="-6.339" x2="22.104" y2="7.85" xlink:href="#linear-gradient"/>
    <linearGradient id="linear-gradient-20" x1="-19.447" y1="-6.339" x2="22.104" y2="7.849" xlink:href="#linear-gradient"/>
    <linearGradient id="linear-gradient-21" x1="-19.222" y1="-18.192" x2="21.933" y2="20.743" xlink:href="#linear-gradient"/>
    <linearGradient id="linear-gradient-22" x1="-9.277" y1="-0.319" x2="11.089" y2="1.387" xlink:href="#linear-gradient"/>
    <linearGradient id="linear-gradient-23" x1="-24.411" y1="-4.919" x2="27.585" y2="6.392" xlink:href="#linear-gradient"/>
  </defs>
  <g id="Group_36481" data-name="Group 36481" transform="translate(-540.111 -188.618)">
    <g id="Group_36443" data-name="Group 36443" transform="translate(560.587 188.618)">
      <g id="Group_36442" data-name="Group 36442" transform="translate(0 0)">
        <g id="Group_36437" data-name="Group 36437" transform="translate(54.523)">
          <g id="Group_36436" data-name="Group 36436" clip-path="url(#clip-path)">
            <rect id="Rectangle_10770" data-name="Rectangle 10770" width="14.792" height="14.758" transform="translate(0 0)" fill="url(#linear-gradient)"/>
          </g>
        </g>
        <g id="Group_36439" data-name="Group 36439" transform="translate(4.194 16.781)">
          <g id="Group_36438" data-name="Group 36438" clip-path="url(#clip-path-2)">
            <rect id="Rectangle_10771" data-name="Rectangle 10771" width="55.144" height="47.185" transform="translate(-2.056 -0.25)" fill="url(#linear-gradient-2)"/>
          </g>
        </g>
        <g id="Group_36441" data-name="Group 36441" transform="translate(51.945 16.781)">
          <g id="Group_36440" data-name="Group 36440" clip-path="url(#clip-path-3)">
            <rect id="Rectangle_10772" data-name="Rectangle 10772" width="76.057" height="67.299" transform="translate(-6.301 -0.228)" fill="url(#linear-gradient-3)"/>
          </g>
        </g>
        <rect id="Rectangle_10773" data-name="Rectangle 10773" width="42.416" height="5.826" transform="translate(0 72.204)" fill="url(#linear-gradient-4)"/>
        <rect id="Rectangle_10774" data-name="Rectangle 10774" width="26.102" height="4.898" transform="translate(8.856 65.56)" fill="url(#linear-gradient-4)"/>
        <rect id="Rectangle_10775" data-name="Rectangle 10775" width="42.416" height="5.826" transform="translate(83.433 72.204)" fill="url(#linear-gradient-4)"/>
        <rect id="Rectangle_10776" data-name="Rectangle 10776" width="26.102" height="4.898" transform="translate(92.289 65.56)" fill="url(#linear-gradient-4)"/>
      </g>
    </g>
    <g id="Group_36444" data-name="Group 36444" transform="translate(540.111 278.958)">
      <path id="Path_96438" data-name="Path 96438" d="M563.009,632.65a.7.7,0,0,0,.431-.176.713.713,0,0,0,.231-.377.735.735,0,0,0-.02-.42.714.714,0,0,0-.227-.329.73.73,0,0,0-.376-.153.787.787,0,0,0-.407.051.687.687,0,0,0-.3.241.77.77,0,0,0-.136.38.7.7,0,0,0,.071.393.727.727,0,0,0,.289.292A.761.761,0,0,0,563.009,632.65Z" transform="translate(-557.059 -618.553)" fill="url(#linear-gradient-8)"/>
      <path id="Path_96439" data-name="Path 96439" d="M549.175,608.458a2.177,2.177,0,0,0,.014-1.655,1.75,1.75,0,0,0-1.676-1.045H545.9a.417.417,0,0,1-.393-.448.446.446,0,0,1,.366-.475h3.935v4.552h3.107a.86.86,0,0,0,.706-.329,1.1,1.1,0,0,0,.2-.688v-4.939h-1.6v4.688H551.3v-3.5q0-1.106-1.16-1.106h-4.417a1.692,1.692,0,0,0-1.425.821,2.069,2.069,0,0,0-.149,1.669,1.562,1.562,0,0,0,1.411,1.113h1.75q.584.088.573.519t-.275.485h-4.966a1.624,1.624,0,0,1-.929-.9,2.133,2.133,0,0,1-.149-1.377,1.38,1.38,0,0,1,.97-1h.6v-1.323H542a2.575,2.575,0,0,0-1.764,1.886,3.689,3.689,0,0,0,.17,2.449,2.906,2.906,0,0,0,1.662,1.54h5.617A1.778,1.778,0,0,0,549.175,608.458Z" transform="translate(-540.111 -597.255)" fill="url(#linear-gradient-9)"/>
      <path id="Path_96440" data-name="Path 96440" d="M555.755,631.347a.731.731,0,0,0-.376-.153.786.786,0,0,0-.407.051.686.686,0,0,0-.3.241.765.765,0,0,0-.136.38.692.692,0,0,0,.071.393.725.725,0,0,0,.288.292.761.761,0,0,0,.448.1.7.7,0,0,0,.431-.176A.713.713,0,0,0,556,632.1a.74.74,0,0,0-.02-.42A.715.715,0,0,0,555.755,631.347Z" transform="translate(-551.175 -618.553)" fill="url(#linear-gradient-10)"/>
      <path id="Path_96441" data-name="Path 96441" d="M592.594,595.9a.765.765,0,0,0,.448.1.7.7,0,0,0,.431-.177.715.715,0,0,0,.231-.377.737.737,0,0,0-.02-.42.715.715,0,0,0-.228-.329.727.727,0,0,0-.376-.153.789.789,0,0,0-.407.051.688.688,0,0,0-.3.241.766.766,0,0,0-.136.38.7.7,0,0,0,.071.394A.728.728,0,0,0,592.594,595.9Z" transform="translate(-580.104 -590.43)" fill="url(#linear-gradient-11)"/>
      <path id="Path_96442" data-name="Path 96442" d="M603.087,608.4a2.153,2.153,0,0,0,1.621.984h1.6a.992.992,0,0,1-.115.566.612.612,0,0,1-.346.214h-2.877v1.276h3.121a1.9,1.9,0,0,0,1.323-.386,1.584,1.584,0,0,0,.5-1.16v-.509h1.723a.86.86,0,0,0,.706-.329,1.106,1.106,0,0,0,.2-.688v-4.939h-1.6v4.688h-1.025v-4.606h-3.283a2.1,2.1,0,0,0-1.656,1.017,3.583,3.583,0,0,0-.468,1.947A3.683,3.683,0,0,0,603.087,608.4Zm1.011-2.619a1.374,1.374,0,0,1,1.072-1.011h1.14v3.345h-1.3a1.5,1.5,0,0,1-.807-.882A2.237,2.237,0,0,1,604.1,605.785Z" transform="translate(-587.985 -597.255)" fill="url(#linear-gradient-12)"/>
      <path id="Path_96443" data-name="Path 96443" d="M630.616,595.9a.765.765,0,0,0,.448.1.7.7,0,0,0,.431-.177.715.715,0,0,0,.231-.377.737.737,0,0,0-.02-.42.712.712,0,0,0-.227-.329.727.727,0,0,0-.376-.153.789.789,0,0,0-.407.051.688.688,0,0,0-.3.241.765.765,0,0,0-.136.38.7.7,0,0,0,.071.394A.728.728,0,0,0,630.616,595.9Z" transform="translate(-609.28 -590.43)" fill="url(#linear-gradient-13)"/>
      <path id="Path_96444" data-name="Path 96444" d="M665.723,593.83a.761.761,0,0,0,.448.1.7.7,0,0,0,.431-.176.714.714,0,0,0,.231-.376.737.737,0,0,0-.02-.421.715.715,0,0,0-.227-.329.732.732,0,0,0-.377-.153.791.791,0,0,0-.407.051.689.689,0,0,0-.3.241.772.772,0,0,0-.136.38.7.7,0,0,0,.071.393A.726.726,0,0,0,665.723,593.83Z" transform="translate(-636.217 -588.841)" fill="url(#linear-gradient-14)"/>
      <path id="Path_96445" data-name="Path 96445" d="M657.529,593.83a.762.762,0,0,0,.448.1.7.7,0,0,0,.431-.176.714.714,0,0,0,.231-.376.738.738,0,0,0-.02-.421.715.715,0,0,0-.227-.329.732.732,0,0,0-.376-.153.792.792,0,0,0-.407.051.688.688,0,0,0-.3.241.768.768,0,0,0-.136.38.7.7,0,0,0,.071.393A.728.728,0,0,0,657.529,593.83Z" transform="translate(-629.931 -588.841)" fill="url(#linear-gradient-15)"/>
      <path id="Path_96446" data-name="Path 96446" d="M642.608,599.61h4.5q.9-.041,1.146-.434c.059.288.326.431.794.434v.007h.394a2.137,2.137,0,0,0,1.3-.407,1.521,1.521,0,0,0,.454-1.242V590.7h-1.6v6.73q.02.808-.353.916h-.651v-4.606h-3.528a2.076,2.076,0,0,0-1.839,1.18,2.482,2.482,0,0,0-.02,2.022,2.023,2.023,0,0,0,1.927,1.112h1.832q-.027.292-.706.292H641.93v-7.653h-1.6v8.921h2.279Zm2.9-2.809q-.834-.068-.967-.556a.945.945,0,0,1,.1-.824,1.107,1.107,0,0,1,.878-.383h1.466V596.8Z" transform="translate(-617.011 -587.477)" fill="url(#linear-gradient-16)"/>
      <rect id="Rectangle_10777" data-name="Rectangle 10777" width="1.574" height="8.955" transform="translate(34.919 3.178)" fill="url(#linear-gradient-17)"/>
      <path id="Path_96447" data-name="Path 96447" d="M587.992,648.438a14.543,14.543,0,0,1-2.149,2.245l-5.224,4.973a43.054,43.054,0,0,1-5.543,5.069c-.947.668-2.941.211-4.325-.9a20.614,20.614,0,0,1-3.806-4.021l-3.253-4.518c.268,1.963,6.262,12.592,7.693,13.541a4.119,4.119,0,0,0,3.918.71,18.05,18.05,0,0,0,4.94-3.837l8.619-8.16q3.875-3.721,5.188-4.886l-5.414-1.609A5.175,5.175,0,0,1,587.992,648.438Z" transform="translate(-558.205 -630.72)" fill="url(#linear-gradient-18)"/>
      <path id="Path_96448" data-name="Path 96448" d="M591.247,650.539a7.788,7.788,0,0,1-1.108,1.248l-2.7,2.774a23.11,23.11,0,0,1-2.874,2.832,2.247,2.247,0,0,1-2.34-.4,11.081,11.081,0,0,1-2.123-2.082l-1.836-2.36c.183,1.048,3.613,6.633,4.4,7.113a2.212,2.212,0,0,0,2.117.3,9.7,9.7,0,0,0,2.575-2.158l4.462-4.552q2.005-2.075,2.686-2.727l-2.938-.755A2.779,2.779,0,0,1,591.247,650.539Z" transform="translate(-569.385 -632.818)" fill="url(#linear-gradient-19)"/>
      <path id="Path_96449" data-name="Path 96449" d="M589.631,652.579l-.983-1.262A15.441,15.441,0,0,0,591,655.123a1.183,1.183,0,0,0,1.133.162,5.185,5.185,0,0,0,1.377-1.155l2.388-2.436q1.073-1.11,1.438-1.459l-1.572-.4a1.481,1.481,0,0,1-.17.407,4.178,4.178,0,0,1-.593.668l-1.447,1.484a12.382,12.382,0,0,1-1.537,1.515,1.2,1.2,0,0,1-1.252-.212A5.929,5.929,0,0,1,589.631,652.579Z" transform="translate(-577.355 -632.858)" fill="url(#linear-gradient-20)"/>
      <path id="Path_96450" data-name="Path 96450" d="M814.225,586.478a3.631,3.631,0,0,1,.318,1.524,33.672,33.672,0,0,1-.9,4.747L811.167,603.5q-.749,3-1.6,3.767t-3.638.767H804.76q-1.7,0-1.7-1.362,0-.179.089-.916a12.542,12.542,0,0,0,.424-7.233,8.47,8.47,0,0,0-1.691-3.505,9.089,9.089,0,0,0-3.244-2.656,9.751,9.751,0,0,0-4.344-1.027,7.639,7.639,0,0,0-3.7.714l-3.183,13.4a5.9,5.9,0,0,1-.647,1.518q-.715,1.071-3.929,1.071h-1.428q-1.625-.277-1.625-1.735a2.083,2.083,0,0,1,.04-.439l.471-2.02,1.585-6.785q.946-4.049,1.37-5.813l-5.112,1.652a4.834,4.834,0,0,1,.178,1.416,11.4,11.4,0,0,1-.313,2.282l-.7,3.228q-1.384,6.25-2.589,7.322a5.3,5.3,0,0,1-3.482.893h-.357a33.1,33.1,0,0,0,1.138-4.107l2.924-12.612-5.335,1.652a4.716,4.716,0,0,1,.223,1.5,15.4,15.4,0,0,1-.558,3.058l-1.406,5.96a6.762,6.762,0,0,1-1.73,3.616,4.91,4.91,0,0,1-3.4.938h-.446a33.136,33.136,0,0,0,1.138-4.107l2.924-12.612-5.335,1.652a4.653,4.653,0,0,1,.179,1.429,14.478,14.478,0,0,1-.458,2.868q-.458,1.975-1.283,5.413t-1.9,4.4a5.2,5.2,0,0,1-3.5.96h-1.674q-1.653-.045-1.652-1.3a2.683,2.683,0,0,1,.1-1.386l1.6-6.708q1.36-5.688,1.826-7.005l-5.268,1.61a9.279,9.279,0,0,1-.349,4.57l-.834,3.413q-1.094,5.135-2.187,6.139-.692.669-3.482.67h-7.276q-1.625-.277-1.625-1.735a2.082,2.082,0,0,1,.04-.439l.471-2.02,1.585-6.785q.946-4.049,1.37-5.813l-5.112,1.652a4.819,4.819,0,0,1,.179,1.416,11.389,11.389,0,0,1-.314,2.282q-.314,1.44-.7,3.228-1.384,6.25-2.589,7.322a5.3,5.3,0,0,1-3.482.893h-.357a33.142,33.142,0,0,0,1.138-4.107l2.924-12.612-5.335,1.652a4.716,4.716,0,0,1,.223,1.5,15.418,15.418,0,0,1-.558,3.058l-1.406,5.96a6.766,6.766,0,0,1-1.73,3.616,4.91,4.91,0,0,1-3.4.938h-.446a33.131,33.131,0,0,0,1.138-4.107l2.924-12.612-5.335,1.652a4.65,4.65,0,0,1,.179,1.429,14.475,14.475,0,0,1-.458,2.868q-.458,1.975-1.283,5.413t-1.9,4.4a5.2,5.2,0,0,1-3.5.96h-1.566q-1.716,0-1.716-1.352a4.159,4.159,0,0,1,.134-.953l4.771-20.738-5.347,1.654a4.987,4.987,0,0,1,.084,2.973L700,606.227a5.142,5.142,0,0,0-.2,1.272,3.346,3.346,0,0,0,1.4,2.857,5.3,5.3,0,0,0,3.225,1.027h6.451a4.744,4.744,0,0,0,4.464-2.522,2.276,2.276,0,0,0,.2-.491,4.031,4.031,0,0,0,4.1,3.014,4.452,4.452,0,0,0,4.319-2.522l.178-.357a3.955,3.955,0,0,0,3.929,2.88,5.159,5.159,0,0,0,3.059-.871,3.221,3.221,0,0,0,2.232.871h12.052a4.947,4.947,0,0,0,2.746-.737,4.863,4.863,0,0,0,2.7.737h6.585a4.744,4.744,0,0,0,4.464-2.522,2.276,2.276,0,0,0,.2-.491,4.031,4.031,0,0,0,4.1,3.014,4.452,4.452,0,0,0,4.319-2.522l.179-.357a3.955,3.955,0,0,0,3.928,2.88,5.159,5.159,0,0,0,3.059-.871,3.221,3.221,0,0,0,2.232.871h7.722q2.408,0,3.1-1.272a5.416,5.416,0,0,0,1.873,1.451,6.4,6.4,0,0,0,7.67-1.094,4.691,4.691,0,0,0,2.96.915h6.005q2.836,0,3.918-1.607a18.863,18.863,0,0,0,2.043-5.848l4.417-19.108Zm-15.817,19.187a4.893,4.893,0,0,1-2.215,2.346,2.954,2.954,0,0,1-2.8-.07,3.259,3.259,0,0,1-1.27-.92q-.573-.651-.528-.92l2.567-10.96a4,4,0,0,1,3.466.66q1.8,1.173,1.93,4.145A10.824,10.824,0,0,1,798.407,605.665Z" transform="translate(-662.647 -582.974)" fill="url(#linear-gradient-21)"/>
      <path id="Path_96451" data-name="Path 96451" d="M1217.435,585.9a5.942,5.942,0,0,1,.079,3.23L1213,608.47q-.042.315-.609,2.609a6.649,6.649,0,0,0,2.266-.4,3.984,3.984,0,0,0,2.75-2.938l5.363-23.6Z" transform="translate(-1055.968 -582.447)" fill="url(#linear-gradient-22)"/>
      <rect id="Rectangle_10778" data-name="Rectangle 10778" width="3.746" height="3.746" transform="translate(82.277 0)" fill="url(#linear-gradient-23)"/>
      <rect id="Rectangle_10779" data-name="Rectangle 10779" width="3.746" height="3.746" transform="translate(78.032 0)" fill="url(#linear-gradient-23)"/>
      <rect id="Rectangle_10780" data-name="Rectangle 10780" width="3.746" height="3.746" transform="translate(69.542 0)" fill="url(#linear-gradient-23)"/>
      <rect id="Rectangle_10781" data-name="Rectangle 10781" width="3.746" height="3.746" transform="translate(65.297 0)" fill="url(#linear-gradient-23)"/>
      <rect id="Rectangle_10782" data-name="Rectangle 10782" width="3.746" height="3.746" transform="translate(61.052 0)" fill="url(#linear-gradient-23)"/>
    </g>
    <text id="Legal_Counsel" data-name="Legal Counsel" transform="translate(581.244 324.279)" fill="#fcfcfc" font-size="16" font-family="SegoeUI, Segoe UI" letter-spacing="0.124em"><tspan x="0" y="0">Legal Counsel</tspan></text>
  </g>
</svg>
