<svg id="logo" xmlns="http://www.w3.org/2000/svg" width="24" height="24" viewBox="0 0 24 24">
  <g id="Group_36252" data-name="Group 36252">
    <path id="Path_96423" data-name="Path 96423" d="M12,0C5.24,0,0,4.952,0,11.64a11.387,11.387,0,0,0,3.769,8.61.962.962,0,0,1,.323.684l.065,2.134a.96.96,0,0,0,1.347.849l2.382-1.051a.962.962,0,0,1,.641-.047A13.078,13.078,0,0,0,12,23.28c6.76,0,12-4.952,12-11.64S18.76,0,12,0Zm7.206,8.956-3.525,5.593a1.8,1.8,0,0,1-2.6.48l-2.8-2.1a.719.719,0,0,0-.867,0L5.62,15.8a.57.57,0,0,1-.827-.758L8.318,9.451a1.8,1.8,0,0,1,2.6-.48l2.8,2.1a.719.719,0,0,0,.867,0L18.379,8.2A.57.57,0,0,1,19.206,8.956Z" fill="#262e3e" fill-rule="evenodd"/>
  </g>
</svg>
