<svg xmlns="http://www.w3.org/2000/svg" width="19.815" height="19.763" viewBox="0 0 19.815 19.763">
  <g id="Layer_50" data-name="Layer 50" transform="translate(-10.5 -10.5)">
    <path id="Path_96425" data-name="Path 96425" d="M20.408,10.5A9.917,9.917,0,0,0,10.5,20.408c.544,13.143,19.272,13.138,19.815,0A9.917,9.917,0,0,0,20.408,10.5Zm-5.29,12.1a2.194,2.194,0,0,1,0-4.387A2.194,2.194,0,0,1,15.117,22.6Zm5.29,0a2.194,2.194,0,0,1,0-4.387A2.194,2.194,0,0,1,20.408,22.6Zm5.29,0a2.194,2.194,0,0,1,0-4.387A2.194,2.194,0,0,1,25.7,22.6Z" fill="#262e3e"/>
  </g>
</svg>
