<!DOCTYPE svg PUBLIC "-//W3C//DTD SVG 1.1//EN" "http://www.w3.org/Graphics/SVG/1.1/DTD/svg11.dtd">
<!-- Uploaded to: SVG Repo, www.svgrepo.com, Transformed by: SVG Repo Mixer Tools -->
<svg fill="#262E3E" width="800px" height="800px" viewBox="0 0 32 32" version="1.1" xmlns="http://www.w3.org/2000/svg">
<g id="SVGRepo_bgCarrier" stroke-width="0"/>
<g id="SVGRepo_tracerCarrier" stroke-linecap="round" stroke-linejoin="round" stroke="#CCCCCC" stroke-width="2.112"/>
<g id="SVGRepo_iconCarrier"> <title>user-card</title> <path d="M0 26.016q0 2.496 1.76 4.224t4.256 1.76h20q2.464 0 4.224-1.76t1.76-4.224v-20q0-2.496-1.76-4.256t-4.224-1.76h-20q-2.496 0-4.256 1.76t-1.76 4.256v20zM4 24v-17.984q0-0.832 0.576-1.408t1.44-0.608h20q0.8 0 1.408 0.608t0.576 1.408v17.984h-24zM10.016 19.008q0 1.248 0.864 2.144t2.112 0.864h6.016q1.248 0 2.112-0.864t0.896-2.144q-0.256-1.344-1.088-2.464t-2.048-1.792q1.12-1.152 1.12-2.752v-1.984q0-1.664-1.184-2.848t-2.816-1.152-2.816 1.152-1.184 2.848v1.984q0 1.6 1.12 2.752-1.216 0.672-2.048 1.792t-1.056 2.464z"/> </g>
</svg>