<svg xmlns="http://www.w3.org/2000/svg" width="17.925" height="28.168" viewBox="0 0 17.925 28.168">
  <path id="remember_me_FILL1_wght400_GRAD0_opsz48" d="M11.921,30.168A1.913,1.913,0,0,1,10,28.248V3.921A1.913,1.913,0,0,1,11.921,2H26a1.913,1.913,0,0,1,1.921,1.921V28.248A1.913,1.913,0,0,1,26,30.168Zm7.042-10.243a13.68,13.68,0,0,1,3.7.5A15.6,15.6,0,0,1,26,21.782V6.8H11.921v14.98a16.432,16.432,0,0,1,3.361-1.36A13.507,13.507,0,0,1,18.963,19.925Zm.032-2.017A3.716,3.716,0,0,1,15.282,14.2a3.716,3.716,0,0,1,3.713-3.713A3.716,3.716,0,0,1,22.708,14.2a3.716,3.716,0,0,1-3.713,3.713Z" transform="translate(-10 -2)" fill="#262e3e"/>
</svg>
