<svg xmlns="http://www.w3.org/2000/svg" width="32.091" height="32.091" viewBox="0 0 32.091 32.091">
  <path id="users" d="M10.028,17.383a6.017,6.017,0,1,1,6.017-6.017,6.017,6.017,0,0,1-6.017,6.017ZM18.72,32.091H1.337A1.337,1.337,0,0,1,0,30.754v-.669a10.028,10.028,0,0,1,20.057,0v.669A1.337,1.337,0,0,1,18.72,32.091ZM23.4,12.034a6.017,6.017,0,1,1,6.017-6.017A6.017,6.017,0,0,1,23.4,12.034Zm-1.9,2.7a9.126,9.126,0,0,0-6.244,3.785,12.752,12.752,0,0,1,6.571,6.884h8.928a1.337,1.337,0,0,0,1.337-1.337v-.051A9.371,9.371,0,0,0,21.5,14.736Z" fill="#262e3e"/>
</svg>
