<svg xmlns="http://www.w3.org/2000/svg" width="22" height="20" viewBox="0 0 22 20">
  <g id="Iconly_Bold_Wallet" data-name="Iconly/Bold/Wallet" transform="translate(-2 -3)">
    <g id="Wallet" transform="translate(2 3)">
      <path id="Path_96424" data-name="Path 96424" d="M15.967,0C19.761,0,22,2.205,22,5.98H17.346v.039a3.852,3.852,0,1,0,0,7.7H22v.347C22,17.795,19.761,20,15.967,20H6.033C2.239,20,0,17.795,0,14.068H0V5.932C0,2.205,2.239,0,6.033,0h9.934Zm5.211,7.636A.815.815,0,0,1,22,8.445h0v2.812a.825.825,0,0,1-.821.809H17.434a2.32,2.32,0,0,1-2.3-1.772,2.219,2.219,0,0,1,.476-1.836,2.291,2.291,0,0,1,1.733-.822h3.833Zm-3.3,1.3h-.362a.838.838,0,0,0-.594.236.812.812,0,0,0-.247.582.844.844,0,0,0,.841.838h.362a.828.828,0,1,0,0-1.656ZM11.42,4.324H5.212a.835.835,0,0,0-.841.818.844.844,0,0,0,.841.838H11.42a.828.828,0,1,0,0-1.656Z" transform="translate(0 0)" fill="#262e3e"/>
    </g>
  </g>
</svg>
